NotoSerifKhmer-Regular.ufo
<glyph name="quotesingle" format="2">
  <advance width="220"/>
  <unicode hex="0027"/>
  <outline>
    <contour>
      <point x="87" y="479" type="line"/>
      <point x="133" y="479" type="line"/>
      <point x="163" y="714" type="line"/>
      <point x="57" y="714" type="line"/>
    </contour>
  </outline>
</glyph>
<glyph name="period" format="2">
  <advance width="250"/>
  <unicode hex="002E"/>
  <outline>
    <contour>
      <point x="125" y="-7" type="curve" smooth="yes"/>
      <point x="159" y="-7"/>
      <point x="188" y="10"/>
      <point x="188" y="61" type="curve" smooth="yes"/>
      <point x="188" y="113"/>
      <point x="159" y="129"/>
      <point x="125" y="129" type="curve" smooth="yes"/>
      <point x="90" y="129"/>
      <point x="62" y="113"/>
      <point x="62" y="61" type="curve" smooth="yes"/>
      <point x="62" y="10"/>
      <point x="90" y="-7"/>
    </contour>
  </outline>
</glyph>
<glyph name="uni1781" format="2">
  <advance width="664"/>
  <unicode hex="1781"/>
  <note>
uni1781
</note>
  <anchor x="343" y="760" name="abvm"/>
  <anchor x="342" y="0" name="blwm"/>
  <outline>
    <contour>
      <point x="110" y="514" type="line"/>
      <point x="202" y="514" type="line"/>
      <point x="202" y="536" type="line" smooth="yes"/>
      <point x="202" y="576"/>
      <point x="261" y="615"/>
      <point x="341" y="615" type="curve" smooth="yes"/>
      <point x="420" y="615"/>
      <point x="482" y="579"/>
      <point x="482" y="536" type="curve" smooth="yes"/>
      <point x="482" y="463" type="line" smooth="yes"/>
      <point x="482" y="428"/>
      <point x="436" y="386"/>
      <point x="342" y="338" type="curve" smooth="yes"/>
      <point x="110" y="219" type="line"/>
      <point x="110" y="146" type="line" smooth="yes"/>
      <point x="110" y="70"/>
      <point x="212" y="0"/>
      <point x="342" y="0" type="curve" smooth="yes"/>
      <point x="469" y="0"/>
      <point x="574" y="68"/>
      <point x="574" y="146" type="curve" smooth="yes"/>
      <point x="574" y="292" type="line"/>
      <point x="482" y="243" type="line"/>
      <point x="482" y="146" type="line" smooth="yes"/>
      <point x="482" y="106"/>
      <point x="422" y="67"/>
      <point x="342" y="67" type="curve" smooth="yes"/>
      <point x="264" y="67"/>
      <point x="202" y="104"/>
      <point x="202" y="146" type="curve" smooth="yes"/>
      <point x="202" y="187" type="line"/>
      <point x="388" y="283" type="line" smooth="yes"/>
      <point x="512" y="347"/>
      <point x="574" y="407"/>
      <point x="574" y="463" type="curve" smooth="yes"/>
      <point x="574" y="536" type="line" smooth="yes"/>
      <point x="574" y="612"/>
      <point x="472" y="682"/>
      <point x="341" y="682" type="curve" smooth="yes"/>
      <point x="214" y="682"/>
      <point x="110" y="614"/>
      <point x="110" y="536" type="curve" smooth="yes"/>
    </contour>
    <contour>
      <point x="202" y="526" type="line"/>
      <point x="110" y="526" type="line"/>
      <point x="110" y="407" type="line" smooth="yes"/>
      <point x="110" y="374"/>
      <point x="138" y="355"/>
      <point x="188" y="355" type="curve" smooth="yes"/>
      <point x="247" y="355"/>
      <point x="284" y="382"/>
      <point x="284" y="436" type="curve" smooth="yes"/>
      <point x="284" y="487"/>
      <point x="250" y="509"/>
      <point x="202" y="509" type="curve"/>
    </contour>
    <contour>
      <point x="202" y="470" type="line"/>
      <point x="222" y="470"/>
      <point x="235" y="459"/>
      <point x="235" y="435" type="curve" smooth="yes"/>
      <point x="235" y="411"/>
      <point x="222" y="396"/>
      <point x="202" y="396" type="curve"/>
    </contour>
  </outline>
</glyph>
<glyph name="uni1782" format="2">
  <advance width="633"/>
  <unicode hex="1782"/>
  <note>
uni1782
</note>
  <anchor x="320" y="760" name="abvm"/>
  <anchor x="320" y="728" name="abvm_high"/>
  <anchor x="320" y="0" name="blwm"/>
  <outline>
    <contour>
      <point x="186" y="316" type="line" smooth="yes"/>
      <point x="186" y="355"/>
      <point x="242" y="392"/>
      <point x="317" y="392" type="curve" smooth="yes"/>
      <point x="388" y="392"/>
      <point x="446" y="356"/>
      <point x="446" y="316" type="curve" smooth="yes"/>
      <point x="446" y="0" type="line"/>
      <point x="538" y="0" type="line"/>
      <point x="538" y="316" type="line" smooth="yes"/>
      <point x="538" y="390"/>
      <point x="440" y="459"/>
      <point x="316" y="459" type="curve" smooth="yes"/>
      <point x="195" y="459"/>
      <point x="94" y="392"/>
      <point x="94" y="316" type="curve" smooth="yes"/>
      <point x="94" y="0" type="line"/>
      <point x="186" y="0" type="line"/>
      <point x="186" y="53" type="line"/>
      <point x="240" y="138" type="line" smooth="yes"/>
      <point x="257" y="164"/>
      <point x="266" y="172"/>
      <point x="276" y="172" type="curve" smooth="yes"/>
      <point x="289" y="172"/>
      <point x="291" y="159"/>
      <point x="314" y="159" type="curve" smooth="yes"/>
      <point x="341" y="159"/>
      <point x="354" y="180"/>
      <point x="354" y="203" type="curve" smooth="yes"/>
      <point x="354" y="231"/>
      <point x="334" y="244"/>
      <point x="304" y="244" type="curve" smooth="yes"/>
      <point x="261" y="244"/>
      <point x="232" y="216"/>
      <point x="186" y="146" type="curve"/>
    </contour>
    <contour>
      <point x="175" y="470" type="line"/>
      <point x="141" y="495"/>
      <point x="126" y="512"/>
      <point x="126" y="533" type="curve" smooth="yes"/>
      <point x="126" y="549"/>
      <point x="134" y="561"/>
      <point x="143" y="570" type="curve" smooth="yes"/>
      <point x="152" y="580"/>
      <point x="162" y="586"/>
      <point x="173" y="586" type="curve" smooth="yes"/>
      <point x="187" y="586"/>
      <point x="200" y="577"/>
      <point x="230" y="554" type="curve" smooth="yes"/>
      <point x="261" y="530"/>
      <point x="279" y="516"/>
      <point x="299" y="516" type="curve" smooth="yes"/>
      <point x="320" y="516"/>
      <point x="343" y="528"/>
      <point x="368" y="549" type="curve" smooth="yes"/>
      <point x="388" y="566"/>
      <point x="404" y="585"/>
      <point x="422" y="585" type="curve" smooth="yes"/>
      <point x="456" y="585"/>
      <point x="477" y="516"/>
      <point x="529" y="516" type="curve" smooth="yes"/>
      <point x="551" y="516"/>
      <point x="578" y="528"/>
      <point x="591" y="582" type="curve"/>
      <point x="559" y="580"/>
      <point x="539" y="587"/>
      <point x="521" y="605" type="curve" smooth="yes"/>
      <point x="481" y="645" type="line" smooth="yes"/>
      <point x="454" y="672"/>
      <point x="440" y="680"/>
      <point x="431" y="680" type="curve" smooth="yes"/>
      <point x="417" y="680"/>
      <point x="396" y="661"/>
      <point x="366" y="633" type="curve" smooth="yes"/>
      <point x="340" y="608"/>
      <point x="323" y="593"/>
      <point x="310" y="593" type="curve" smooth="yes"/>
      <point x="297" y="593"/>
      <point x="279" y="608"/>
      <point x="258" y="628" type="curve" smooth="yes"/>
      <point x="221" y="663"/>
      <point x="201" y="682"/>
      <point x="186" y="682" type="curve" smooth="yes"/>
      <point x="170" y="682"/>
      <point x="146" y="663"/>
      <point x="119" y="640" type="curve" smooth="yes"/>
      <point x="60" y="589"/>
      <point x="43" y="562"/>
      <point x="43" y="530" type="curve" smooth="yes"/>
      <point x="43" y="490"/>
      <point x="70" y="458"/>
      <point x="102" y="427" type="curve"/>
    </contour>
  </outline>
</glyph>
<glyph name="uni1783" format="2">
  <advance width="1014"/>
  <unicode hex="1783"/>
  <note>
uni1783
</note>
  <anchor x="703" y="760" name="abvm"/>
  <anchor x="717" y="0" name="blwm"/>
  <outline>
    <contour>
      <point x="922" y="401" type="line"/>
      <point x="830" y="401" type="line"/>
      <point x="830" y="146" type="line" smooth="yes"/>
      <point x="830" y="109"/>
      <point x="771" y="67"/>
      <point x="702" y="67" type="curve" smooth="yes"/>
      <point x="633" y="67"/>
      <point x="574" y="109"/>
      <point x="574" y="146" type="curve" smooth="yes"/>
      <point x="574" y="401" type="line"/>
      <point x="482" y="401" type="line"/>
      <point x="482" y="146" type="line" smooth="yes"/>
      <point x="482" y="109"/>
      <point x="423" y="67"/>
      <point x="354" y="67" type="curve" smooth="yes"/>
      <point x="285" y="67"/>
      <point x="226" y="109"/>
      <point x="226" y="146" type="curve" smooth="yes"/>
      <point x="226" y="401" type="line"/>
      <point x="134" y="401" type="line"/>
      <point x="134" y="146" type="line" smooth="yes"/>
      <point x="134" y="82"/>
      <point x="224" y="0"/>
      <point x="354" y="0" type="curve" smooth="yes"/>
      <point x="431" y="0"/>
      <point x="470" y="16"/>
      <point x="528" y="62" type="curve"/>
      <point x="572" y="18"/>
      <point x="635" y="0"/>
      <point x="702" y="0" type="curve" smooth="yes"/>
      <point x="832" y="0"/>
      <point x="922" y="82"/>
      <point x="922" y="146" type="curve" smooth="yes"/>
    </contour>
    <contour>
      <point x="574" y="350" type="line"/>
      <point x="574" y="447" type="line"/>
      <point x="469" y="532" type="line"/>
      <point x="512" y="590" type="line"/>
      <point x="547" y="565"/>
      <point x="569" y="557"/>
      <point x="586" y="557" type="curve" smooth="yes"/>
      <point x="625" y="557"/>
      <point x="650" y="596"/>
      <point x="650" y="629" type="curve"/>
      <point x="599" y="625"/>
      <point x="576" y="638"/>
      <point x="512" y="680" type="curve"/>
      <point x="419" y="552"/>
      <point x="397" y="534"/>
      <point x="397" y="514" type="curve" smooth="yes"/>
      <point x="397" y="499"/>
      <point x="409" y="484"/>
      <point x="482" y="424" type="curve"/>
      <point x="482" y="350" type="line"/>
    </contour>
    <contour>
      <point x="226" y="340" type="line"/>
      <point x="226" y="629" type="line" smooth="yes"/>
      <point x="226" y="661"/>
      <point x="198" y="677"/>
      <point x="161" y="677" type="curve" smooth="yes"/>
      <point x="83" y="677"/>
      <point x="17" y="606"/>
      <point x="17" y="530" type="curve" smooth="yes"/>
      <point x="17" y="489"/>
      <point x="37" y="418"/>
      <point x="134" y="418" type="curve"/>
      <point x="134" y="340" type="line"/>
    </contour>
    <contour>
      <point x="134" y="486" type="line"/>
      <point x="95" y="486"/>
      <point x="84" y="513"/>
      <point x="84" y="536" type="curve" smooth="yes"/>
      <point x="84" y="561"/>
      <point x="97" y="589"/>
      <point x="134" y="600" type="curve"/>
    </contour>
    <contour>
      <point x="922" y="350" type="line"/>
      <point x="922" y="447" type="line"/>
      <point x="817" y="532" type="line"/>
      <point x="860" y="590" type="line"/>
      <point x="895" y="565"/>
      <point x="917" y="557"/>
      <point x="934" y="557" type="curve" smooth="yes"/>
      <point x="973" y="557"/>
      <point x="998" y="596"/>
      <point x="998" y="629" type="curve"/>
      <point x="947" y="625"/>
      <point x="924" y="638"/>
      <point x="860" y="680" type="curve"/>
      <point x="767" y="552"/>
      <point x="745" y="534"/>
      <point x="745" y="514" type="curve" smooth="yes"/>
      <point x="745" y="499"/>
      <point x="757" y="484"/>
      <point x="830" y="424" type="curve"/>
      <point x="830" y="350" type="line"/>
    </contour>
  </outline>
</glyph>
<glyph name="uni1784" format="2">
  <advance width="684"/>
  <unicode hex="1784"/>
  <note>
uni1784
</note>
  <anchor x="327" y="840" name="abvm"/>
  <anchor x="371" y="0" name="blwm"/>
  <outline>
    <contour>
      <point x="130" y="0" type="line"/>
      <point x="222" y="0" type="line"/>
      <point x="362" y="115" type="line"/>
      <point x="502" y="0" type="line"/>
      <point x="594" y="0" type="line"/>
      <point x="594" y="389" type="line" smooth="yes"/>
      <point x="594" y="452"/>
      <point x="530" y="495"/>
      <point x="471" y="536" type="curve" smooth="yes"/>
      <point x="445" y="554"/>
      <point x="413" y="572"/>
      <point x="413" y="599" type="curve" smooth="yes"/>
      <point x="413" y="613"/>
      <point x="422" y="628"/>
      <point x="438" y="628" type="curve" smooth="yes"/>
      <point x="454" y="628"/>
      <point x="462" y="615"/>
      <point x="462" y="601" type="curve" smooth="yes"/>
      <point x="462" y="577"/>
      <point x="438" y="548"/>
      <point x="411" y="532" type="curve" smooth="yes"/>
      <point x="375" y="511"/>
      <point x="322" y="505"/>
      <point x="293" y="505" type="curve" smooth="yes"/>
      <point x="246" y="505"/>
      <point x="206" y="521"/>
      <point x="206" y="576" type="curve" smooth="yes"/>
      <point x="206" y="624"/>
      <point x="237" y="646"/>
      <point x="237" y="711" type="curve" smooth="yes"/>
      <point x="237" y="757"/>
      <point x="220" y="800"/>
      <point x="169" y="800" type="curve" smooth="yes"/>
      <point x="126" y="800"/>
      <point x="106" y="770"/>
      <point x="106" y="731" type="curve"/>
      <point x="138" y="731"/>
      <point x="155" y="716"/>
      <point x="155" y="681" type="curve" smooth="yes"/>
      <point x="155" y="627"/>
      <point x="137" y="607"/>
      <point x="137" y="562" type="curve" smooth="yes"/>
      <point x="137" y="485"/>
      <point x="188" y="438"/>
      <point x="276" y="438" type="curve" smooth="yes"/>
      <point x="345" y="438"/>
      <point x="421" y="467"/>
      <point x="465" y="501" type="curve" smooth="yes"/>
      <point x="502" y="530"/>
      <point x="530" y="555"/>
      <point x="530" y="598" type="curve" smooth="yes"/>
      <point x="530" y="647"/>
      <point x="495" y="684"/>
      <point x="440" y="684" type="curve" smooth="yes"/>
      <point x="382" y="684"/>
      <point x="345" y="641"/>
      <point x="345" y="595" type="curve" smooth="yes"/>
      <point x="345" y="556"/>
      <point x="371" y="530"/>
      <point x="399" y="510" type="curve" smooth="yes"/>
      <point x="435" y="485"/>
      <point x="502" y="456"/>
      <point x="502" y="400" type="curve" smooth="yes"/>
      <point x="502" y="91" type="line"/>
      <point x="362" y="207" type="line"/>
      <point x="222" y="91" type="line"/>
      <point x="222" y="165" type="line"/>
      <point x="130" y="165" type="line"/>
    </contour>
    <contour>
      <point x="222" y="146" type="line"/>
      <point x="222" y="355" type="line" smooth="yes"/>
      <point x="222" y="388"/>
      <point x="202" y="408"/>
      <point x="155" y="408" type="curve" smooth="yes"/>
      <point x="83" y="408"/>
      <point x="20" y="361"/>
      <point x="20" y="289" type="curve" smooth="yes"/>
      <point x="20" y="226"/>
      <point x="72" y="188"/>
      <point x="130" y="188" type="curve"/>
      <point x="130" y="146" type="line"/>
    </contour>
    <contour>
      <point x="130" y="255" type="line"/>
      <point x="109" y="255"/>
      <point x="85" y="267"/>
      <point x="85" y="297" type="curve" smooth="yes"/>
      <point x="85" y="327"/>
      <point x="108" y="346"/>
      <point x="130" y="346" type="curve"/>
    </contour>
  </outline>
</glyph>
<glyph name="uni1785" format="2">
  <advance width="653"/>
  <unicode hex="1785"/>
  <note>
uni1785
</note>
  <anchor x="344" y="760" name="abvm"/>
  <anchor x="344" y="0" name="blwm"/>
  <outline>
    <contour>
      <point x="566" y="192" type="line"/>
      <point x="474" y="192" type="line"/>
      <point x="474" y="146" type="line" smooth="yes"/>
      <point x="474" y="108"/>
      <point x="417" y="67"/>
      <point x="344" y="67" type="curve" smooth="yes"/>
      <point x="274" y="67"/>
      <point x="214" y="106"/>
      <point x="214" y="146" type="curve" smooth="yes"/>
      <point x="214" y="415" type="line"/>
      <point x="122" y="415" type="line"/>
      <point x="122" y="146" type="line" smooth="yes"/>
      <point x="122" y="72"/>
      <point x="222" y="0"/>
      <point x="344" y="0" type="curve" smooth="yes"/>
      <point x="464" y="0"/>
      <point x="566" y="70"/>
      <point x="566" y="146" type="curve" smooth="yes"/>
    </contour>
    <contour>
      <point x="566" y="186" type="line"/>
      <point x="566" y="395" type="line" smooth="yes"/>
      <point x="566" y="428"/>
      <point x="546" y="448"/>
      <point x="499" y="448" type="curve" smooth="yes"/>
      <point x="427" y="448"/>
      <point x="364" y="401"/>
      <point x="364" y="329" type="curve" smooth="yes"/>
      <point x="364" y="266"/>
      <point x="416" y="228"/>
      <point x="474" y="228" type="curve"/>
      <point x="474" y="186" type="line"/>
    </contour>
    <contour>
      <point x="474" y="295" type="line"/>
      <point x="453" y="295"/>
      <point x="429" y="307"/>
      <point x="429" y="337" type="curve" smooth="yes"/>
      <point x="429" y="367"/>
      <point x="452" y="386"/>
      <point x="474" y="386" type="curve"/>
    </contour>
    <contour>
      <point x="122" y="401" type="line"/>
      <point x="214" y="401" type="line"/>
      <point x="214" y="471" type="line"/>
      <point x="166" y="523"/>
      <point x="163" y="530"/>
      <point x="163" y="540" type="curve" smooth="yes"/>
      <point x="163" y="550"/>
      <point x="168" y="558"/>
      <point x="178" y="567" type="curve" smooth="yes"/>
      <point x="187" y="575"/>
      <point x="196" y="580"/>
      <point x="207" y="580" type="curve" smooth="yes"/>
      <point x="218" y="580"/>
      <point x="227" y="572"/>
      <point x="265" y="540" type="curve" smooth="yes"/>
      <point x="293" y="517"/>
      <point x="317" y="500"/>
      <point x="339" y="500" type="curve" smooth="yes"/>
      <point x="357" y="500"/>
      <point x="375" y="513"/>
      <point x="404" y="539" type="curve" smooth="yes"/>
      <point x="424" y="558"/>
      <point x="441" y="574"/>
      <point x="460" y="574" type="curve" smooth="yes"/>
      <point x="505" y="574"/>
      <point x="512" y="500"/>
      <point x="565" y="500" type="curve" smooth="yes"/>
      <point x="594" y="500"/>
      <point x="624" y="523"/>
      <point x="635" y="582" type="curve"/>
      <point x="604" y="576"/>
      <point x="580" y="585"/>
      <point x="563" y="604" type="curve" smooth="yes"/>
      <point x="518" y="652" type="line" smooth="yes"/>
      <point x="499" y="672"/>
      <point x="486" y="680"/>
      <point x="475" y="680" type="curve" smooth="yes"/>
      <point x="459" y="680"/>
      <point x="438" y="661"/>
      <point x="406" y="628" type="curve" smooth="yes"/>
      <point x="375" y="597"/>
      <point x="365" y="587"/>
      <point x="355" y="587" type="curve" smooth="yes"/>
      <point x="344" y="587"/>
      <point x="335" y="595"/>
      <point x="302" y="628" type="curve" smooth="yes"/>
      <point x="265" y="664"/>
      <point x="246" y="680"/>
      <point x="230" y="680" type="curve" smooth="yes"/>
      <point x="217" y="680"/>
      <point x="188" y="671"/>
      <point x="127" y="612" type="curve" smooth="yes"/>
      <point x="96" y="583"/>
      <point x="73" y="559"/>
      <point x="73" y="523" type="curve" smooth="yes"/>
      <point x="73" y="493"/>
      <point x="90" y="473"/>
      <point x="122" y="443" type="curve"/>
    </contour>
  </outline>
</glyph>
<glyph name="uni1786" format="2">
  <advance width="649"/>
  <unicode hex="1786"/>
  <note>
uni1786
</note>
  <anchor x="330" y="760" name="abvm"/>
  <anchor x="330" y="0" name="blwm"/>
  <outline>
    <contour>
      <point x="194" y="427" type="line"/>
      <point x="102" y="427" type="line"/>
      <point x="102" y="224" type="line"/>
      <point x="45" y="224"/>
      <point x="12" y="191"/>
      <point x="12" y="140" type="curve" smooth="yes"/>
      <point x="12" y="101"/>
      <point x="32" y="68"/>
      <point x="102" y="0" type="curve"/>
      <point x="194" y="0" type="line"/>
      <point x="194" y="157" type="line"/>
      <point x="230" y="155"/>
      <point x="251" y="146"/>
      <point x="284" y="92" type="curve" smooth="yes"/>
      <point x="311" y="48"/>
      <point x="332" y="0"/>
      <point x="412" y="0" type="curve" smooth="yes"/>
      <point x="497" y="0"/>
      <point x="566" y="55"/>
      <point x="566" y="143" type="curve" smooth="yes"/>
      <point x="566" y="194" type="line"/>
      <point x="474" y="194" type="line"/>
      <point x="474" y="122" type="line" smooth="yes"/>
      <point x="474" y="87"/>
      <point x="456" y="57"/>
      <point x="411" y="57" type="curve" smooth="yes"/>
      <point x="365" y="57"/>
      <point x="363" y="89"/>
      <point x="337" y="137" type="curve" smooth="yes"/>
      <point x="307" y="192"/>
      <point x="267" y="224"/>
      <point x="194" y="224" type="curve"/>
    </contour>
    <contour>
      <point x="102" y="94" type="line"/>
      <point x="85" y="110"/>
      <point x="79" y="120"/>
      <point x="79" y="134" type="curve" smooth="yes"/>
      <point x="79" y="148"/>
      <point x="85" y="156"/>
      <point x="102" y="157" type="curve"/>
    </contour>
    <contour>
      <point x="566" y="176" type="line"/>
      <point x="566" y="385" type="line" smooth="yes"/>
      <point x="566" y="418"/>
      <point x="546" y="438"/>
      <point x="499" y="438" type="curve" smooth="yes"/>
      <point x="427" y="438"/>
      <point x="364" y="391"/>
      <point x="364" y="319" type="curve" smooth="yes"/>
      <point x="364" y="256"/>
      <point x="416" y="218"/>
      <point x="474" y="218" type="curve"/>
      <point x="474" y="176" type="line"/>
    </contour>
    <contour>
      <point x="474" y="285" type="line"/>
      <point x="453" y="285"/>
      <point x="429" y="297"/>
      <point x="429" y="327" type="curve" smooth="yes"/>
      <point x="429" y="357"/>
      <point x="452" y="376"/>
      <point x="474" y="376" type="curve"/>
    </contour>
    <contour>
      <point x="102" y="401" type="line"/>
      <point x="194" y="401" type="line"/>
      <point x="194" y="471" type="line"/>
      <point x="146" y="523"/>
      <point x="143" y="530"/>
      <point x="143" y="540" type="curve" smooth="yes"/>
      <point x="143" y="550"/>
      <point x="148" y="558"/>
      <point x="158" y="567" type="curve" smooth="yes"/>
      <point x="167" y="575"/>
      <point x="176" y="580"/>
      <point x="187" y="580" type="curve" smooth="yes"/>
      <point x="198" y="580"/>
      <point x="207" y="572"/>
      <point x="245" y="540" type="curve" smooth="yes"/>
      <point x="273" y="517"/>
      <point x="297" y="500"/>
      <point x="319" y="500" type="curve" smooth="yes"/>
      <point x="337" y="500"/>
      <point x="355" y="513"/>
      <point x="384" y="539" type="curve" smooth="yes"/>
      <point x="404" y="558"/>
      <point x="421" y="574"/>
      <point x="440" y="574" type="curve" smooth="yes"/>
      <point x="485" y="574"/>
      <point x="492" y="500"/>
      <point x="545" y="500" type="curve" smooth="yes"/>
      <point x="574" y="500"/>
      <point x="604" y="523"/>
      <point x="615" y="582" type="curve"/>
      <point x="584" y="576"/>
      <point x="560" y="585"/>
      <point x="543" y="604" type="curve" smooth="yes"/>
      <point x="498" y="652" type="line" smooth="yes"/>
      <point x="479" y="672"/>
      <point x="466" y="680"/>
      <point x="455" y="680" type="curve" smooth="yes"/>
      <point x="439" y="680"/>
      <point x="418" y="661"/>
      <point x="386" y="628" type="curve" smooth="yes"/>
      <point x="355" y="597"/>
      <point x="345" y="587"/>
      <point x="335" y="587" type="curve" smooth="yes"/>
      <point x="324" y="587"/>
      <point x="315" y="595"/>
      <point x="282" y="628" type="curve" smooth="yes"/>
      <point x="245" y="664"/>
      <point x="226" y="680"/>
      <point x="210" y="680" type="curve" smooth="yes"/>
      <point x="197" y="680"/>
      <point x="168" y="671"/>
      <point x="107" y="612" type="curve" smooth="yes"/>
      <point x="76" y="583"/>
      <point x="53" y="559"/>
      <point x="53" y="523" type="curve" smooth="yes"/>
      <point x="53" y="493"/>
      <point x="70" y="473"/>
      <point x="102" y="443" type="curve"/>
    </contour>
  </outline>
</glyph>
<glyph name="uni1788" format="2">
  <advance width="1350"/>
  <unicode hex="1788"/>
  <note>
uni1788
</note>
  <anchor x="1030" y="760" name="abvm"/>
  <anchor x="1044" y="0" name="blwm"/>
  <outline>
    <contour>
      <point x="100" y="305" type="line"/>
      <point x="192" y="305" type="line"/>
      <point x="192" y="463" type="line"/>
      <point x="126" y="515" type="line"/>
      <point x="198" y="583"/>
      <point x="241" y="615"/>
      <point x="280" y="615" type="curve" smooth="yes"/>
      <point x="307" y="615"/>
      <point x="343" y="600"/>
      <point x="382" y="575" type="curve" smooth="yes"/>
      <point x="452" y="530"/>
      <point x="472" y="488"/>
      <point x="472" y="463" type="curve" smooth="yes"/>
      <point x="472" y="146" type="line" smooth="yes"/>
      <point x="472" y="82"/>
      <point x="555" y="0"/>
      <point x="692" y="0" type="curve" smooth="yes"/>
      <point x="763" y="0"/>
      <point x="808" y="16"/>
      <point x="866" y="62" type="curve"/>
      <point x="910" y="18"/>
      <point x="973" y="0"/>
      <point x="1040" y="0" type="curve" smooth="yes"/>
      <point x="1170" y="0"/>
      <point x="1259" y="82"/>
      <point x="1259" y="146" type="curve" smooth="yes"/>
      <point x="1259" y="389" type="line"/>
      <point x="1167" y="389" type="line"/>
      <point x="1167" y="146" type="line" smooth="yes"/>
      <point x="1167" y="109"/>
      <point x="1108" y="67"/>
      <point x="1040" y="67" type="curve" smooth="yes"/>
      <point x="971" y="67"/>
      <point x="912" y="109"/>
      <point x="912" y="146" type="curve" smooth="yes"/>
      <point x="912" y="389" type="line"/>
      <point x="820" y="389" type="line"/>
      <point x="820" y="146" type="line" smooth="yes"/>
      <point x="820" y="109"/>
      <point x="761" y="67"/>
      <point x="692" y="67" type="curve" smooth="yes"/>
      <point x="623" y="67"/>
      <point x="564" y="109"/>
      <point x="564" y="146" type="curve" smooth="yes"/>
      <point x="564" y="453" type="line" smooth="yes"/>
      <point x="564" y="543"/>
      <point x="544" y="570"/>
      <point x="455" y="623" type="curve" smooth="yes"/>
      <point x="377" y="670"/>
      <point x="331" y="682"/>
      <point x="294" y="682" type="curve" smooth="yes"/>
      <point x="239" y="682"/>
      <point x="195" y="655"/>
      <point x="144" y="615" type="curve" smooth="yes"/>
      <point x="65" y="553"/>
      <point x="46" y="523"/>
      <point x="46" y="504" type="curve" smooth="yes"/>
      <point x="46" y="490"/>
      <point x="56" y="476"/>
      <point x="100" y="438" type="curve"/>
    </contour>
    <contour>
      <point x="912" y="350" type="line"/>
      <point x="912" y="447" type="line"/>
      <point x="807" y="532" type="line"/>
      <point x="850" y="590" type="line"/>
      <point x="885" y="565"/>
      <point x="907" y="557"/>
      <point x="924" y="557" type="curve" smooth="yes"/>
      <point x="963" y="557"/>
      <point x="988" y="596"/>
      <point x="988" y="629" type="curve"/>
      <point x="937" y="625"/>
      <point x="914" y="638"/>
      <point x="850" y="680" type="curve"/>
      <point x="757" y="552"/>
      <point x="735" y="534"/>
      <point x="735" y="514" type="curve" smooth="yes"/>
      <point x="735" y="499"/>
      <point x="747" y="484"/>
      <point x="820" y="424" type="curve"/>
      <point x="820" y="350" type="line"/>
    </contour>
    <contour>
      <point x="100" y="316" type="line"/>
      <point x="100" y="0" type="line"/>
      <point x="192" y="0" type="line"/>
      <point x="290" y="59"/>
      <point x="303" y="115"/>
      <point x="303" y="151" type="curve" smooth="yes"/>
      <point x="303" y="211"/>
      <point x="267" y="250"/>
      <point x="192" y="246" type="curve"/>
      <point x="192" y="316" type="line"/>
    </contour>
    <contour>
      <point x="192" y="181" type="line"/>
      <point x="215" y="181"/>
      <point x="232" y="175"/>
      <point x="232" y="150" type="curve" smooth="yes"/>
      <point x="232" y="127"/>
      <point x="218" y="105"/>
      <point x="192" y="89" type="curve"/>
    </contour>
    <contour>
      <point x="1259" y="350" type="line"/>
      <point x="1259" y="447" type="line"/>
      <point x="1154" y="532" type="line"/>
      <point x="1197" y="590" type="line"/>
      <point x="1232" y="565"/>
      <point x="1254" y="557"/>
      <point x="1271" y="557" type="curve" smooth="yes"/>
      <point x="1310" y="557"/>
      <point x="1335" y="596"/>
      <point x="1335" y="629" type="curve"/>
      <point x="1284" y="625"/>
      <point x="1261" y="638"/>
      <point x="1197" y="680" type="curve"/>
      <point x="1104" y="552"/>
      <point x="1082" y="534"/>
      <point x="1082" y="514" type="curve" smooth="yes"/>
      <point x="1082" y="499"/>
      <point x="1094" y="484"/>
      <point x="1167" y="424" type="curve"/>
      <point x="1167" y="350" type="line"/>
    </contour>
  </outline>
</glyph>
<glyph name="uni1789" format="2">
  <advance width="1007"/>
  <unicode hex="1789"/>
  <note>
uni1789
</note>
  <anchor x="710" y="760" name="abvm"/>
  <anchor x="704" y="-293" name="blwm"/>
  <anchor x="520" y="0" name="blwm_self"/>
  <outline>
    <contour>
      <point x="796" y="-108" type="curve"/>
      <point x="829" y="-108"/>
      <point x="845" y="-123"/>
      <point x="845" y="-154" type="curve" smooth="yes"/>
      <point x="845" y="-204"/>
      <point x="803" y="-228"/>
      <point x="751" y="-228" type="curve" smooth="yes"/>
      <point x="704" y="-228"/>
      <point x="660" y="-209"/>
      <point x="574" y="-146" type="curve" smooth="yes"/>
      <point x="487" y="-83"/>
      <point x="418" y="-49"/>
      <point x="324" y="-49" type="curve" smooth="yes"/>
      <point x="227" y="-49"/>
      <point x="144" y="-86"/>
      <point x="119" y="-165" type="curve"/>
      <point x="139" y="-165" type="line"/>
      <point x="185" y="-128"/>
      <point x="248" y="-106"/>
      <point x="314" y="-106" type="curve" smooth="yes"/>
      <point x="377" y="-106"/>
      <point x="447" y="-126"/>
      <point x="525" y="-182" type="curve" smooth="yes"/>
      <point x="603" y="-240"/>
      <point x="656" y="-293"/>
      <point x="746" y="-293" type="curve" smooth="yes"/>
      <point x="834" y="-293"/>
      <point x="919" y="-244"/>
      <point x="919" y="-134" type="curve" smooth="yes"/>
      <point x="919" y="-82"/>
      <point x="901" y="-49"/>
      <point x="855" y="-49" type="curve" smooth="yes"/>
      <point x="816" y="-49"/>
      <point x="796" y="-73"/>
    </contour>
    <contour>
      <point x="475" y="512" type="curve" smooth="yes"/>
      <point x="475" y="0" type="line"/>
      <point x="567" y="0" type="line"/>
      <point x="567" y="512" type="line" smooth="yes"/>
      <point x="567" y="582"/>
      <point x="629" y="615"/>
      <point x="695" y="615" type="curve" smooth="yes"/>
      <point x="761" y="615"/>
      <point x="823" y="582"/>
      <point x="823" y="512" type="curve" smooth="yes"/>
      <point x="823" y="0" type="line"/>
      <point x="915" y="0" type="line"/>
      <point x="915" y="512" type="line" smooth="yes"/>
      <point x="915" y="628"/>
      <point x="825" y="682"/>
      <point x="695" y="682" type="curve" smooth="yes"/>
      <point x="565" y="682"/>
      <point x="475" y="628"/>
    </contour>
    <contour>
      <point x="103" y="305" type="line"/>
      <point x="195" y="305" type="line"/>
      <point x="195" y="499" type="line"/>
      <point x="166" y="526"/>
      <point x="149" y="547"/>
      <point x="149" y="558" type="curve" smooth="yes"/>
      <point x="149" y="563"/>
      <point x="153" y="570"/>
      <point x="161" y="577" type="curve" smooth="yes"/>
      <point x="168" y="583"/>
      <point x="176" y="588"/>
      <point x="184" y="588" type="curve" smooth="yes"/>
      <point x="213" y="588"/>
      <point x="249" y="518"/>
      <point x="297" y="518" type="curve" smooth="yes"/>
      <point x="346" y="518"/>
      <point x="380" y="591"/>
      <point x="417" y="591" type="curve" smooth="yes"/>
      <point x="442" y="591"/>
      <point x="475" y="557"/>
      <point x="475" y="521" type="curve" smooth="yes"/>
      <point x="475" y="0" type="line"/>
      <point x="567" y="0" type="line"/>
      <point x="567" y="521" type="line" smooth="yes"/>
      <point x="567" y="598"/>
      <point x="492" y="682"/>
      <point x="431" y="682" type="curve" smooth="yes"/>
      <point x="409" y="682"/>
      <point x="393" y="667"/>
      <point x="368" y="644" type="curve" smooth="yes"/>
      <point x="344" y="621"/>
      <point x="324" y="602"/>
      <point x="320" y="602" type="curve" smooth="yes"/>
      <point x="318" y="602"/>
      <point x="300" y="618"/>
      <point x="276" y="639" type="curve" smooth="yes"/>
      <point x="244" y="667"/>
      <point x="222" y="682"/>
      <point x="206" y="682" type="curve" smooth="yes"/>
      <point x="185" y="682"/>
      <point x="148" y="657"/>
      <point x="117" y="629" type="curve" smooth="yes"/>
      <point x="80" y="594"/>
      <point x="54" y="557"/>
      <point x="54" y="542" type="curve" smooth="yes"/>
      <point x="54" y="529"/>
      <point x="70" y="503"/>
      <point x="103" y="469" type="curve"/>
    </contour>
    <contour>
      <point x="103" y="316" type="line"/>
      <point x="103" y="0" type="line"/>
      <point x="195" y="0" type="line"/>
      <point x="293" y="59"/>
      <point x="306" y="115"/>
      <point x="306" y="151" type="curve" smooth="yes"/>
      <point x="306" y="211"/>
      <point x="270" y="250"/>
      <point x="195" y="246" type="curve"/>
      <point x="195" y="316" type="line"/>
    </contour>
    <contour>
      <point x="195" y="181" type="line"/>
      <point x="218" y="181"/>
      <point x="235" y="175"/>
      <point x="235" y="150" type="curve" smooth="yes"/>
      <point x="235" y="127"/>
      <point x="221" y="105"/>
      <point x="195" y="89" type="curve"/>
    </contour>
  </outline>
</glyph>
<glyph name="uni178A" format="2">
  <advance width="656"/>
  <unicode hex="178A"/>
  <note>
uni178A
</note>
  <anchor x="332" y="840" name="abvm"/>
  <anchor x="312" y="770" name="abvm_high"/>
  <anchor x="332" y="0" name="blwm"/>
  <outline>
    <contour>
      <point x="100" y="447" type="line"/>
      <point x="100" y="0" type="line"/>
      <point x="192" y="0" type="line"/>
      <point x="332" y="115" type="line"/>
      <point x="472" y="0" type="line"/>
      <point x="564" y="0" type="line"/>
      <point x="564" y="437" type="line"/>
      <point x="472" y="437" type="line"/>
      <point x="472" y="91" type="line"/>
      <point x="332" y="207" type="line"/>
      <point x="192" y="91" type="line"/>
      <point x="192" y="413" type="line"/>
    </contour>
    <contour>
      <point x="245" y="608" type="curve" smooth="yes"/>
      <point x="245" y="590"/>
      <point x="226" y="567"/>
      <point x="205" y="557" type="curve"/>
      <point x="269" y="524" type="line"/>
      <point x="304" y="560"/>
      <point x="316" y="579"/>
      <point x="316" y="610" type="curve" smooth="yes"/>
      <point x="316" y="664"/>
      <point x="278" y="705"/>
      <point x="210" y="705" type="curve" smooth="yes"/>
      <point x="136" y="705"/>
      <point x="100" y="656"/>
      <point x="100" y="603" type="curve" smooth="yes"/>
      <point x="100" y="515"/>
      <point x="198" y="466"/>
      <point x="318" y="466" type="curve" smooth="yes"/>
      <point x="490" y="466"/>
      <point x="564" y="559"/>
      <point x="564" y="654" type="curve" smooth="yes"/>
      <point x="564" y="722"/>
      <point x="529" y="783"/>
      <point x="470" y="783" type="curve" smooth="yes"/>
      <point x="427" y="783"/>
      <point x="389" y="752"/>
      <point x="406" y="694" type="curve"/>
      <point x="450" y="701"/>
      <point x="472" y="669"/>
      <point x="472" y="633" type="curve" smooth="yes"/>
      <point x="472" y="573"/>
      <point x="415" y="532"/>
      <point x="324" y="532" type="curve" smooth="yes"/>
      <point x="238" y="532"/>
      <point x="171" y="566"/>
      <point x="171" y="606" type="curve" smooth="yes"/>
      <point x="171" y="626"/>
      <point x="188" y="639"/>
      <point x="209" y="639" type="curve" smooth="yes"/>
      <point x="232" y="639"/>
      <point x="245" y="623"/>
    </contour>
  </outline>
</glyph>
<glyph name="uni178B" format="2">
  <advance width="692"/>
  <unicode hex="178B"/>
  <note>
uni178B
</note>
  <anchor x="357" y="850" name="abvm"/>
  <anchor x="357" y="0" name="blwm"/>
  <outline>
    <contour>
      <point x="579" y="379" type="line"/>
      <point x="487" y="379" type="line"/>
      <point x="487" y="146" type="line" smooth="yes"/>
      <point x="487" y="108"/>
      <point x="430" y="67"/>
      <point x="357" y="67" type="curve" smooth="yes"/>
      <point x="287" y="67"/>
      <point x="227" y="106"/>
      <point x="227" y="146" type="curve" smooth="yes"/>
      <point x="227" y="379" type="line"/>
      <point x="135" y="379" type="line"/>
      <point x="135" y="146" type="line" smooth="yes"/>
      <point x="135" y="72"/>
      <point x="235" y="0"/>
      <point x="357" y="0" type="curve" smooth="yes"/>
      <point x="477" y="0"/>
      <point x="579" y="70"/>
      <point x="579" y="146" type="curve" smooth="yes"/>
    </contour>
    <contour>
      <point x="227" y="342" type="line"/>
      <point x="227" y="631" type="line" smooth="yes"/>
      <point x="227" y="663"/>
      <point x="199" y="679"/>
      <point x="162" y="679" type="curve" smooth="yes"/>
      <point x="84" y="679"/>
      <point x="18" y="608"/>
      <point x="18" y="532" type="curve" smooth="yes"/>
      <point x="18" y="491"/>
      <point x="38" y="420"/>
      <point x="135" y="420" type="curve"/>
      <point x="135" y="342" type="line"/>
    </contour>
    <contour>
      <point x="135" y="488" type="line"/>
      <point x="96" y="488"/>
      <point x="85" y="515"/>
      <point x="85" y="538" type="curve" smooth="yes"/>
      <point x="85" y="563"/>
      <point x="98" y="591"/>
      <point x="135" y="602" type="curve"/>
    </contour>
    <contour>
      <point x="487" y="326" type="line"/>
      <point x="579" y="326" type="line"/>
      <point x="579" y="447" type="line"/>
      <point x="476" y="530" type="line"/>
      <point x="520" y="589" type="line"/>
      <point x="532" y="579"/>
      <point x="550" y="570"/>
      <point x="573" y="570" type="curve" smooth="yes"/>
      <point x="631" y="570"/>
      <point x="672" y="625"/>
      <point x="672" y="681" type="curve" smooth="yes"/>
      <point x="672" y="740"/>
      <point x="629" y="779"/>
      <point x="597" y="779" type="curve" smooth="yes"/>
      <point x="577" y="779"/>
      <point x="548" y="763"/>
      <point x="548" y="722" type="curve"/>
      <point x="585" y="722"/>
      <point x="613" y="700"/>
      <point x="613" y="676" type="curve" smooth="yes"/>
      <point x="613" y="655"/>
      <point x="593" y="645"/>
      <point x="575" y="645" type="curve" smooth="yes"/>
      <point x="557" y="645"/>
      <point x="543" y="655"/>
      <point x="517" y="679" type="curve"/>
      <point x="424" y="551"/>
      <point x="402" y="531"/>
      <point x="402" y="511" type="curve" smooth="yes"/>
      <point x="402" y="497"/>
      <point x="414" y="484"/>
      <point x="487" y="424" type="curve"/>
    </contour>
  </outline>
</glyph>
<glyph name="uni178C" format="2">
  <advance width="674"/>
  <unicode hex="178C"/>
  <note>
uni178C
</note>
  <anchor x="334" y="760" name="abvm"/>
  <anchor x="345" y="-49" name="blwm"/>
  <outline>
    <contour>
      <point x="110" y="514" type="line"/>
      <point x="202" y="514" type="line"/>
      <point x="202" y="536" type="line" smooth="yes"/>
      <point x="202" y="565"/>
      <point x="232" y="599"/>
      <point x="259" y="599" type="curve" smooth="yes"/>
      <point x="280" y="599"/>
      <point x="308" y="578"/>
      <point x="342" y="535" type="curve"/>
      <point x="376" y="578"/>
      <point x="405" y="599"/>
      <point x="426" y="599" type="curve" smooth="yes"/>
      <point x="450" y="599"/>
      <point x="482" y="568"/>
      <point x="482" y="536" type="curve" smooth="yes"/>
      <point x="482" y="463" type="line" smooth="yes"/>
      <point x="482" y="428"/>
      <point x="436" y="386"/>
      <point x="342" y="338" type="curve" smooth="yes"/>
      <point x="110" y="219" type="line"/>
      <point x="110" y="122" type="line" smooth="yes"/>
      <point x="110" y="36"/>
      <point x="162" y="0"/>
      <point x="226" y="0" type="curve" smooth="yes"/>
      <point x="270" y="0"/>
      <point x="309" y="17"/>
      <point x="351" y="50" type="curve" smooth="yes"/>
      <point x="409" y="97"/>
      <point x="450" y="130"/>
      <point x="482" y="130" type="curve"/>
      <point x="482" y="67" type="line" smooth="yes"/>
      <point x="482" y="49"/>
      <point x="476" y="32"/>
      <point x="453" y="16" type="curve"/>
      <point x="453" y="-7"/>
      <point x="469" y="-29"/>
      <point x="510" y="-29" type="curve" smooth="yes"/>
      <point x="553" y="-29"/>
      <point x="574" y="-4"/>
      <point x="574" y="44" type="curve" smooth="yes"/>
      <point x="574" y="279" type="line"/>
      <point x="482" y="243" type="line"/>
      <point x="482" y="195" type="line"/>
      <point x="423" y="195"/>
      <point x="372" y="152"/>
      <point x="299" y="91" type="curve" smooth="yes"/>
      <point x="282" y="77"/>
      <point x="264" y="70"/>
      <point x="246" y="70" type="curve" smooth="yes"/>
      <point x="218" y="70"/>
      <point x="202" y="87"/>
      <point x="202" y="122" type="curve" smooth="yes"/>
      <point x="202" y="191" type="line"/>
      <point x="388" y="287" type="line" smooth="yes"/>
      <point x="512" y="351"/>
      <point x="574" y="407"/>
      <point x="574" y="463" type="curve" smooth="yes"/>
      <point x="574" y="536" type="line" smooth="yes"/>
      <point x="574" y="616"/>
      <point x="471" y="682"/>
      <point x="435" y="682" type="curve" smooth="yes"/>
      <point x="414" y="682"/>
      <point x="384" y="660"/>
      <point x="342" y="617" type="curve"/>
      <point x="301" y="660"/>
      <point x="271" y="682"/>
      <point x="250" y="682" type="curve" smooth="yes"/>
      <point x="213" y="682"/>
      <point x="110" y="616"/>
      <point x="110" y="536" type="curve" smooth="yes"/>
    </contour>
    <contour>
      <point x="202" y="526" type="line"/>
      <point x="110" y="526" type="line"/>
      <point x="110" y="407" type="line" smooth="yes"/>
      <point x="110" y="374"/>
      <point x="138" y="355"/>
      <point x="188" y="355" type="curve" smooth="yes"/>
      <point x="247" y="355"/>
      <point x="284" y="382"/>
      <point x="284" y="436" type="curve" smooth="yes"/>
      <point x="284" y="487"/>
      <point x="250" y="509"/>
      <point x="202" y="509" type="curve"/>
    </contour>
    <contour>
      <point x="202" y="470" type="line"/>
      <point x="222" y="470"/>
      <point x="235" y="459"/>
      <point x="235" y="435" type="curve" smooth="yes"/>
      <point x="235" y="411"/>
      <point x="222" y="396"/>
      <point x="202" y="396" type="curve"/>
    </contour>
  </outline>
</glyph>
<glyph name="uni178D" format="2">
  <advance width="1001"/>
  <unicode hex="178D"/>
  <note>
uni178D
</note>
  <anchor x="676" y="760" name="abvm"/>
  <anchor x="653" y="0" name="blwm"/>
  <outline>
    <contour>
      <point x="103" y="305" type="line"/>
      <point x="195" y="305" type="line"/>
      <point x="195" y="499" type="line"/>
      <point x="166" y="526"/>
      <point x="149" y="547"/>
      <point x="149" y="558" type="curve" smooth="yes"/>
      <point x="149" y="563"/>
      <point x="153" y="570"/>
      <point x="161" y="577" type="curve" smooth="yes"/>
      <point x="168" y="583"/>
      <point x="176" y="588"/>
      <point x="184" y="588" type="curve" smooth="yes"/>
      <point x="213" y="588"/>
      <point x="249" y="518"/>
      <point x="297" y="518" type="curve" smooth="yes"/>
      <point x="346" y="518"/>
      <point x="380" y="591"/>
      <point x="417" y="591" type="curve" smooth="yes"/>
      <point x="442" y="591"/>
      <point x="475" y="557"/>
      <point x="475" y="521" type="curve" smooth="yes"/>
      <point x="475" y="246" type="line"/>
      <point x="413" y="243"/>
      <point x="383" y="197"/>
      <point x="383" y="149" type="curve" smooth="yes"/>
      <point x="383" y="111"/>
      <point x="401" y="67"/>
      <point x="465" y="0" type="curve"/>
      <point x="567" y="0" type="line"/>
      <point x="567" y="182" type="line"/>
      <point x="592" y="172"/>
      <point x="611" y="154"/>
      <point x="642" y="105" type="curve" smooth="yes"/>
      <point x="676" y="51"/>
      <point x="702" y="0"/>
      <point x="782" y="0" type="curve" smooth="yes"/>
      <point x="864" y="0"/>
      <point x="915" y="57"/>
      <point x="915" y="122" type="curve" smooth="yes"/>
      <point x="915" y="379" type="line"/>
      <point x="823" y="379" type="line"/>
      <point x="823" y="130" type="line" smooth="yes"/>
      <point x="823" y="87"/>
      <point x="809" y="65"/>
      <point x="776" y="65" type="curve" smooth="yes"/>
      <point x="736" y="65"/>
      <point x="727" y="96"/>
      <point x="702" y="142" type="curve" smooth="yes"/>
      <point x="669" y="203"/>
      <point x="632" y="242"/>
      <point x="567" y="246" type="curve"/>
      <point x="567" y="521" type="line" smooth="yes"/>
      <point x="567" y="561"/>
      <point x="547" y="603"/>
      <point x="518" y="634" type="curve" smooth="yes"/>
      <point x="491" y="662"/>
      <point x="460" y="682"/>
      <point x="431" y="682" type="curve" smooth="yes"/>
      <point x="409" y="682"/>
      <point x="393" y="668"/>
      <point x="368" y="644" type="curve" smooth="yes"/>
      <point x="344" y="621"/>
      <point x="324" y="602"/>
      <point x="320" y="602" type="curve" smooth="yes"/>
      <point x="318" y="602"/>
      <point x="300" y="618"/>
      <point x="276" y="639" type="curve" smooth="yes"/>
      <point x="244" y="667"/>
      <point x="222" y="682"/>
      <point x="206" y="682" type="curve" smooth="yes"/>
      <point x="185" y="682"/>
      <point x="148" y="657"/>
      <point x="117" y="629" type="curve" smooth="yes"/>
      <point x="79" y="595"/>
      <point x="54" y="557"/>
      <point x="54" y="542" type="curve" smooth="yes"/>
      <point x="54" y="529"/>
      <point x="70" y="503"/>
      <point x="103" y="469" type="curve"/>
    </contour>
    <contour>
      <point x="475" y="89" type="line"/>
      <point x="455" y="105"/>
      <point x="445" y="129"/>
      <point x="445" y="147" type="curve" smooth="yes"/>
      <point x="445" y="167"/>
      <point x="458" y="182"/>
      <point x="475" y="182" type="curve"/>
    </contour>
    <contour>
      <point x="103" y="316" type="line"/>
      <point x="103" y="0" type="line"/>
      <point x="195" y="0" type="line"/>
      <point x="293" y="59"/>
      <point x="306" y="115"/>
      <point x="306" y="151" type="curve" smooth="yes"/>
      <point x="306" y="211"/>
      <point x="270" y="250"/>
      <point x="195" y="246" type="curve"/>
      <point x="195" y="316" type="line"/>
    </contour>
    <contour>
      <point x="195" y="181" type="line"/>
      <point x="218" y="181"/>
      <point x="235" y="175"/>
      <point x="235" y="150" type="curve" smooth="yes"/>
      <point x="235" y="127"/>
      <point x="221" y="105"/>
      <point x="195" y="89" type="curve"/>
    </contour>
    <contour>
      <point x="915" y="350" type="line"/>
      <point x="915" y="447" type="line"/>
      <point x="810" y="532" type="line"/>
      <point x="853" y="590" type="line"/>
      <point x="888" y="565"/>
      <point x="910" y="557"/>
      <point x="927" y="557" type="curve" smooth="yes"/>
      <point x="966" y="557"/>
      <point x="991" y="596"/>
      <point x="991" y="629" type="curve"/>
      <point x="940" y="625"/>
      <point x="917" y="638"/>
      <point x="853" y="680" type="curve"/>
      <point x="760" y="552"/>
      <point x="738" y="534"/>
      <point x="738" y="514" type="curve" smooth="yes"/>
      <point x="738" y="499"/>
      <point x="750" y="484"/>
      <point x="823" y="424" type="curve"/>
      <point x="823" y="350" type="line"/>
    </contour>
  </outline>
</glyph>
<glyph name="uni178E" format="2">
  <advance width="1327"/>
  <unicode hex="178E"/>
  <note>
uni178E
</note>
  <anchor x="669" y="760" name="abvm"/>
  <anchor x="669" y="0" name="blwm"/>
  <outline>
    <contour>
      <point x="102" y="306" type="line"/>
      <point x="194" y="306" type="line"/>
      <point x="194" y="463" type="line"/>
      <point x="128" y="515" type="line"/>
      <point x="205" y="587"/>
      <point x="247" y="615"/>
      <point x="289" y="615" type="curve" smooth="yes"/>
      <point x="362" y="615"/>
      <point x="450" y="530"/>
      <point x="450" y="464" type="curve" smooth="yes"/>
      <point x="450" y="0" type="line"/>
      <point x="542" y="0" type="line"/>
      <point x="669" y="105" type="line"/>
      <point x="797" y="0" type="line"/>
      <point x="889" y="0" type="line"/>
      <point x="889" y="463" type="line"/>
      <point x="823" y="515" type="line"/>
      <point x="900" y="587"/>
      <point x="941" y="615"/>
      <point x="983" y="615" type="curve" smooth="yes"/>
      <point x="1056" y="615"/>
      <point x="1145" y="530"/>
      <point x="1145" y="464" type="curve" smooth="yes"/>
      <point x="1145" y="0" type="line"/>
      <point x="1237" y="0" type="line"/>
      <point x="1237" y="463" type="line" smooth="yes"/>
      <point x="1237" y="524"/>
      <point x="1210" y="571"/>
      <point x="1144" y="622" type="curve" smooth="yes"/>
      <point x="1081" y="670"/>
      <point x="1032" y="682"/>
      <point x="989" y="682" type="curve" smooth="yes"/>
      <point x="940" y="682"/>
      <point x="904" y="667"/>
      <point x="843" y="614" type="curve" smooth="yes"/>
      <point x="764" y="545"/>
      <point x="743" y="524"/>
      <point x="743" y="505" type="curve" smooth="yes"/>
      <point x="743" y="491"/>
      <point x="753" y="476"/>
      <point x="797" y="438" type="curve"/>
      <point x="797" y="91" type="line"/>
      <point x="669" y="196" type="line"/>
      <point x="542" y="91" type="line"/>
      <point x="542" y="463" type="line" smooth="yes"/>
      <point x="542" y="524"/>
      <point x="515" y="571"/>
      <point x="449" y="622" type="curve" smooth="yes"/>
      <point x="386" y="670"/>
      <point x="341" y="682"/>
      <point x="297" y="682" type="curve" smooth="yes"/>
      <point x="249" y="682"/>
      <point x="209" y="667"/>
      <point x="148" y="614" type="curve" smooth="yes"/>
      <point x="69" y="545"/>
      <point x="48" y="523"/>
      <point x="48" y="504" type="curve" smooth="yes"/>
      <point x="48" y="490"/>
      <point x="58" y="476"/>
      <point x="102" y="438" type="curve"/>
    </contour>
    <contour>
      <point x="102" y="316" type="line"/>
      <point x="102" y="0" type="line"/>
      <point x="194" y="0" type="line"/>
      <point x="292" y="59"/>
      <point x="305" y="115"/>
      <point x="305" y="151" type="curve" smooth="yes"/>
      <point x="305" y="211"/>
      <point x="269" y="250"/>
      <point x="194" y="246" type="curve"/>
      <point x="194" y="316" type="line"/>
    </contour>
    <contour>
      <point x="194" y="181" type="line"/>
      <point x="217" y="181"/>
      <point x="234" y="175"/>
      <point x="234" y="150" type="curve" smooth="yes"/>
      <point x="234" y="127"/>
      <point x="220" y="105"/>
      <point x="194" y="89" type="curve"/>
    </contour>
  </outline>
</glyph>
<glyph name="uni178F" format="2">
  <advance width="633"/>
  <unicode hex="178F"/>
  <note>
uni178F
</note>
  <anchor x="318" y="760" name="abvm"/>
  <anchor x="318" y="728" name="abvm_high"/>
  <anchor x="318" y="0" name="blwm"/>
  <outline>
    <contour>
      <point x="98" y="269" type="line"/>
      <point x="190" y="269" type="line"/>
      <point x="190" y="316" type="line" smooth="yes"/>
      <point x="190" y="355"/>
      <point x="246" y="392"/>
      <point x="321" y="392" type="curve" smooth="yes"/>
      <point x="392" y="392"/>
      <point x="450" y="356"/>
      <point x="450" y="316" type="curve" smooth="yes"/>
      <point x="450" y="0" type="line"/>
      <point x="542" y="0" type="line"/>
      <point x="542" y="316" type="line" smooth="yes"/>
      <point x="542" y="390"/>
      <point x="444" y="459"/>
      <point x="320" y="459" type="curve" smooth="yes"/>
      <point x="199" y="459"/>
      <point x="98" y="392"/>
      <point x="98" y="316" type="curve" smooth="yes"/>
    </contour>
    <contour>
      <point x="98" y="316" type="line"/>
      <point x="98" y="0" type="line"/>
      <point x="190" y="0" type="line"/>
      <point x="288" y="59"/>
      <point x="301" y="115"/>
      <point x="301" y="151" type="curve" smooth="yes"/>
      <point x="301" y="211"/>
      <point x="265" y="250"/>
      <point x="190" y="246" type="curve"/>
      <point x="190" y="316" type="line"/>
    </contour>
    <contour>
      <point x="190" y="181" type="line"/>
      <point x="213" y="181"/>
      <point x="230" y="175"/>
      <point x="230" y="150" type="curve" smooth="yes"/>
      <point x="230" y="127"/>
      <point x="216" y="105"/>
      <point x="190" y="89" type="curve"/>
    </contour>
    <contour>
      <point x="175" y="473" type="line"/>
      <point x="141" y="498"/>
      <point x="126" y="515"/>
      <point x="126" y="536" type="curve" smooth="yes"/>
      <point x="126" y="552"/>
      <point x="134" y="564"/>
      <point x="143" y="573" type="curve" smooth="yes"/>
      <point x="152" y="583"/>
      <point x="162" y="589"/>
      <point x="173" y="589" type="curve" smooth="yes"/>
      <point x="187" y="589"/>
      <point x="200" y="580"/>
      <point x="230" y="557" type="curve" smooth="yes"/>
      <point x="261" y="533"/>
      <point x="279" y="519"/>
      <point x="299" y="519" type="curve" smooth="yes"/>
      <point x="320" y="519"/>
      <point x="343" y="531"/>
      <point x="368" y="552" type="curve" smooth="yes"/>
      <point x="388" y="569"/>
      <point x="404" y="588"/>
      <point x="422" y="588" type="curve" smooth="yes"/>
      <point x="456" y="588"/>
      <point x="477" y="519"/>
      <point x="529" y="519" type="curve" smooth="yes"/>
      <point x="551" y="519"/>
      <point x="578" y="531"/>
      <point x="591" y="585" type="curve"/>
      <point x="559" y="583"/>
      <point x="539" y="590"/>
      <point x="521" y="608" type="curve" smooth="yes"/>
      <point x="481" y="648" type="line" smooth="yes"/>
      <point x="454" y="675"/>
      <point x="440" y="683"/>
      <point x="431" y="683" type="curve" smooth="yes"/>
      <point x="417" y="683"/>
      <point x="396" y="664"/>
      <point x="366" y="636" type="curve" smooth="yes"/>
      <point x="340" y="611"/>
      <point x="323" y="596"/>
      <point x="310" y="596" type="curve" smooth="yes"/>
      <point x="297" y="596"/>
      <point x="279" y="611"/>
      <point x="258" y="631" type="curve" smooth="yes"/>
      <point x="221" y="666"/>
      <point x="201" y="685"/>
      <point x="186" y="685" type="curve" smooth="yes"/>
      <point x="170" y="685"/>
      <point x="146" y="666"/>
      <point x="119" y="643" type="curve" smooth="yes"/>
      <point x="60" y="592"/>
      <point x="43" y="565"/>
      <point x="43" y="533" type="curve" smooth="yes"/>
      <point x="43" y="493"/>
      <point x="70" y="461"/>
      <point x="102" y="430" type="curve"/>
    </contour>
  </outline>
</glyph>
<glyph name="uni1790" format="2">
  <advance width="656"/>
  <unicode hex="1790"/>
  <note>
uni1790
</note>
  <anchor x="309" y="860" name="abvm"/>
  <anchor x="310" y="840" name="abvm_high"/>
  <anchor x="333" y="0" name="blwm"/>
  <outline>
    <contour>
      <point x="193" y="410" type="line"/>
      <point x="101" y="410" type="line"/>
      <point x="101" y="146" type="line" smooth="yes"/>
      <point x="101" y="70"/>
      <point x="207" y="0"/>
      <point x="333" y="0" type="curve" smooth="yes"/>
      <point x="459" y="0"/>
      <point x="565" y="70"/>
      <point x="565" y="146" type="curve" smooth="yes"/>
      <point x="565" y="204" type="line"/>
      <point x="473" y="204" type="line"/>
      <point x="473" y="146" type="line" smooth="yes"/>
      <point x="473" y="104"/>
      <point x="411" y="67"/>
      <point x="333" y="67" type="curve" smooth="yes"/>
      <point x="255" y="67"/>
      <point x="193" y="104"/>
      <point x="193" y="146" type="curve" smooth="yes"/>
    </contour>
    <contour>
      <point x="565" y="176" type="line"/>
      <point x="565" y="385" type="line" smooth="yes"/>
      <point x="565" y="418"/>
      <point x="545" y="438"/>
      <point x="498" y="438" type="curve" smooth="yes"/>
      <point x="426" y="438"/>
      <point x="363" y="391"/>
      <point x="363" y="319" type="curve" smooth="yes"/>
      <point x="363" y="256"/>
      <point x="415" y="218"/>
      <point x="473" y="218" type="curve"/>
      <point x="473" y="176" type="line"/>
    </contour>
    <contour>
      <point x="473" y="285" type="line"/>
      <point x="452" y="285"/>
      <point x="428" y="297"/>
      <point x="428" y="327" type="curve" smooth="yes"/>
      <point x="428" y="357"/>
      <point x="451" y="376"/>
      <point x="473" y="376" type="curve"/>
    </contour>
    <contour>
      <point x="193" y="374" type="line"/>
      <point x="193" y="471" type="line"/>
      <point x="151" y="518"/>
      <point x="140" y="530"/>
      <point x="140" y="539" type="curve" smooth="yes"/>
      <point x="140" y="548"/>
      <point x="152" y="563"/>
      <point x="163" y="574" type="curve" smooth="yes"/>
      <point x="174" y="585"/>
      <point x="187" y="595"/>
      <point x="198" y="595" type="curve" smooth="yes"/>
      <point x="207" y="595"/>
      <point x="225" y="583"/>
      <point x="265" y="556" type="curve" smooth="yes"/>
      <point x="311" y="525"/>
      <point x="356" y="499"/>
      <point x="414" y="499" type="curve" smooth="yes"/>
      <point x="508" y="499"/>
      <point x="567" y="566"/>
      <point x="567" y="646" type="curve" smooth="yes"/>
      <point x="567" y="735"/>
      <point x="487" y="780"/>
      <point x="433" y="780" type="curve" smooth="yes"/>
      <point x="390" y="780"/>
      <point x="378" y="749"/>
      <point x="379" y="704" type="curve"/>
      <point x="436" y="715"/>
      <point x="500" y="687"/>
      <point x="500" y="633" type="curve" smooth="yes"/>
      <point x="500" y="594"/>
      <point x="467" y="568"/>
      <point x="422" y="568" type="curve" smooth="yes"/>
      <point x="383" y="568"/>
      <point x="347" y="588"/>
      <point x="296" y="624" type="curve" smooth="yes"/>
      <point x="245" y="660"/>
      <point x="224" y="682"/>
      <point x="208" y="682" type="curve" smooth="yes"/>
      <point x="188" y="682"/>
      <point x="147" y="646"/>
      <point x="110" y="610" type="curve" smooth="yes"/>
      <point x="71" y="573"/>
      <point x="52" y="551"/>
      <point x="52" y="523" type="curve" smooth="yes"/>
      <point x="52" y="497"/>
      <point x="69" y="473"/>
      <point x="101" y="443" type="curve"/>
      <point x="101" y="374" type="line"/>
    </contour>
  </outline>
</glyph>
<glyph name="uni1791" format="2">
  <advance width="587"/>
  <unicode hex="1791"/>
  <note>
uni1791
</note>
  <anchor x="276" y="760" name="abvm"/>
  <anchor x="269" y="0" name="blwm"/>
  <outline>
    <contour>
      <point x="119" y="180" type="line"/>
      <point x="119" y="138" type="line" smooth="yes"/>
      <point x="119" y="42"/>
      <point x="178" y="0"/>
      <point x="265" y="0" type="curve" smooth="yes"/>
      <point x="366" y="0"/>
      <point x="415" y="49"/>
      <point x="415" y="147" type="curve" smooth="yes"/>
      <point x="415" y="221" type="line"/>
      <point x="487" y="229"/>
      <point x="517" y="263"/>
      <point x="517" y="306" type="curve" smooth="yes"/>
      <point x="517" y="345"/>
      <point x="492" y="366"/>
      <point x="444" y="366" type="curve" smooth="yes"/>
      <point x="371" y="366"/>
      <point x="335" y="319"/>
      <point x="323" y="288" type="curve"/>
      <point x="282" y="288" type="line" smooth="yes"/>
      <point x="198" y="288"/>
      <point x="142" y="339"/>
      <point x="142" y="421" type="curve" smooth="yes"/>
      <point x="142" y="536" type="line" smooth="yes"/>
      <point x="142" y="576"/>
      <point x="197" y="615"/>
      <point x="285" y="615" type="curve" smooth="yes"/>
      <point x="360" y="615"/>
      <point x="422" y="586"/>
      <point x="422" y="546" type="curve"/>
      <point x="378" y="546"/>
      <point x="345" y="529"/>
      <point x="345" y="479" type="curve" smooth="yes"/>
      <point x="345" y="438"/>
      <point x="368" y="413"/>
      <point x="429" y="413" type="curve" smooth="yes"/>
      <point x="484" y="413"/>
      <point x="514" y="430"/>
      <point x="514" y="485" type="curve" smooth="yes"/>
      <point x="514" y="533" type="line" smooth="yes"/>
      <point x="514" y="614"/>
      <point x="424" y="682"/>
      <point x="282" y="682" type="curve" smooth="yes"/>
      <point x="154" y="682"/>
      <point x="50" y="614"/>
      <point x="50" y="536" type="curve" smooth="yes"/>
      <point x="50" y="421" type="line" smooth="yes"/>
      <point x="50" y="306"/>
      <point x="140" y="221"/>
      <point x="282" y="221" type="curve" smooth="yes"/>
      <point x="323" y="221" type="line"/>
      <point x="323" y="145" type="line" smooth="yes"/>
      <point x="323" y="95"/>
      <point x="299" y="67"/>
      <point x="265" y="67" type="curve" smooth="yes"/>
      <point x="231" y="67"/>
      <point x="206" y="95"/>
      <point x="206" y="145" type="curve" smooth="yes"/>
      <point x="206" y="180" type="line"/>
    </contour>
    <contour>
      <point x="451" y="319" type="curve" smooth="yes"/>
      <point x="459" y="319"/>
      <point x="463" y="315"/>
      <point x="463" y="310" type="curve" smooth="yes"/>
      <point x="463" y="300"/>
      <point x="448" y="288"/>
      <point x="415" y="288" type="curve"/>
      <point x="422" y="305"/>
      <point x="435" y="319"/>
    </contour>
    <contour>
      <point x="422" y="451" type="line"/>
      <point x="402" y="451"/>
      <point x="394" y="465"/>
      <point x="394" y="481" type="curve" smooth="yes"/>
      <point x="394" y="497"/>
      <point x="402" y="510"/>
      <point x="422" y="510" type="curve"/>
    </contour>
  </outline>
</glyph>
<glyph name="uni1792" format="2">
  <advance width="658"/>
  <unicode hex="1792"/>
  <note>
uni1792
</note>
  <anchor x="335" y="760" name="abvm"/>
  <anchor x="335" y="0" name="blwm"/>
  <outline>
    <contour>
      <point x="103" y="401" type="line"/>
      <point x="195" y="401" type="line"/>
      <point x="195" y="471" type="line"/>
      <point x="147" y="523"/>
      <point x="144" y="530"/>
      <point x="144" y="540" type="curve" smooth="yes"/>
      <point x="144" y="550"/>
      <point x="149" y="558"/>
      <point x="159" y="567" type="curve" smooth="yes"/>
      <point x="168" y="575"/>
      <point x="177" y="580"/>
      <point x="188" y="580" type="curve" smooth="yes"/>
      <point x="199" y="580"/>
      <point x="208" y="572"/>
      <point x="246" y="540" type="curve" smooth="yes"/>
      <point x="274" y="517"/>
      <point x="298" y="500"/>
      <point x="320" y="500" type="curve" smooth="yes"/>
      <point x="338" y="500"/>
      <point x="356" y="513"/>
      <point x="385" y="539" type="curve" smooth="yes"/>
      <point x="405" y="558"/>
      <point x="422" y="574"/>
      <point x="441" y="574" type="curve" smooth="yes"/>
      <point x="486" y="574"/>
      <point x="493" y="500"/>
      <point x="546" y="500" type="curve" smooth="yes"/>
      <point x="575" y="500"/>
      <point x="605" y="523"/>
      <point x="616" y="582" type="curve"/>
      <point x="585" y="576"/>
      <point x="561" y="585"/>
      <point x="544" y="604" type="curve" smooth="yes"/>
      <point x="499" y="652" type="line" smooth="yes"/>
      <point x="480" y="672"/>
      <point x="467" y="680"/>
      <point x="456" y="680" type="curve" smooth="yes"/>
      <point x="440" y="680"/>
      <point x="419" y="661"/>
      <point x="387" y="628" type="curve" smooth="yes"/>
      <point x="356" y="597"/>
      <point x="346" y="587"/>
      <point x="336" y="587" type="curve" smooth="yes"/>
      <point x="325" y="587"/>
      <point x="316" y="595"/>
      <point x="283" y="628" type="curve" smooth="yes"/>
      <point x="246" y="664"/>
      <point x="227" y="680"/>
      <point x="211" y="680" type="curve" smooth="yes"/>
      <point x="198" y="680"/>
      <point x="169" y="671"/>
      <point x="108" y="612" type="curve" smooth="yes"/>
      <point x="77" y="583"/>
      <point x="54" y="559"/>
      <point x="54" y="523" type="curve" smooth="yes"/>
      <point x="54" y="493"/>
      <point x="71" y="473"/>
      <point x="103" y="443" type="curve"/>
    </contour>
    <contour>
      <point x="195" y="425" type="line"/>
      <point x="103" y="425" type="line"/>
      <point x="103" y="0" type="line"/>
      <point x="195" y="0" type="line"/>
      <point x="335" y="115" type="line"/>
      <point x="475" y="0" type="line"/>
      <point x="567" y="0" type="line"/>
      <point x="567" y="196" type="line"/>
      <point x="475" y="196" type="line"/>
      <point x="475" y="91" type="line"/>
      <point x="335" y="207" type="line"/>
      <point x="195" y="91" type="line"/>
    </contour>
    <contour>
      <point x="567" y="186" type="line"/>
      <point x="567" y="395" type="line" smooth="yes"/>
      <point x="567" y="428"/>
      <point x="547" y="448"/>
      <point x="500" y="448" type="curve" smooth="yes"/>
      <point x="428" y="448"/>
      <point x="365" y="401"/>
      <point x="365" y="329" type="curve" smooth="yes"/>
      <point x="365" y="266"/>
      <point x="417" y="228"/>
      <point x="475" y="228" type="curve"/>
      <point x="475" y="186" type="line"/>
    </contour>
    <contour>
      <point x="475" y="295" type="line"/>
      <point x="454" y="295"/>
      <point x="430" y="307"/>
      <point x="430" y="337" type="curve" smooth="yes"/>
      <point x="430" y="367"/>
      <point x="453" y="386"/>
      <point x="475" y="386" type="curve"/>
    </contour>
  </outline>
</glyph>
<glyph name="uni1793" format="2">
  <advance width="652"/>
  <unicode hex="1793"/>
  <note>
uni1793
</note>
  <anchor x="330" y="760" name="abvm"/>
  <anchor x="330" y="0" name="blwm"/>
  <outline>
    <contour>
      <point x="470" y="525" type="line"/>
      <point x="562" y="525" type="line"/>
      <point x="562" y="536" type="line" smooth="yes"/>
      <point x="562" y="612"/>
      <point x="470" y="682"/>
      <point x="330" y="682" type="curve" smooth="yes"/>
      <point x="192" y="682"/>
      <point x="98" y="614"/>
      <point x="98" y="536" type="curve" smooth="yes"/>
      <point x="98" y="463" type="line" smooth="yes"/>
      <point x="98" y="390"/>
      <point x="163" y="330"/>
      <point x="291" y="286" type="curve" smooth="yes"/>
      <point x="470" y="224" type="line"/>
      <point x="470" y="135" type="line" smooth="yes"/>
      <point x="470" y="96"/>
      <point x="457" y="67"/>
      <point x="414" y="67" type="curve" smooth="yes"/>
      <point x="379" y="67"/>
      <point x="364" y="87"/>
      <point x="326" y="116" type="curve" smooth="yes"/>
      <point x="282" y="150"/>
      <point x="233" y="183"/>
      <point x="190" y="185" type="curve"/>
      <point x="190" y="235" type="line"/>
      <point x="98" y="279" type="line"/>
      <point x="98" y="0" type="line"/>
      <point x="190" y="0" type="line"/>
      <point x="190" y="118" type="line"/>
      <point x="223" y="116"/>
      <point x="251" y="97"/>
      <point x="276" y="76" type="curve" smooth="yes"/>
      <point x="318" y="41"/>
      <point x="355" y="0"/>
      <point x="431" y="0" type="curve" smooth="yes"/>
      <point x="503" y="0"/>
      <point x="562" y="36"/>
      <point x="562" y="122" type="curve" smooth="yes"/>
      <point x="562" y="263" type="line"/>
      <point x="328" y="345" type="line" smooth="yes"/>
      <point x="236" y="377"/>
      <point x="190" y="418"/>
      <point x="190" y="463" type="curve" smooth="yes"/>
      <point x="190" y="536" type="line" smooth="yes"/>
      <point x="190" y="576"/>
      <point x="249" y="615"/>
      <point x="330" y="615" type="curve" smooth="yes"/>
      <point x="408" y="615"/>
      <point x="470" y="578"/>
      <point x="470" y="536" type="curve" smooth="yes"/>
    </contour>
    <contour>
      <point x="470" y="534" type="line"/>
      <point x="470" y="507" type="line"/>
      <point x="422" y="506"/>
      <point x="384" y="486"/>
      <point x="384" y="432" type="curve" smooth="yes"/>
      <point x="384" y="380"/>
      <point x="419" y="352"/>
      <point x="478" y="352" type="curve" smooth="yes"/>
      <point x="528" y="352"/>
      <point x="562" y="373"/>
      <point x="562" y="406" type="curve" smooth="yes"/>
      <point x="562" y="534" type="line"/>
    </contour>
    <contour>
      <point x="470" y="468" type="curve"/>
      <point x="470" y="393" type="line"/>
      <point x="450" y="393"/>
      <point x="433" y="406"/>
      <point x="433" y="432" type="curve" smooth="yes"/>
      <point x="433" y="457"/>
      <point x="450" y="468"/>
    </contour>
  </outline>
</glyph>
<glyph name="uni1795" format="2">
  <advance width="654"/>
  <unicode hex="1795"/>
  <note>
uni1795
</note>
  <anchor x="307" y="860" name="abvm"/>
  <anchor x="308" y="810" name="abvm_high"/>
  <anchor x="338" y="0" name="blwm"/>
  <outline>
    <contour>
      <point x="191" y="374" type="line"/>
      <point x="191" y="471" type="line"/>
      <point x="149" y="518"/>
      <point x="138" y="530"/>
      <point x="138" y="539" type="curve" smooth="yes"/>
      <point x="138" y="548"/>
      <point x="150" y="563"/>
      <point x="161" y="574" type="curve" smooth="yes"/>
      <point x="172" y="585"/>
      <point x="185" y="595"/>
      <point x="196" y="595" type="curve" smooth="yes"/>
      <point x="205" y="595"/>
      <point x="223" y="583"/>
      <point x="263" y="556" type="curve" smooth="yes"/>
      <point x="309" y="525"/>
      <point x="354" y="499"/>
      <point x="412" y="499" type="curve" smooth="yes"/>
      <point x="506" y="499"/>
      <point x="565" y="566"/>
      <point x="565" y="646" type="curve" smooth="yes"/>
      <point x="565" y="735"/>
      <point x="485" y="780"/>
      <point x="431" y="780" type="curve" smooth="yes"/>
      <point x="388" y="780"/>
      <point x="376" y="749"/>
      <point x="377" y="704" type="curve"/>
      <point x="434" y="715"/>
      <point x="498" y="687"/>
      <point x="498" y="633" type="curve" smooth="yes"/>
      <point x="498" y="594"/>
      <point x="465" y="568"/>
      <point x="420" y="568" type="curve" smooth="yes"/>
      <point x="381" y="568"/>
      <point x="345" y="588"/>
      <point x="294" y="624" type="curve" smooth="yes"/>
      <point x="243" y="660"/>
      <point x="222" y="682"/>
      <point x="206" y="682" type="curve" smooth="yes"/>
      <point x="186" y="682"/>
      <point x="145" y="646"/>
      <point x="108" y="610" type="curve" smooth="yes"/>
      <point x="69" y="573"/>
      <point x="50" y="551"/>
      <point x="50" y="523" type="curve" smooth="yes"/>
      <point x="50" y="497"/>
      <point x="67" y="473"/>
      <point x="99" y="443" type="curve"/>
      <point x="99" y="374" type="line"/>
    </contour>
    <contour>
      <point x="191" y="425" type="line"/>
      <point x="99" y="425" type="line"/>
      <point x="99" y="0" type="line"/>
      <point x="191" y="0" type="line"/>
      <point x="331" y="115" type="line"/>
      <point x="471" y="0" type="line"/>
      <point x="563" y="0" type="line"/>
      <point x="563" y="196" type="line"/>
      <point x="471" y="196" type="line"/>
      <point x="471" y="91" type="line"/>
      <point x="331" y="207" type="line"/>
      <point x="191" y="91" type="line"/>
    </contour>
    <contour>
      <point x="563" y="186" type="line"/>
      <point x="563" y="395" type="line" smooth="yes"/>
      <point x="563" y="428"/>
      <point x="543" y="448"/>
      <point x="496" y="448" type="curve" smooth="yes"/>
      <point x="424" y="448"/>
      <point x="361" y="401"/>
      <point x="361" y="329" type="curve" smooth="yes"/>
      <point x="361" y="266"/>
      <point x="413" y="228"/>
      <point x="471" y="228" type="curve"/>
      <point x="471" y="186" type="line"/>
    </contour>
    <contour>
      <point x="471" y="295" type="line"/>
      <point x="450" y="295"/>
      <point x="426" y="307"/>
      <point x="426" y="337" type="curve" smooth="yes"/>
      <point x="426" y="367"/>
      <point x="449" y="386"/>
      <point x="471" y="386" type="curve"/>
    </contour>
  </outline>
</glyph>
<glyph name="uni1797" format="2">
  <advance width="705"/>
  <unicode hex="1797"/>
  <note>
uni1797
</note>
  <anchor x="362" y="760" name="abvm"/>
  <anchor x="359" y="728" name="abvm_high"/>
  <anchor x="377" y="0" name="blwm"/>
  <outline>
    <contour>
      <point x="159" y="278" type="line"/>
      <point x="251" y="278" type="line"/>
      <point x="251" y="316" type="line" smooth="yes"/>
      <point x="251" y="355"/>
      <point x="308" y="392"/>
      <point x="381" y="392" type="curve" smooth="yes"/>
      <point x="450" y="392"/>
      <point x="511" y="358"/>
      <point x="511" y="316" type="curve" smooth="yes"/>
      <point x="511" y="0" type="line"/>
      <point x="603" y="0" type="line"/>
      <point x="603" y="316" type="line" smooth="yes"/>
      <point x="603" y="391"/>
      <point x="503" y="459"/>
      <point x="381" y="459" type="curve" smooth="yes"/>
      <point x="263" y="459"/>
      <point x="159" y="393"/>
      <point x="159" y="316" type="curve" smooth="yes"/>
    </contour>
    <contour>
      <point x="251" y="296" type="line"/>
      <point x="159" y="296" type="line"/>
      <point x="159" y="244" type="line"/>
      <point x="70" y="242"/>
      <point x="48" y="185"/>
      <point x="48" y="147" type="curve" smooth="yes"/>
      <point x="48" y="113"/>
      <point x="65" y="67"/>
      <point x="159" y="0" type="curve"/>
      <point x="251" y="0" type="line"/>
    </contour>
    <contour>
      <point x="159" y="84" type="line"/>
      <point x="130" y="101"/>
      <point x="115" y="119"/>
      <point x="115" y="141" type="curve" smooth="yes"/>
      <point x="115" y="160"/>
      <point x="126" y="175"/>
      <point x="159" y="176" type="curve"/>
    </contour>
    <contour>
      <point x="225" y="470" type="line"/>
      <point x="191" y="495"/>
      <point x="176" y="512"/>
      <point x="176" y="533" type="curve" smooth="yes"/>
      <point x="176" y="549"/>
      <point x="184" y="561"/>
      <point x="193" y="570" type="curve" smooth="yes"/>
      <point x="202" y="580"/>
      <point x="212" y="586"/>
      <point x="223" y="586" type="curve" smooth="yes"/>
      <point x="237" y="586"/>
      <point x="250" y="577"/>
      <point x="280" y="554" type="curve" smooth="yes"/>
      <point x="311" y="530"/>
      <point x="329" y="516"/>
      <point x="349" y="516" type="curve" smooth="yes"/>
      <point x="370" y="516"/>
      <point x="393" y="528"/>
      <point x="418" y="549" type="curve" smooth="yes"/>
      <point x="438" y="566"/>
      <point x="454" y="585"/>
      <point x="472" y="585" type="curve" smooth="yes"/>
      <point x="506" y="585"/>
      <point x="527" y="516"/>
      <point x="579" y="516" type="curve" smooth="yes"/>
      <point x="601" y="516"/>
      <point x="628" y="528"/>
      <point x="641" y="582" type="curve"/>
      <point x="609" y="580"/>
      <point x="589" y="587"/>
      <point x="571" y="605" type="curve" smooth="yes"/>
      <point x="531" y="645" type="line" smooth="yes"/>
      <point x="504" y="672"/>
      <point x="490" y="680"/>
      <point x="481" y="680" type="curve" smooth="yes"/>
      <point x="467" y="680"/>
      <point x="446" y="661"/>
      <point x="416" y="633" type="curve" smooth="yes"/>
      <point x="390" y="608"/>
      <point x="373" y="593"/>
      <point x="360" y="593" type="curve" smooth="yes"/>
      <point x="347" y="593"/>
      <point x="329" y="608"/>
      <point x="308" y="628" type="curve" smooth="yes"/>
      <point x="271" y="663"/>
      <point x="251" y="682"/>
      <point x="236" y="682" type="curve" smooth="yes"/>
      <point x="220" y="682"/>
      <point x="196" y="663"/>
      <point x="169" y="640" type="curve" smooth="yes"/>
      <point x="110" y="589"/>
      <point x="93" y="562"/>
      <point x="93" y="530" type="curve" smooth="yes"/>
      <point x="93" y="490"/>
      <point x="120" y="458"/>
      <point x="152" y="427" type="curve"/>
    </contour>
  </outline>
</glyph>
<glyph name="uni1799" format="2">
  <advance width="1025"/>
  <unicode hex="1799"/>
  <note>
uni1799
</note>
  <anchor x="712" y="760" name="abvm"/>
  <anchor x="722" y="0" name="blwm"/>
  <outline>
    <contour>
      <point x="934" y="350" type="line"/>
      <point x="934" y="447" type="line"/>
      <point x="829" y="532" type="line"/>
      <point x="872" y="590" type="line"/>
      <point x="907" y="565"/>
      <point x="929" y="557"/>
      <point x="946" y="557" type="curve" smooth="yes"/>
      <point x="985" y="557"/>
      <point x="1010" y="596"/>
      <point x="1010" y="629" type="curve"/>
      <point x="959" y="625"/>
      <point x="936" y="638"/>
      <point x="872" y="680" type="curve"/>
      <point x="779" y="552"/>
      <point x="757" y="534"/>
      <point x="757" y="514" type="curve" smooth="yes"/>
      <point x="757" y="499"/>
      <point x="769" y="484"/>
      <point x="842" y="424" type="curve"/>
      <point x="842" y="350" type="line"/>
    </contour>
    <contour>
      <point x="934" y="390" type="line"/>
      <point x="842" y="390" type="line"/>
      <point x="842" y="146" type="line" smooth="yes"/>
      <point x="842" y="109"/>
      <point x="783" y="67"/>
      <point x="714" y="67" type="curve" smooth="yes"/>
      <point x="645" y="67"/>
      <point x="586" y="109"/>
      <point x="586" y="146" type="curve" smooth="yes"/>
      <point x="586" y="390" type="line"/>
      <point x="494" y="390" type="line"/>
      <point x="494" y="146" type="line" smooth="yes"/>
      <point x="494" y="109"/>
      <point x="435" y="67"/>
      <point x="353" y="67" type="curve" smooth="yes"/>
      <point x="277" y="67"/>
      <point x="214" y="103"/>
      <point x="214" y="146" type="curve" smooth="yes"/>
      <point x="214" y="422" type="line"/>
      <point x="284" y="435"/>
      <point x="326" y="490"/>
      <point x="326" y="555" type="curve" smooth="yes"/>
      <point x="326" y="623"/>
      <point x="282" y="682"/>
      <point x="203" y="682" type="curve" smooth="yes"/>
      <point x="154" y="682"/>
      <point x="122" y="659"/>
      <point x="122" y="621" type="curve" smooth="yes"/>
      <point x="122" y="146" type="line" smooth="yes"/>
      <point x="122" y="82"/>
      <point x="211" y="0"/>
      <point x="353" y="0" type="curve" smooth="yes"/>
      <point x="426" y="0"/>
      <point x="488" y="10"/>
      <point x="540" y="62" type="curve"/>
      <point x="583" y="19"/>
      <point x="648" y="0"/>
      <point x="714" y="0" type="curve" smooth="yes"/>
      <point x="844" y="0"/>
      <point x="934" y="82"/>
      <point x="934" y="146" type="curve" smooth="yes"/>
    </contour>
    <contour>
      <point x="214" y="604" type="line"/>
      <point x="243" y="599"/>
      <point x="259" y="576"/>
      <point x="259" y="548" type="curve" smooth="yes"/>
      <point x="259" y="515"/>
      <point x="237" y="490"/>
      <point x="214" y="489" type="curve"/>
    </contour>
    <contour>
      <point x="586" y="350" type="line"/>
      <point x="586" y="447" type="line"/>
      <point x="481" y="532" type="line"/>
      <point x="524" y="590" type="line"/>
      <point x="559" y="565"/>
      <point x="581" y="557"/>
      <point x="598" y="557" type="curve" smooth="yes"/>
      <point x="637" y="557"/>
      <point x="662" y="596"/>
      <point x="662" y="629" type="curve"/>
      <point x="611" y="625"/>
      <point x="588" y="638"/>
      <point x="524" y="680" type="curve"/>
      <point x="431" y="552"/>
      <point x="409" y="534"/>
      <point x="409" y="514" type="curve" smooth="yes"/>
      <point x="409" y="499"/>
      <point x="421" y="484"/>
      <point x="494" y="424" type="curve"/>
      <point x="494" y="350" type="line"/>
    </contour>
  </outline>
</glyph>
<glyph name="uni179A" format="2">
  <advance width="377"/>
  <unicode hex="179A"/>
  <note>
uni179A
</note>
  <anchor x="220" y="760" name="abvm"/>
  <anchor x="235" y="0" name="blwm"/>
  <outline>
    <contour>
      <point x="283" y="392" type="line"/>
      <point x="191" y="392" type="line"/>
      <point x="191" y="244" type="line"/>
      <point x="102" y="242"/>
      <point x="80" y="184"/>
      <point x="80" y="146" type="curve" smooth="yes"/>
      <point x="80" y="112"/>
      <point x="97" y="67"/>
      <point x="191" y="0" type="curve"/>
      <point x="283" y="0" type="line"/>
    </contour>
    <contour>
      <point x="191" y="84" type="line"/>
      <point x="162" y="101"/>
      <point x="147" y="121"/>
      <point x="147" y="143" type="curve" smooth="yes"/>
      <point x="147" y="162"/>
      <point x="158" y="175"/>
      <point x="191" y="176" type="curve"/>
    </contour>
    <contour>
      <point x="283" y="350" type="line"/>
      <point x="283" y="447" type="line"/>
      <point x="178" y="532" type="line"/>
      <point x="221" y="590" type="line"/>
      <point x="256" y="565"/>
      <point x="278" y="557"/>
      <point x="295" y="557" type="curve" smooth="yes"/>
      <point x="334" y="557"/>
      <point x="359" y="596"/>
      <point x="359" y="629" type="curve"/>
      <point x="308" y="625"/>
      <point x="285" y="638"/>
      <point x="221" y="680" type="curve"/>
      <point x="128" y="552"/>
      <point x="106" y="534"/>
      <point x="106" y="514" type="curve" smooth="yes"/>
      <point x="106" y="499"/>
      <point x="118" y="484"/>
      <point x="191" y="424" type="curve"/>
      <point x="191" y="350" type="line"/>
    </contour>
  </outline>
</glyph>
<glyph name="uni179B" format="2">
  <advance width="1001"/>
  <unicode hex="179B"/>
  <note>
uni179B
</note>
  <anchor x="690" y="760" name="abvm"/>
  <anchor x="690" y="0" name="blwm"/>
  <outline>
    <contour>
      <point x="98" y="297" type="line"/>
      <point x="190" y="297" type="line"/>
      <point x="190" y="463" type="line"/>
      <point x="124" y="515" type="line"/>
      <point x="201" y="586"/>
      <point x="247" y="615"/>
      <point x="290" y="615" type="curve" smooth="yes"/>
      <point x="362" y="615"/>
      <point x="470" y="530"/>
      <point x="470" y="463" type="curve" smooth="yes"/>
      <point x="470" y="146" type="line" smooth="yes"/>
      <point x="470" y="82"/>
      <point x="559" y="0"/>
      <point x="690" y="0" type="curve" smooth="yes"/>
      <point x="820" y="0"/>
      <point x="910" y="82"/>
      <point x="910" y="146" type="curve" smooth="yes"/>
      <point x="910" y="394" type="line"/>
      <point x="818" y="394" type="line"/>
      <point x="818" y="146" type="line" smooth="yes"/>
      <point x="818" y="109"/>
      <point x="759" y="67"/>
      <point x="690" y="67" type="curve" smooth="yes"/>
      <point x="621" y="67"/>
      <point x="562" y="109"/>
      <point x="562" y="146" type="curve" smooth="yes"/>
      <point x="562" y="463" type="line" smooth="yes"/>
      <point x="562" y="524"/>
      <point x="532" y="568"/>
      <point x="459" y="618" type="curve" smooth="yes"/>
      <point x="382" y="670"/>
      <point x="336" y="682"/>
      <point x="294" y="682" type="curve" smooth="yes"/>
      <point x="244" y="682"/>
      <point x="206" y="665"/>
      <point x="142" y="616" type="curve" smooth="yes"/>
      <point x="63" y="556"/>
      <point x="44" y="526"/>
      <point x="44" y="507" type="curve" smooth="yes"/>
      <point x="44" y="493"/>
      <point x="54" y="476"/>
      <point x="98" y="438" type="curve"/>
    </contour>
    <contour>
      <point x="98" y="316" type="line"/>
      <point x="98" y="0" type="line"/>
      <point x="190" y="0" type="line"/>
      <point x="288" y="59"/>
      <point x="301" y="115"/>
      <point x="301" y="151" type="curve" smooth="yes"/>
      <point x="301" y="211"/>
      <point x="265" y="250"/>
      <point x="190" y="246" type="curve"/>
      <point x="190" y="316" type="line"/>
    </contour>
    <contour>
      <point x="190" y="181" type="line"/>
      <point x="213" y="181"/>
      <point x="230" y="175"/>
      <point x="230" y="150" type="curve" smooth="yes"/>
      <point x="230" y="127"/>
      <point x="216" y="105"/>
      <point x="190" y="89" type="curve"/>
    </contour>
    <contour>
      <point x="910" y="350" type="line"/>
      <point x="910" y="447" type="line"/>
      <point x="805" y="532" type="line"/>
      <point x="848" y="590" type="line"/>
      <point x="883" y="565"/>
      <point x="905" y="557"/>
      <point x="922" y="557" type="curve" smooth="yes"/>
      <point x="961" y="557"/>
      <point x="986" y="596"/>
      <point x="986" y="629" type="curve"/>
      <point x="935" y="625"/>
      <point x="912" y="638"/>
      <point x="848" y="680" type="curve"/>
      <point x="755" y="552"/>
      <point x="733" y="534"/>
      <point x="733" y="514" type="curve" smooth="yes"/>
      <point x="733" y="499"/>
      <point x="745" y="484"/>
      <point x="818" y="424" type="curve"/>
      <point x="818" y="350" type="line"/>
    </contour>
  </outline>
</glyph>
<glyph name="uni179C" format="2">
  <advance width="323"/>
  <unicode hex="179C"/>
  <note>
uni179C
</note>
  <anchor x="165" y="840" name="abvm"/>
  <anchor x="165" y="0" name="blwm"/>
  <outline>
    <contour>
      <point x="226" y="392" type="line"/>
      <point x="134" y="392" type="line"/>
      <point x="134" y="244" type="line"/>
      <point x="45" y="242"/>
      <point x="23" y="184"/>
      <point x="23" y="146" type="curve" smooth="yes"/>
      <point x="23" y="112"/>
      <point x="40" y="67"/>
      <point x="134" y="0" type="curve"/>
      <point x="226" y="0" type="line"/>
    </contour>
    <contour>
      <point x="134" y="84" type="line"/>
      <point x="105" y="101"/>
      <point x="90" y="121"/>
      <point x="90" y="143" type="curve" smooth="yes"/>
      <point x="90" y="162"/>
      <point x="101" y="175"/>
      <point x="134" y="176" type="curve"/>
    </contour>
    <contour>
      <point x="134" y="326" type="line"/>
      <point x="226" y="326" type="line"/>
      <point x="226" y="447" type="line"/>
      <point x="123" y="530" type="line"/>
      <point x="167" y="589" type="line"/>
      <point x="179" y="579"/>
      <point x="197" y="570"/>
      <point x="220" y="570" type="curve" smooth="yes"/>
      <point x="278" y="570"/>
      <point x="319" y="625"/>
      <point x="319" y="681" type="curve" smooth="yes"/>
      <point x="319" y="740"/>
      <point x="276" y="779"/>
      <point x="244" y="779" type="curve" smooth="yes"/>
      <point x="224" y="779"/>
      <point x="195" y="763"/>
      <point x="195" y="722" type="curve"/>
      <point x="232" y="722"/>
      <point x="260" y="700"/>
      <point x="260" y="676" type="curve" smooth="yes"/>
      <point x="260" y="655"/>
      <point x="240" y="645"/>
      <point x="222" y="645" type="curve" smooth="yes"/>
      <point x="204" y="645"/>
      <point x="190" y="655"/>
      <point x="164" y="679" type="curve"/>
      <point x="71" y="551"/>
      <point x="49" y="531"/>
      <point x="49" y="511" type="curve" smooth="yes"/>
      <point x="49" y="497"/>
      <point x="61" y="484"/>
      <point x="134" y="424" type="curve"/>
    </contour>
  </outline>
</glyph>
<glyph name="uni179E" format="2">
  <advance width="674"/>
  <unicode hex="179E"/>
  <note>
uni179E
</note>
  <anchor x="348" y="760" name="abvm"/>
  <anchor x="363" y="0" name="blwm"/>
  <outline>
    <contour>
      <point x="415" y="286" type="line"/>
      <point x="659" y="286" type="line"/>
      <point x="659" y="353" type="line"/>
      <point x="415" y="353" type="line"/>
    </contour>
    <contour>
      <point x="563" y="379" type="line"/>
      <point x="471" y="379" type="line"/>
      <point x="471" y="146" type="line" smooth="yes"/>
      <point x="471" y="108"/>
      <point x="414" y="67"/>
      <point x="341" y="67" type="curve" smooth="yes"/>
      <point x="271" y="67"/>
      <point x="211" y="106"/>
      <point x="211" y="146" type="curve" smooth="yes"/>
      <point x="211" y="379" type="line"/>
      <point x="119" y="379" type="line"/>
      <point x="119" y="146" type="line" smooth="yes"/>
      <point x="119" y="72"/>
      <point x="219" y="0"/>
      <point x="341" y="0" type="curve" smooth="yes"/>
      <point x="461" y="0"/>
      <point x="563" y="70"/>
      <point x="563" y="146" type="curve" smooth="yes"/>
    </contour>
    <contour>
      <point x="211" y="350" type="line"/>
      <point x="211" y="447" type="line"/>
      <point x="106" y="532" type="line"/>
      <point x="149" y="590" type="line"/>
      <point x="184" y="565"/>
      <point x="206" y="557"/>
      <point x="223" y="557" type="curve" smooth="yes"/>
      <point x="262" y="557"/>
      <point x="287" y="596"/>
      <point x="287" y="629" type="curve"/>
      <point x="236" y="625"/>
      <point x="213" y="638"/>
      <point x="149" y="680" type="curve"/>
      <point x="56" y="552"/>
      <point x="34" y="534"/>
      <point x="34" y="514" type="curve" smooth="yes"/>
      <point x="34" y="499"/>
      <point x="46" y="484"/>
      <point x="119" y="424" type="curve"/>
      <point x="119" y="350" type="line"/>
    </contour>
    <contour>
      <point x="563" y="350" type="line"/>
      <point x="563" y="447" type="line"/>
      <point x="458" y="532" type="line"/>
      <point x="501" y="590" type="line"/>
      <point x="536" y="565"/>
      <point x="558" y="557"/>
      <point x="575" y="557" type="curve" smooth="yes"/>
      <point x="614" y="557"/>
      <point x="639" y="596"/>
      <point x="639" y="629" type="curve"/>
      <point x="588" y="625"/>
      <point x="565" y="638"/>
      <point x="501" y="680" type="curve"/>
      <point x="408" y="552"/>
      <point x="386" y="534"/>
      <point x="386" y="514" type="curve" smooth="yes"/>
      <point x="386" y="499"/>
      <point x="398" y="484"/>
      <point x="471" y="424" type="curve"/>
      <point x="471" y="350" type="line"/>
    </contour>
  </outline>
</glyph>
<glyph name="uni179F" format="2">
  <advance width="1001"/>
  <unicode hex="179F"/>
  <note>
uni179F
</note>
  <anchor x="668" y="760" name="abvm"/>
  <anchor x="694" y="0" name="blwm"/>
  <anchor x="503" y="0" name="blwm_nno"/>
  <outline>
    <contour>
      <point x="333" y="462" type="curve" smooth="yes"/>
      <point x="193" y="462"/>
      <point x="98" y="399"/>
      <point x="98" y="316" type="curve" smooth="yes"/>
      <point x="98" y="268" type="line"/>
      <point x="190" y="268" type="line"/>
      <point x="190" y="319" type="line" smooth="yes"/>
      <point x="190" y="359"/>
      <point x="248" y="395"/>
      <point x="331" y="395" type="curve" smooth="yes"/>
      <point x="409" y="395"/>
      <point x="470" y="360"/>
      <point x="470" y="319" type="curve" smooth="yes"/>
      <point x="470" y="146" type="line" smooth="yes"/>
      <point x="470" y="82"/>
      <point x="559" y="0"/>
      <point x="690" y="0" type="curve" smooth="yes"/>
      <point x="820" y="0"/>
      <point x="910" y="82"/>
      <point x="910" y="146" type="curve" smooth="yes"/>
      <point x="910" y="396" type="line"/>
      <point x="818" y="396" type="line"/>
      <point x="818" y="146" type="line" smooth="yes"/>
      <point x="818" y="109"/>
      <point x="759" y="67"/>
      <point x="690" y="67" type="curve" smooth="yes"/>
      <point x="621" y="67"/>
      <point x="562" y="109"/>
      <point x="562" y="146" type="curve" smooth="yes"/>
      <point x="562" y="316" type="line" smooth="yes"/>
      <point x="562" y="399"/>
      <point x="473" y="462"/>
    </contour>
    <contour>
      <point x="334" y="448" type="line"/>
      <point x="230" y="534" type="line"/>
      <point x="274" y="592" type="line"/>
      <point x="293" y="579"/>
      <point x="326" y="558"/>
      <point x="347" y="558" type="curve" smooth="yes"/>
      <point x="378" y="558"/>
      <point x="405" y="593"/>
      <point x="405" y="630" type="curve"/>
      <point x="358" y="630"/>
      <point x="321" y="652"/>
      <point x="271" y="682" type="curve"/>
      <point x="163" y="540"/>
      <point x="156" y="526"/>
      <point x="156" y="509" type="curve" smooth="yes"/>
      <point x="156" y="491"/>
      <point x="185" y="468"/>
      <point x="234" y="428" type="curve"/>
    </contour>
    <contour>
      <point x="98" y="316" type="line"/>
      <point x="98" y="0" type="line"/>
      <point x="190" y="0" type="line"/>
      <point x="288" y="59"/>
      <point x="301" y="115"/>
      <point x="301" y="151" type="curve" smooth="yes"/>
      <point x="301" y="211"/>
      <point x="265" y="250"/>
      <point x="190" y="246" type="curve"/>
      <point x="190" y="316" type="line"/>
    </contour>
    <contour>
      <point x="190" y="181" type="line"/>
      <point x="213" y="181"/>
      <point x="230" y="175"/>
      <point x="230" y="150" type="curve" smooth="yes"/>
      <point x="230" y="127"/>
      <point x="216" y="105"/>
      <point x="190" y="89" type="curve"/>
    </contour>
    <contour>
      <point x="910" y="350" type="line"/>
      <point x="910" y="447" type="line"/>
      <point x="805" y="532" type="line"/>
      <point x="848" y="590" type="line"/>
      <point x="883" y="565"/>
      <point x="905" y="557"/>
      <point x="922" y="557" type="curve" smooth="yes"/>
      <point x="961" y="557"/>
      <point x="986" y="596"/>
      <point x="986" y="629" type="curve"/>
      <point x="935" y="625"/>
      <point x="912" y="638"/>
      <point x="848" y="680" type="curve"/>
      <point x="755" y="552"/>
      <point x="733" y="534"/>
      <point x="733" y="514" type="curve" smooth="yes"/>
      <point x="733" y="499"/>
      <point x="745" y="484"/>
      <point x="818" y="424" type="curve"/>
      <point x="818" y="350" type="line"/>
    </contour>
  </outline>
</glyph>
<glyph name="uni17A0" format="2">
  <advance width="1003"/>
  <unicode hex="17A0"/>
  <note>
uni17A0
</note>
  <anchor x="654" y="760" name="abvm"/>
  <anchor x="664" y="0" name="blwm"/>
  <outline>
    <contour>
      <point x="471" y="371" type="line"/>
      <point x="563" y="371" type="line"/>
      <point x="563" y="463" type="line"/>
      <point x="494" y="518" type="line"/>
      <point x="563" y="590"/>
      <point x="623" y="615"/>
      <point x="663" y="615" type="curve" smooth="yes"/>
      <point x="738" y="615"/>
      <point x="819" y="530"/>
      <point x="819" y="464" type="curve" smooth="yes"/>
      <point x="819" y="0" type="line"/>
      <point x="911" y="0" type="line"/>
      <point x="911" y="463" type="line" smooth="yes"/>
      <point x="911" y="524"/>
      <point x="884" y="571"/>
      <point x="818" y="622" type="curve" smooth="yes"/>
      <point x="755" y="670"/>
      <point x="709" y="682"/>
      <point x="670" y="682" type="curve" smooth="yes"/>
      <point x="623" y="682"/>
      <point x="578" y="664"/>
      <point x="513" y="616" type="curve" smooth="yes"/>
      <point x="434" y="557"/>
      <point x="417" y="527"/>
      <point x="417" y="508" type="curve" smooth="yes"/>
      <point x="417" y="493"/>
      <point x="427" y="476"/>
      <point x="471" y="438" type="curve"/>
    </contour>
    <contour>
      <point x="563" y="379" type="line"/>
      <point x="471" y="379" type="line"/>
      <point x="471" y="146" type="line" smooth="yes"/>
      <point x="471" y="108"/>
      <point x="414" y="67"/>
      <point x="341" y="67" type="curve" smooth="yes"/>
      <point x="271" y="67"/>
      <point x="211" y="106"/>
      <point x="211" y="146" type="curve" smooth="yes"/>
      <point x="211" y="379" type="line"/>
      <point x="119" y="379" type="line"/>
      <point x="119" y="146" type="line" smooth="yes"/>
      <point x="119" y="72"/>
      <point x="219" y="0"/>
      <point x="341" y="0" type="curve" smooth="yes"/>
      <point x="461" y="0"/>
      <point x="563" y="70"/>
      <point x="563" y="146" type="curve" smooth="yes"/>
    </contour>
    <contour>
      <point x="211" y="350" type="line"/>
      <point x="211" y="447" type="line"/>
      <point x="106" y="532" type="line"/>
      <point x="149" y="590" type="line"/>
      <point x="184" y="565"/>
      <point x="206" y="557"/>
      <point x="223" y="557" type="curve" smooth="yes"/>
      <point x="262" y="557"/>
      <point x="287" y="596"/>
      <point x="287" y="629" type="curve"/>
      <point x="236" y="625"/>
      <point x="213" y="638"/>
      <point x="149" y="680" type="curve"/>
      <point x="56" y="552"/>
      <point x="34" y="534"/>
      <point x="34" y="514" type="curve" smooth="yes"/>
      <point x="34" y="499"/>
      <point x="46" y="484"/>
      <point x="119" y="424" type="curve"/>
      <point x="119" y="350" type="line"/>
    </contour>
  </outline>
</glyph>
<glyph name="uni17A1" format="2">
  <advance width="952"/>
  <unicode hex="17A1"/>
  <note>
uni17A1
</note>
  <anchor x="529" y="760" name="abvm"/>
  <anchor x="586" y="-320" name="blwm"/>
  <outline>
    <contour>
      <point x="799" y="350" type="line"/>
      <point x="799" y="447" type="line"/>
      <point x="694" y="532" type="line"/>
      <point x="737" y="590" type="line"/>
      <point x="772" y="565"/>
      <point x="794" y="557"/>
      <point x="811" y="557" type="curve" smooth="yes"/>
      <point x="850" y="557"/>
      <point x="875" y="596"/>
      <point x="875" y="629" type="curve"/>
      <point x="824" y="625"/>
      <point x="801" y="638"/>
      <point x="737" y="680" type="curve"/>
      <point x="644" y="552"/>
      <point x="622" y="534"/>
      <point x="622" y="514" type="curve" smooth="yes"/>
      <point x="622" y="499"/>
      <point x="634" y="484"/>
      <point x="707" y="424" type="curve"/>
      <point x="707" y="350" type="line"/>
    </contour>
    <contour>
      <point x="119" y="180" type="line"/>
      <point x="119" y="138" type="line" smooth="yes"/>
      <point x="119" y="42"/>
      <point x="178" y="0"/>
      <point x="265" y="0" type="curve" smooth="yes"/>
      <point x="366" y="0"/>
      <point x="415" y="49"/>
      <point x="415" y="147" type="curve" smooth="yes"/>
      <point x="415" y="221" type="line"/>
      <point x="487" y="229"/>
      <point x="517" y="263"/>
      <point x="517" y="306" type="curve" smooth="yes"/>
      <point x="517" y="345"/>
      <point x="492" y="366"/>
      <point x="444" y="366" type="curve" smooth="yes"/>
      <point x="371" y="366"/>
      <point x="335" y="319"/>
      <point x="323" y="288" type="curve"/>
      <point x="282" y="288" type="line" smooth="yes"/>
      <point x="198" y="288"/>
      <point x="142" y="339"/>
      <point x="142" y="421" type="curve" smooth="yes"/>
      <point x="142" y="536" type="line" smooth="yes"/>
      <point x="142" y="576"/>
      <point x="197" y="615"/>
      <point x="285" y="615" type="curve" smooth="yes"/>
      <point x="360" y="615"/>
      <point x="422" y="586"/>
      <point x="422" y="546" type="curve"/>
      <point x="378" y="546"/>
      <point x="345" y="529"/>
      <point x="345" y="479" type="curve" smooth="yes"/>
      <point x="345" y="438"/>
      <point x="368" y="413"/>
      <point x="429" y="413" type="curve" smooth="yes"/>
      <point x="484" y="413"/>
      <point x="514" y="430"/>
      <point x="514" y="485" type="curve" smooth="yes"/>
      <point x="514" y="533" type="line" smooth="yes"/>
      <point x="514" y="614"/>
      <point x="424" y="682"/>
      <point x="282" y="682" type="curve" smooth="yes"/>
      <point x="154" y="682"/>
      <point x="50" y="614"/>
      <point x="50" y="536" type="curve" smooth="yes"/>
      <point x="50" y="421" type="line" smooth="yes"/>
      <point x="50" y="306"/>
      <point x="140" y="221"/>
      <point x="282" y="221" type="curve" smooth="yes"/>
      <point x="323" y="221" type="line"/>
      <point x="323" y="145" type="line" smooth="yes"/>
      <point x="323" y="95"/>
      <point x="299" y="67"/>
      <point x="265" y="67" type="curve" smooth="yes"/>
      <point x="231" y="67"/>
      <point x="206" y="95"/>
      <point x="206" y="145" type="curve" smooth="yes"/>
      <point x="206" y="180" type="line"/>
    </contour>
    <contour>
      <point x="451" y="319" type="curve" smooth="yes"/>
      <point x="459" y="319"/>
      <point x="463" y="315"/>
      <point x="463" y="310" type="curve" smooth="yes"/>
      <point x="463" y="300"/>
      <point x="448" y="288"/>
      <point x="415" y="288" type="curve"/>
      <point x="422" y="305"/>
      <point x="435" y="319"/>
    </contour>
    <contour>
      <point x="422" y="451" type="line"/>
      <point x="402" y="451"/>
      <point x="394" y="465"/>
      <point x="394" y="481" type="curve" smooth="yes"/>
      <point x="394" y="497"/>
      <point x="402" y="510"/>
      <point x="422" y="510" type="curve"/>
    </contour>
    <contour>
      <point x="451" y="-177" type="line"/>
      <point x="359" y="-177" type="line"/>
      <point x="359" y="-317" type="line"/>
      <point x="451" y="-317" type="line"/>
      <point x="579" y="-212" type="line"/>
      <point x="707" y="-317" type="line"/>
      <point x="799" y="-317" type="line"/>
      <point x="799" y="384" type="line"/>
      <point x="707" y="384" type="line"/>
      <point x="707" y="-227" type="line"/>
      <point x="579" y="-121" type="line"/>
      <point x="451" y="-227" type="line"/>
    </contour>
    <contour>
      <point x="359" y="-191" type="line"/>
      <point x="451" y="-191" type="line"/>
      <point x="451" y="-98" type="line" smooth="yes"/>
      <point x="451" y="-65"/>
      <point x="429" y="-49"/>
      <point x="391" y="-49" type="curve" smooth="yes"/>
      <point x="337" y="-49"/>
      <point x="308" y="-79"/>
      <point x="308" y="-120" type="curve" smooth="yes"/>
      <point x="308" y="-150"/>
      <point x="327" y="-177"/>
      <point x="359" y="-178" type="curve"/>
    </contour>
  </outline>
</glyph>
<glyph name="uni17A2" format="2">
  <advance width="690"/>
  <unicode hex="17A2"/>
  <note>
uni17A2
</note>
  <anchor x="345" y="760" name="abvm"/>
  <anchor x="355" y="0" name="blwm"/>
  <outline>
    <contour>
      <point x="598" y="350" type="line"/>
      <point x="598" y="447" type="line"/>
      <point x="493" y="532" type="line"/>
      <point x="536" y="590" type="line"/>
      <point x="571" y="565"/>
      <point x="593" y="557"/>
      <point x="610" y="557" type="curve" smooth="yes"/>
      <point x="649" y="557"/>
      <point x="674" y="596"/>
      <point x="674" y="629" type="curve"/>
      <point x="623" y="625"/>
      <point x="600" y="638"/>
      <point x="536" y="680" type="curve"/>
      <point x="443" y="552"/>
      <point x="421" y="534"/>
      <point x="421" y="514" type="curve" smooth="yes"/>
      <point x="421" y="499"/>
      <point x="433" y="484"/>
      <point x="506" y="424" type="curve"/>
      <point x="506" y="350" type="line"/>
    </contour>
    <contour>
      <point x="506" y="284" type="line"/>
      <point x="598" y="284" type="line"/>
      <point x="598" y="407" type="line"/>
      <point x="506" y="407" type="line"/>
      <point x="506" y="374" type="line"/>
      <point x="226" y="374" type="line"/>
      <point x="226" y="407" type="line"/>
      <point x="134" y="407" type="line"/>
      <point x="134" y="284" type="line"/>
      <point x="226" y="284" type="line"/>
      <point x="226" y="307" type="line"/>
      <point x="506" y="307" type="line"/>
    </contour>
    <contour>
      <point x="226" y="350" type="line"/>
      <point x="226" y="447" type="line"/>
      <point x="121" y="532" type="line"/>
      <point x="164" y="590" type="line"/>
      <point x="199" y="565"/>
      <point x="221" y="557"/>
      <point x="238" y="557" type="curve" smooth="yes"/>
      <point x="277" y="557"/>
      <point x="302" y="596"/>
      <point x="302" y="629" type="curve"/>
      <point x="251" y="625"/>
      <point x="228" y="638"/>
      <point x="164" y="680" type="curve"/>
      <point x="71" y="552"/>
      <point x="49" y="534"/>
      <point x="49" y="514" type="curve" smooth="yes"/>
      <point x="49" y="499"/>
      <point x="61" y="484"/>
      <point x="134" y="424" type="curve"/>
      <point x="134" y="350" type="line"/>
    </contour>
    <contour>
      <point x="598" y="392" type="line"/>
      <point x="506" y="392" type="line"/>
      <point x="506" y="244" type="line"/>
      <point x="417" y="242"/>
      <point x="395" y="184"/>
      <point x="395" y="146" type="curve" smooth="yes"/>
      <point x="395" y="112"/>
      <point x="412" y="67"/>
      <point x="506" y="0" type="curve"/>
      <point x="598" y="0" type="line"/>
    </contour>
    <contour>
      <point x="506" y="84" type="line"/>
      <point x="477" y="101"/>
      <point x="462" y="121"/>
      <point x="462" y="143" type="curve" smooth="yes"/>
      <point x="462" y="162"/>
      <point x="473" y="175"/>
      <point x="506" y="176" type="curve"/>
    </contour>
    <contour>
      <point x="226" y="392" type="line"/>
      <point x="134" y="392" type="line"/>
      <point x="134" y="244" type="line"/>
      <point x="45" y="242"/>
      <point x="23" y="184"/>
      <point x="23" y="146" type="curve" smooth="yes"/>
      <point x="23" y="112"/>
      <point x="40" y="67"/>
      <point x="134" y="0" type="curve"/>
      <point x="226" y="0" type="line"/>
    </contour>
    <contour>
      <point x="134" y="84" type="line"/>
      <point x="105" y="101"/>
      <point x="90" y="121"/>
      <point x="90" y="143" type="curve" smooth="yes"/>
      <point x="90" y="162"/>
      <point x="101" y="175"/>
      <point x="134" y="176" type="curve"/>
    </contour>
  </outline>
</glyph>
<glyph name="uni17A5" format="2">
  <advance width="677"/>
  <unicode hex="17A5"/>
  <note>
uni17A5
</note>
  <outline>
    <contour>
      <point x="122" y="280" type="line"/>
      <point x="214" y="280" type="line"/>
      <point x="214" y="366" type="line" smooth="yes"/>
      <point x="214" y="407"/>
      <point x="273" y="446"/>
      <point x="354" y="446" type="curve" smooth="yes"/>
      <point x="432" y="446"/>
      <point x="494" y="408"/>
      <point x="494" y="366" type="curve" smooth="yes"/>
      <point x="494" y="0" type="line"/>
      <point x="586" y="0" type="line"/>
      <point x="586" y="366" type="line" smooth="yes"/>
      <point x="586" y="443"/>
      <point x="484" y="513"/>
      <point x="354" y="513" type="curve" smooth="yes"/>
      <point x="227" y="513"/>
      <point x="122" y="444"/>
      <point x="122" y="366" type="curve" smooth="yes"/>
    </contour>
    <contour>
      <point x="122" y="316" type="line"/>
      <point x="122" y="0" type="line"/>
      <point x="214" y="0" type="line"/>
      <point x="312" y="59"/>
      <point x="325" y="115"/>
      <point x="325" y="151" type="curve" smooth="yes"/>
      <point x="325" y="211"/>
      <point x="289" y="250"/>
      <point x="214" y="246" type="curve"/>
      <point x="214" y="316" type="line"/>
    </contour>
    <contour>
      <point x="214" y="181" type="line"/>
      <point x="237" y="181"/>
      <point x="254" y="175"/>
      <point x="254" y="150" type="curve" smooth="yes"/>
      <point x="254" y="127"/>
      <point x="240" y="105"/>
      <point x="214" y="89" type="curve"/>
    </contour>
    <contour>
      <point x="150" y="467" type="curve"/>
      <point x="225" y="520" type="line"/>
      <point x="173" y="564"/>
      <point x="164" y="584"/>
      <point x="164" y="593" type="curve" smooth="yes"/>
      <point x="164" y="602"/>
      <point x="176" y="617"/>
      <point x="187" y="628" type="curve" smooth="yes"/>
      <point x="198" y="639"/>
      <point x="211" y="649"/>
      <point x="223" y="649" type="curve" smooth="yes"/>
      <point x="233" y="649"/>
      <point x="249" y="638"/>
      <point x="289" y="610" type="curve" smooth="yes"/>
      <point x="335" y="578"/>
      <point x="380" y="553"/>
      <point x="438" y="553" type="curve" smooth="yes"/>
      <point x="532" y="553"/>
      <point x="591" y="620"/>
      <point x="591" y="700" type="curve" smooth="yes"/>
      <point x="591" y="789"/>
      <point x="511" y="834"/>
      <point x="457" y="834" type="curve" smooth="yes"/>
      <point x="414" y="834"/>
      <point x="402" y="803"/>
      <point x="403" y="758" type="curve"/>
      <point x="460" y="769"/>
      <point x="524" y="741"/>
      <point x="524" y="687" type="curve" smooth="yes"/>
      <point x="524" y="648"/>
      <point x="491" y="622"/>
      <point x="447" y="622" type="curve" smooth="yes"/>
      <point x="407" y="622"/>
      <point x="371" y="643"/>
      <point x="320" y="678" type="curve" smooth="yes"/>
      <point x="270" y="712"/>
      <point x="248" y="736"/>
      <point x="232" y="736" type="curve" smooth="yes"/>
      <point x="212" y="736"/>
      <point x="171" y="700"/>
      <point x="134" y="664" type="curve" smooth="yes"/>
      <point x="95" y="627"/>
      <point x="76" y="604"/>
      <point x="76" y="580" type="curve" smooth="yes"/>
      <point x="76" y="550"/>
      <point x="104" y="508"/>
    </contour>
  </outline>
</glyph>
<glyph name="uni17A6" format="2">
  <advance width="1043"/>
  <unicode hex="17A6"/>
  <note>
uni17A6
</note>
  <outline>
    <contour>
      <point x="842" y="359" type="line"/>
      <point x="842" y="-130" type="line" smooth="yes"/>
      <point x="842" y="-205"/>
      <point x="812" y="-250"/>
      <point x="697" y="-250" type="curve" smooth="yes"/>
      <point x="621" y="-250"/>
      <point x="562" y="-233"/>
      <point x="562" y="-165" type="curve" smooth="yes"/>
      <point x="562" y="-100"/>
      <point x="488" y="-24"/>
      <point x="354" y="-24" type="curve" smooth="yes"/>
      <point x="220" y="-24"/>
      <point x="146" y="-106"/>
      <point x="146" y="-171" type="curve" smooth="yes"/>
      <point x="146" y="-269" type="line" smooth="yes"/>
      <point x="146" y="-301"/>
      <point x="167" y="-317"/>
      <point x="207" y="-317" type="curve" smooth="yes"/>
      <point x="249" y="-317"/>
      <point x="299" y="-291"/>
      <point x="299" y="-241" type="curve" smooth="yes"/>
      <point x="299" y="-207"/>
      <point x="277" y="-195"/>
      <point x="238" y="-195" type="curve"/>
      <point x="238" y="-171" type="line" smooth="yes"/>
      <point x="238" y="-133"/>
      <point x="281" y="-91"/>
      <point x="354" y="-91" type="curve" smooth="yes"/>
      <point x="427" y="-91"/>
      <point x="470" y="-127"/>
      <point x="470" y="-165" type="curve" smooth="yes"/>
      <point x="470" y="-255"/>
      <point x="545" y="-317"/>
      <point x="691" y="-317" type="curve" smooth="yes"/>
      <point x="856" y="-317"/>
      <point x="934" y="-230"/>
      <point x="934" y="-130" type="curve" smooth="yes"/>
      <point x="934" y="359" type="line"/>
    </contour>
    <contour>
      <point x="122" y="288" type="line"/>
      <point x="214" y="288" type="line"/>
      <point x="214" y="534" type="line" smooth="yes"/>
      <point x="214" y="575"/>
      <point x="273" y="614"/>
      <point x="354" y="614" type="curve" smooth="yes"/>
      <point x="432" y="614"/>
      <point x="494" y="576"/>
      <point x="494" y="534" type="curve" smooth="yes"/>
      <point x="494" y="0" type="line"/>
      <point x="586" y="0" type="line"/>
      <point x="586" y="534" type="line" smooth="yes"/>
      <point x="586" y="611"/>
      <point x="484" y="681"/>
      <point x="354" y="681" type="curve" smooth="yes"/>
      <point x="227" y="681"/>
      <point x="122" y="612"/>
      <point x="122" y="534" type="curve" smooth="yes"/>
    </contour>
    <contour>
      <point x="842" y="326" type="line"/>
      <point x="934" y="326" type="line"/>
      <point x="934" y="447" type="line"/>
      <point x="831" y="530" type="line"/>
      <point x="875" y="589" type="line"/>
      <point x="887" y="579"/>
      <point x="905" y="570"/>
      <point x="928" y="570" type="curve" smooth="yes"/>
      <point x="986" y="570"/>
      <point x="1027" y="625"/>
      <point x="1027" y="681" type="curve" smooth="yes"/>
      <point x="1027" y="740"/>
      <point x="984" y="779"/>
      <point x="952" y="779" type="curve" smooth="yes"/>
      <point x="932" y="779"/>
      <point x="903" y="763"/>
      <point x="903" y="722" type="curve"/>
      <point x="940" y="722"/>
      <point x="968" y="700"/>
      <point x="968" y="676" type="curve" smooth="yes"/>
      <point x="968" y="655"/>
      <point x="948" y="645"/>
      <point x="930" y="645" type="curve" smooth="yes"/>
      <point x="912" y="645"/>
      <point x="898" y="655"/>
      <point x="872" y="679" type="curve"/>
      <point x="779" y="551"/>
      <point x="757" y="531"/>
      <point x="757" y="511" type="curve" smooth="yes"/>
      <point x="757" y="497"/>
      <point x="769" y="484"/>
      <point x="842" y="424" type="curve"/>
    </contour>
    <contour>
      <point x="122" y="316" type="line"/>
      <point x="122" y="0" type="line"/>
      <point x="214" y="0" type="line"/>
      <point x="312" y="59"/>
      <point x="325" y="115"/>
      <point x="325" y="151" type="curve" smooth="yes"/>
      <point x="325" y="211"/>
      <point x="289" y="250"/>
      <point x="214" y="246" type="curve"/>
      <point x="214" y="316" type="line"/>
    </contour>
    <contour>
      <point x="214" y="181" type="line"/>
      <point x="237" y="181"/>
      <point x="254" y="175"/>
      <point x="254" y="150" type="curve" smooth="yes"/>
      <point x="254" y="127"/>
      <point x="240" y="105"/>
      <point x="214" y="89" type="curve"/>
    </contour>
  </outline>
</glyph>
<glyph name="uni17A8" format="2">
  <advance width="675"/>
  <unicode hex="17A8"/>
  <note>
uni17A8
</note>
  <anchor x="354" y="934" name="abvm"/>
  <anchor x="348" y="-49" name="blwm"/>
  <outline>
    <contour>
      <point x="122" y="513" type="line"/>
      <point x="214" y="513" type="line"/>
      <point x="214" y="536" type="line" smooth="yes"/>
      <point x="214" y="577"/>
      <point x="273" y="615"/>
      <point x="355" y="615" type="curve" smooth="yes"/>
      <point x="432" y="615"/>
      <point x="494" y="578"/>
      <point x="494" y="536" type="curve" smooth="yes"/>
      <point x="494" y="463" type="line" smooth="yes"/>
      <point x="494" y="428"/>
      <point x="448" y="386"/>
      <point x="354" y="338" type="curve" smooth="yes"/>
      <point x="122" y="219" type="line"/>
      <point x="122" y="122" type="line" smooth="yes"/>
      <point x="122" y="36"/>
      <point x="173" y="0"/>
      <point x="238" y="0" type="curve" smooth="yes"/>
      <point x="305" y="0"/>
      <point x="344" y="39"/>
      <point x="410" y="87" type="curve" smooth="yes"/>
      <point x="463" y="125"/>
      <point x="479" y="130"/>
      <point x="494" y="130" type="curve"/>
      <point x="494" y="49" type="line" smooth="yes"/>
      <point x="494" y="31"/>
      <point x="486" y="13"/>
      <point x="464" y="-4" type="curve"/>
      <point x="464" y="-27"/>
      <point x="486" y="-49"/>
      <point x="520" y="-49" type="curve" smooth="yes"/>
      <point x="557" y="-49"/>
      <point x="586" y="-24"/>
      <point x="586" y="24" type="curve" smooth="yes"/>
      <point x="586" y="279" type="line"/>
      <point x="494" y="235" type="line"/>
      <point x="494" y="200" type="line"/>
      <point x="433" y="195"/>
      <point x="384" y="152"/>
      <point x="311" y="91" type="curve" smooth="yes"/>
      <point x="294" y="77"/>
      <point x="277" y="70"/>
      <point x="259" y="70" type="curve" smooth="yes"/>
      <point x="231" y="70"/>
      <point x="214" y="87"/>
      <point x="214" y="122" type="curve" smooth="yes"/>
      <point x="214" y="187" type="line"/>
      <point x="400" y="282" type="line" smooth="yes"/>
      <point x="524" y="345"/>
      <point x="586" y="407"/>
      <point x="586" y="463" type="curve" smooth="yes"/>
      <point x="586" y="536" type="line" smooth="yes"/>
      <point x="586" y="612"/>
      <point x="484" y="682"/>
      <point x="354" y="682" type="curve" smooth="yes"/>
      <point x="226" y="682"/>
      <point x="122" y="614"/>
      <point x="122" y="536" type="curve" smooth="yes"/>
    </contour>
    <contour>
      <point x="214" y="526" type="line"/>
      <point x="122" y="526" type="line"/>
      <point x="122" y="407" type="line" smooth="yes"/>
      <point x="122" y="374"/>
      <point x="150" y="355"/>
      <point x="200" y="355" type="curve" smooth="yes"/>
      <point x="259" y="355"/>
      <point x="296" y="382"/>
      <point x="296" y="436" type="curve" smooth="yes"/>
      <point x="296" y="487"/>
      <point x="262" y="509"/>
      <point x="214" y="509" type="curve"/>
    </contour>
    <contour>
      <point x="214" y="470" type="line"/>
      <point x="234" y="470"/>
      <point x="247" y="459"/>
      <point x="247" y="435" type="curve" smooth="yes"/>
      <point x="247" y="411"/>
      <point x="234" y="396"/>
      <point x="214" y="396" type="curve"/>
    </contour>
    <contour>
      <point x="219" y="691" type="line"/>
      <point x="185" y="716"/>
      <point x="170" y="733"/>
      <point x="170" y="754" type="curve" smooth="yes"/>
      <point x="170" y="770"/>
      <point x="178" y="782"/>
      <point x="187" y="791" type="curve" smooth="yes"/>
      <point x="196" y="801"/>
      <point x="206" y="807"/>
      <point x="217" y="807" type="curve" smooth="yes"/>
      <point x="231" y="807"/>
      <point x="244" y="798"/>
      <point x="274" y="775" type="curve" smooth="yes"/>
      <point x="305" y="751"/>
      <point x="323" y="737"/>
      <point x="343" y="737" type="curve" smooth="yes"/>
      <point x="364" y="737"/>
      <point x="387" y="749"/>
      <point x="412" y="770" type="curve" smooth="yes"/>
      <point x="432" y="787"/>
      <point x="448" y="806"/>
      <point x="466" y="806" type="curve" smooth="yes"/>
      <point x="500" y="806"/>
      <point x="521" y="737"/>
      <point x="573" y="737" type="curve" smooth="yes"/>
      <point x="595" y="737"/>
      <point x="622" y="749"/>
      <point x="635" y="803" type="curve"/>
      <point x="603" y="801"/>
      <point x="583" y="808"/>
      <point x="565" y="826" type="curve" smooth="yes"/>
      <point x="525" y="866" type="line" smooth="yes"/>
      <point x="498" y="893"/>
      <point x="484" y="901"/>
      <point x="475" y="901" type="curve" smooth="yes"/>
      <point x="461" y="901"/>
      <point x="440" y="882"/>
      <point x="410" y="854" type="curve" smooth="yes"/>
      <point x="384" y="829"/>
      <point x="367" y="814"/>
      <point x="354" y="814" type="curve" smooth="yes"/>
      <point x="341" y="814"/>
      <point x="323" y="829"/>
      <point x="302" y="849" type="curve" smooth="yes"/>
      <point x="265" y="884"/>
      <point x="245" y="903"/>
      <point x="230" y="903" type="curve" smooth="yes"/>
      <point x="214" y="903"/>
      <point x="190" y="884"/>
      <point x="163" y="861" type="curve" smooth="yes"/>
      <point x="104" y="810"/>
      <point x="87" y="783"/>
      <point x="87" y="751" type="curve" smooth="yes"/>
      <point x="87" y="711"/>
      <point x="114" y="679"/>
      <point x="146" y="648" type="curve"/>
    </contour>
  </outline>
</glyph>
<glyph name="uni17A9" format="2">
  <advance width="852"/>
  <unicode hex="17A9"/>
  <note>
uni17A9
</note>
  <anchor x="318" y="760" name="abvm"/>
  <anchor x="348" y="-49" name="blwm"/>
  <outline>
    <contour>
      <point x="640" y="-49" type="line"/>
      <point x="732" y="-49" type="line"/>
      <point x="732" y="329" type="line"/>
      <point x="640" y="285" type="line"/>
    </contour>
    <contour>
      <point x="122" y="513" type="line"/>
      <point x="214" y="513" type="line"/>
      <point x="214" y="536" type="line" smooth="yes"/>
      <point x="214" y="577"/>
      <point x="273" y="615"/>
      <point x="355" y="615" type="curve" smooth="yes"/>
      <point x="432" y="615"/>
      <point x="494" y="578"/>
      <point x="494" y="536" type="curve" smooth="yes"/>
      <point x="494" y="463" type="line" smooth="yes"/>
      <point x="494" y="428"/>
      <point x="448" y="386"/>
      <point x="354" y="338" type="curve" smooth="yes"/>
      <point x="122" y="219" type="line"/>
      <point x="122" y="122" type="line" smooth="yes"/>
      <point x="122" y="36"/>
      <point x="173" y="0"/>
      <point x="238" y="0" type="curve" smooth="yes"/>
      <point x="305" y="0"/>
      <point x="344" y="39"/>
      <point x="410" y="87" type="curve" smooth="yes"/>
      <point x="463" y="125"/>
      <point x="479" y="130"/>
      <point x="494" y="130" type="curve"/>
      <point x="494" y="49" type="line" smooth="yes"/>
      <point x="494" y="31"/>
      <point x="486" y="13"/>
      <point x="464" y="-4" type="curve"/>
      <point x="464" y="-27"/>
      <point x="486" y="-49"/>
      <point x="520" y="-49" type="curve" smooth="yes"/>
      <point x="557" y="-49"/>
      <point x="586" y="-24"/>
      <point x="586" y="24" type="curve" smooth="yes"/>
      <point x="586" y="279" type="line"/>
      <point x="494" y="235" type="line"/>
      <point x="494" y="200" type="line"/>
      <point x="433" y="195"/>
      <point x="384" y="152"/>
      <point x="311" y="91" type="curve" smooth="yes"/>
      <point x="294" y="77"/>
      <point x="277" y="70"/>
      <point x="259" y="70" type="curve" smooth="yes"/>
      <point x="231" y="70"/>
      <point x="214" y="87"/>
      <point x="214" y="122" type="curve" smooth="yes"/>
      <point x="214" y="187" type="line"/>
      <point x="400" y="282" type="line" smooth="yes"/>
      <point x="524" y="345"/>
      <point x="586" y="407"/>
      <point x="586" y="463" type="curve" smooth="yes"/>
      <point x="586" y="536" type="line" smooth="yes"/>
      <point x="586" y="612"/>
      <point x="484" y="682"/>
      <point x="354" y="682" type="curve" smooth="yes"/>
      <point x="226" y="682"/>
      <point x="122" y="614"/>
      <point x="122" y="536" type="curve" smooth="yes"/>
    </contour>
    <contour>
      <point x="214" y="526" type="line"/>
      <point x="122" y="526" type="line"/>
      <point x="122" y="407" type="line" smooth="yes"/>
      <point x="122" y="374"/>
      <point x="150" y="355"/>
      <point x="200" y="355" type="curve" smooth="yes"/>
      <point x="259" y="355"/>
      <point x="296" y="382"/>
      <point x="296" y="436" type="curve" smooth="yes"/>
      <point x="296" y="487"/>
      <point x="262" y="509"/>
      <point x="214" y="509" type="curve"/>
    </contour>
    <contour>
      <point x="214" y="470" type="line"/>
      <point x="234" y="470"/>
      <point x="247" y="459"/>
      <point x="247" y="435" type="curve" smooth="yes"/>
      <point x="247" y="411"/>
      <point x="234" y="396"/>
      <point x="214" y="396" type="curve"/>
    </contour>
  </outline>
</glyph>
<glyph name="uni17AA" format="2">
  <advance width="708"/>
  <unicode hex="17AA"/>
  <note>
uni17AA
</note>
  <anchor x="348" y="1060" name="abvm"/>
  <anchor x="348" y="-49" name="blwm"/>
  <outline>
    <contour>
      <point x="122" y="513" type="line"/>
      <point x="214" y="513" type="line"/>
      <point x="214" y="536" type="line" smooth="yes"/>
      <point x="214" y="577"/>
      <point x="273" y="615"/>
      <point x="355" y="615" type="curve" smooth="yes"/>
      <point x="432" y="615"/>
      <point x="494" y="578"/>
      <point x="494" y="536" type="curve" smooth="yes"/>
      <point x="494" y="463" type="line" smooth="yes"/>
      <point x="494" y="428"/>
      <point x="448" y="386"/>
      <point x="354" y="338" type="curve" smooth="yes"/>
      <point x="122" y="219" type="line"/>
      <point x="122" y="122" type="line" smooth="yes"/>
      <point x="122" y="36"/>
      <point x="173" y="0"/>
      <point x="238" y="0" type="curve" smooth="yes"/>
      <point x="305" y="0"/>
      <point x="344" y="39"/>
      <point x="410" y="87" type="curve" smooth="yes"/>
      <point x="463" y="125"/>
      <point x="479" y="130"/>
      <point x="494" y="130" type="curve"/>
      <point x="494" y="49" type="line" smooth="yes"/>
      <point x="494" y="31"/>
      <point x="486" y="13"/>
      <point x="464" y="-4" type="curve"/>
      <point x="464" y="-27"/>
      <point x="486" y="-49"/>
      <point x="520" y="-49" type="curve" smooth="yes"/>
      <point x="557" y="-49"/>
      <point x="586" y="-24"/>
      <point x="586" y="24" type="curve" smooth="yes"/>
      <point x="586" y="279" type="line"/>
      <point x="494" y="235" type="line"/>
      <point x="494" y="200" type="line"/>
      <point x="433" y="195"/>
      <point x="384" y="152"/>
      <point x="311" y="91" type="curve" smooth="yes"/>
      <point x="294" y="77"/>
      <point x="277" y="70"/>
      <point x="259" y="70" type="curve" smooth="yes"/>
      <point x="231" y="70"/>
      <point x="214" y="87"/>
      <point x="214" y="122" type="curve" smooth="yes"/>
      <point x="214" y="187" type="line"/>
      <point x="400" y="282" type="line" smooth="yes"/>
      <point x="524" y="345"/>
      <point x="586" y="407"/>
      <point x="586" y="463" type="curve" smooth="yes"/>
      <point x="586" y="536" type="line" smooth="yes"/>
      <point x="586" y="612"/>
      <point x="484" y="682"/>
      <point x="354" y="682" type="curve" smooth="yes"/>
      <point x="226" y="682"/>
      <point x="122" y="614"/>
      <point x="122" y="536" type="curve" smooth="yes"/>
    </contour>
    <contour>
      <point x="214" y="526" type="line"/>
      <point x="122" y="526" type="line"/>
      <point x="122" y="407" type="line" smooth="yes"/>
      <point x="122" y="374"/>
      <point x="150" y="355"/>
      <point x="200" y="355" type="curve" smooth="yes"/>
      <point x="259" y="355"/>
      <point x="296" y="382"/>
      <point x="296" y="436" type="curve" smooth="yes"/>
      <point x="296" y="487"/>
      <point x="262" y="509"/>
      <point x="214" y="509" type="curve"/>
    </contour>
    <contour>
      <point x="214" y="470" type="line"/>
      <point x="234" y="470"/>
      <point x="247" y="459"/>
      <point x="247" y="435" type="curve" smooth="yes"/>
      <point x="247" y="411"/>
      <point x="234" y="396"/>
      <point x="214" y="396" type="curve"/>
    </contour>
    <contour>
      <point x="150" y="631" type="curve"/>
      <point x="225" y="684" type="line"/>
      <point x="173" y="728"/>
      <point x="164" y="748"/>
      <point x="164" y="757" type="curve" smooth="yes"/>
      <point x="164" y="766"/>
      <point x="176" y="781"/>
      <point x="187" y="792" type="curve" smooth="yes"/>
      <point x="198" y="803"/>
      <point x="211" y="813"/>
      <point x="223" y="813" type="curve" smooth="yes"/>
      <point x="233" y="813"/>
      <point x="249" y="802"/>
      <point x="289" y="774" type="curve" smooth="yes"/>
      <point x="335" y="742"/>
      <point x="380" y="717"/>
      <point x="438" y="717" type="curve" smooth="yes"/>
      <point x="532" y="717"/>
      <point x="591" y="784"/>
      <point x="591" y="864" type="curve" smooth="yes"/>
      <point x="591" y="953"/>
      <point x="511" y="998"/>
      <point x="457" y="998" type="curve" smooth="yes"/>
      <point x="414" y="998"/>
      <point x="402" y="967"/>
      <point x="403" y="922" type="curve"/>
      <point x="460" y="933"/>
      <point x="524" y="905"/>
      <point x="524" y="851" type="curve" smooth="yes"/>
      <point x="524" y="812"/>
      <point x="491" y="786"/>
      <point x="447" y="786" type="curve" smooth="yes"/>
      <point x="407" y="786"/>
      <point x="371" y="807"/>
      <point x="320" y="842" type="curve" smooth="yes"/>
      <point x="270" y="876"/>
      <point x="248" y="900"/>
      <point x="232" y="900" type="curve" smooth="yes"/>
      <point x="212" y="900"/>
      <point x="171" y="864"/>
      <point x="134" y="828" type="curve" smooth="yes"/>
      <point x="95" y="791"/>
      <point x="76" y="768"/>
      <point x="76" y="744" type="curve" smooth="yes"/>
      <point x="76" y="714"/>
      <point x="104" y="672"/>
    </contour>
  </outline>
</glyph>
<glyph name="uni17AB" format="2">
  <advance width="720"/>
  <unicode hex="17AB"/>
  <note>
uni17AB
</note>
  <anchor x="338" y="760" name="abvm"/>
  <anchor x="341" y="0" name="blwm"/>
  <outline>
    <contour>
      <point x="563" y="379" type="line"/>
      <point x="471" y="379" type="line"/>
      <point x="471" y="146" type="line" smooth="yes"/>
      <point x="471" y="108"/>
      <point x="414" y="67"/>
      <point x="341" y="67" type="curve" smooth="yes"/>
      <point x="271" y="67"/>
      <point x="211" y="106"/>
      <point x="211" y="146" type="curve" smooth="yes"/>
      <point x="211" y="379" type="line"/>
      <point x="119" y="379" type="line"/>
      <point x="119" y="146" type="line" smooth="yes"/>
      <point x="119" y="72"/>
      <point x="219" y="0"/>
      <point x="341" y="0" type="curve" smooth="yes"/>
      <point x="461" y="0"/>
      <point x="563" y="70"/>
      <point x="563" y="146" type="curve" smooth="yes"/>
    </contour>
    <contour>
      <point x="211" y="350" type="line"/>
      <point x="211" y="447" type="line"/>
      <point x="106" y="532" type="line"/>
      <point x="149" y="590" type="line"/>
      <point x="184" y="565"/>
      <point x="206" y="557"/>
      <point x="223" y="557" type="curve" smooth="yes"/>
      <point x="262" y="557"/>
      <point x="287" y="596"/>
      <point x="287" y="629" type="curve"/>
      <point x="236" y="625"/>
      <point x="213" y="638"/>
      <point x="149" y="680" type="curve"/>
      <point x="56" y="552"/>
      <point x="34" y="534"/>
      <point x="34" y="514" type="curve" smooth="yes"/>
      <point x="34" y="499"/>
      <point x="46" y="484"/>
      <point x="119" y="424" type="curve"/>
      <point x="119" y="350" type="line"/>
    </contour>
    <contour>
      <point x="563" y="350" type="line"/>
      <point x="563" y="447" type="line"/>
      <point x="458" y="532" type="line"/>
      <point x="501" y="590" type="line"/>
      <point x="536" y="565"/>
      <point x="558" y="557"/>
      <point x="575" y="557" type="curve" smooth="yes"/>
      <point x="614" y="557"/>
      <point x="639" y="596"/>
      <point x="639" y="629" type="curve"/>
      <point x="588" y="625"/>
      <point x="565" y="638"/>
      <point x="501" y="680" type="curve"/>
      <point x="408" y="552"/>
      <point x="386" y="534"/>
      <point x="386" y="514" type="curve" smooth="yes"/>
      <point x="386" y="499"/>
      <point x="398" y="484"/>
      <point x="471" y="424" type="curve"/>
      <point x="471" y="350" type="line"/>
    </contour>
    <contour>
      <point x="593" y="-124" type="curve" smooth="yes"/>
      <point x="593" y="-74"/>
      <point x="565" y="-41"/>
      <point x="522" y="-41" type="curve" smooth="yes"/>
      <point x="484" y="-41"/>
      <point x="470" y="-67"/>
      <point x="470" y="-100" type="curve"/>
      <point x="500" y="-100"/>
      <point x="519" y="-116"/>
      <point x="519" y="-145" type="curve" smooth="yes"/>
      <point x="519" y="-200"/>
      <point x="454" y="-220"/>
      <point x="387" y="-220" type="curve" smooth="yes"/>
      <point x="276" y="-220"/>
      <point x="189" y="-158"/>
      <point x="153" y="-126" type="curve"/>
      <point x="122" y="-126" type="line"/>
      <point x="158" y="-175"/>
      <point x="241" y="-269"/>
      <point x="387" y="-269" type="curve" smooth="yes"/>
      <point x="503" y="-269"/>
      <point x="593" y="-219"/>
    </contour>
  </outline>
</glyph>
<glyph name="uni17AC" format="2">
  <advance width="720"/>
  <unicode hex="17AC"/>
  <note>
uni17AC
</note>
  <anchor x="338" y="760" name="abvm"/>
  <anchor x="341" y="0" name="blwm"/>
  <outline>
    <contour>
      <point x="563" y="379" type="line"/>
      <point x="471" y="379" type="line"/>
      <point x="471" y="146" type="line" smooth="yes"/>
      <point x="471" y="108"/>
      <point x="414" y="67"/>
      <point x="341" y="67" type="curve" smooth="yes"/>
      <point x="271" y="67"/>
      <point x="211" y="106"/>
      <point x="211" y="146" type="curve" smooth="yes"/>
      <point x="211" y="379" type="line"/>
      <point x="119" y="379" type="line"/>
      <point x="119" y="146" type="line" smooth="yes"/>
      <point x="119" y="72"/>
      <point x="219" y="0"/>
      <point x="341" y="0" type="curve" smooth="yes"/>
      <point x="461" y="0"/>
      <point x="563" y="70"/>
      <point x="563" y="146" type="curve" smooth="yes"/>
    </contour>
    <contour>
      <point x="211" y="350" type="line"/>
      <point x="211" y="447" type="line"/>
      <point x="106" y="532" type="line"/>
      <point x="149" y="590" type="line"/>
      <point x="184" y="565"/>
      <point x="206" y="557"/>
      <point x="223" y="557" type="curve" smooth="yes"/>
      <point x="262" y="557"/>
      <point x="287" y="596"/>
      <point x="287" y="629" type="curve"/>
      <point x="236" y="625"/>
      <point x="213" y="638"/>
      <point x="149" y="680" type="curve"/>
      <point x="56" y="552"/>
      <point x="34" y="534"/>
      <point x="34" y="514" type="curve" smooth="yes"/>
      <point x="34" y="499"/>
      <point x="46" y="484"/>
      <point x="119" y="424" type="curve"/>
      <point x="119" y="350" type="line"/>
    </contour>
    <contour>
      <point x="563" y="350" type="line"/>
      <point x="563" y="447" type="line"/>
      <point x="458" y="532" type="line"/>
      <point x="501" y="590" type="line"/>
      <point x="536" y="565"/>
      <point x="558" y="557"/>
      <point x="575" y="557" type="curve" smooth="yes"/>
      <point x="614" y="557"/>
      <point x="639" y="596"/>
      <point x="639" y="629" type="curve"/>
      <point x="588" y="625"/>
      <point x="565" y="638"/>
      <point x="501" y="680" type="curve"/>
      <point x="408" y="552"/>
      <point x="386" y="534"/>
      <point x="386" y="514" type="curve" smooth="yes"/>
      <point x="386" y="499"/>
      <point x="398" y="484"/>
      <point x="471" y="424" type="curve"/>
      <point x="471" y="350" type="line"/>
    </contour>
    <contour>
      <point x="491" y="-238" type="line"/>
      <point x="508" y="-258"/>
      <point x="534" y="-269"/>
      <point x="576" y="-269" type="curve" smooth="yes"/>
      <point x="629" y="-269"/>
      <point x="653" y="-252"/>
      <point x="653" y="-220" type="curve"/>
      <point x="600" y="-220"/>
      <point x="569" y="-208"/>
      <point x="563" y="-183" type="curve"/>
    </contour>
    <contour>
      <point x="579" y="-124" type="curve" smooth="yes"/>
      <point x="579" y="-74"/>
      <point x="551" y="-41"/>
      <point x="508" y="-41" type="curve" smooth="yes"/>
      <point x="470" y="-41"/>
      <point x="456" y="-67"/>
      <point x="456" y="-100" type="curve"/>
      <point x="486" y="-100"/>
      <point x="505" y="-116"/>
      <point x="505" y="-145" type="curve" smooth="yes"/>
      <point x="505" y="-200"/>
      <point x="440" y="-220"/>
      <point x="373" y="-220" type="curve" smooth="yes"/>
      <point x="262" y="-220"/>
      <point x="175" y="-158"/>
      <point x="139" y="-126" type="curve"/>
      <point x="108" y="-126" type="line"/>
      <point x="144" y="-175"/>
      <point x="227" y="-269"/>
      <point x="373" y="-269" type="curve" smooth="yes"/>
      <point x="489" y="-269"/>
      <point x="579" y="-219"/>
    </contour>
  </outline>
</glyph>
<glyph name="uni17AD" format="2">
  <advance width="683"/>
  <unicode hex="17AD"/>
  <note>
uni17AD
</note>
  <anchor x="302" y="760" name="abvm"/>
  <anchor x="335" y="0" name="blwm"/>
  <outline>
    <contour>
      <point x="103" y="305" type="line"/>
      <point x="195" y="305" type="line"/>
      <point x="195" y="499" type="line"/>
      <point x="166" y="526"/>
      <point x="149" y="547"/>
      <point x="149" y="558" type="curve" smooth="yes"/>
      <point x="149" y="563"/>
      <point x="153" y="570"/>
      <point x="161" y="577" type="curve" smooth="yes"/>
      <point x="168" y="583"/>
      <point x="176" y="588"/>
      <point x="184" y="588" type="curve" smooth="yes"/>
      <point x="213" y="588"/>
      <point x="249" y="518"/>
      <point x="297" y="518" type="curve" smooth="yes"/>
      <point x="346" y="518"/>
      <point x="380" y="591"/>
      <point x="417" y="591" type="curve" smooth="yes"/>
      <point x="442" y="591"/>
      <point x="475" y="557"/>
      <point x="475" y="521" type="curve" smooth="yes"/>
      <point x="475" y="0" type="line"/>
      <point x="567" y="0" type="line"/>
      <point x="567" y="521" type="line" smooth="yes"/>
      <point x="567" y="598"/>
      <point x="492" y="682"/>
      <point x="431" y="682" type="curve" smooth="yes"/>
      <point x="409" y="682"/>
      <point x="393" y="667"/>
      <point x="368" y="644" type="curve" smooth="yes"/>
      <point x="344" y="621"/>
      <point x="324" y="602"/>
      <point x="320" y="602" type="curve" smooth="yes"/>
      <point x="318" y="602"/>
      <point x="300" y="618"/>
      <point x="276" y="639" type="curve" smooth="yes"/>
      <point x="244" y="667"/>
      <point x="222" y="682"/>
      <point x="206" y="682" type="curve" smooth="yes"/>
      <point x="185" y="682"/>
      <point x="148" y="657"/>
      <point x="117" y="629" type="curve" smooth="yes"/>
      <point x="80" y="594"/>
      <point x="54" y="557"/>
      <point x="54" y="542" type="curve" smooth="yes"/>
      <point x="54" y="529"/>
      <point x="70" y="503"/>
      <point x="103" y="469" type="curve"/>
    </contour>
    <contour>
      <point x="103" y="316" type="line"/>
      <point x="103" y="0" type="line"/>
      <point x="195" y="0" type="line"/>
      <point x="293" y="59"/>
      <point x="306" y="115"/>
      <point x="306" y="151" type="curve" smooth="yes"/>
      <point x="306" y="211"/>
      <point x="270" y="250"/>
      <point x="195" y="246" type="curve"/>
      <point x="195" y="316" type="line"/>
    </contour>
    <contour>
      <point x="195" y="181" type="line"/>
      <point x="218" y="181"/>
      <point x="235" y="175"/>
      <point x="235" y="150" type="curve" smooth="yes"/>
      <point x="235" y="127"/>
      <point x="221" y="105"/>
      <point x="195" y="89" type="curve"/>
    </contour>
    <contour>
      <point x="593" y="-124" type="curve" smooth="yes"/>
      <point x="593" y="-74"/>
      <point x="565" y="-41"/>
      <point x="522" y="-41" type="curve" smooth="yes"/>
      <point x="484" y="-41"/>
      <point x="470" y="-67"/>
      <point x="470" y="-100" type="curve"/>
      <point x="500" y="-100"/>
      <point x="519" y="-116"/>
      <point x="519" y="-145" type="curve" smooth="yes"/>
      <point x="519" y="-200"/>
      <point x="454" y="-220"/>
      <point x="387" y="-220" type="curve" smooth="yes"/>
      <point x="276" y="-220"/>
      <point x="189" y="-158"/>
      <point x="153" y="-126" type="curve"/>
      <point x="122" y="-126" type="line"/>
      <point x="158" y="-175"/>
      <point x="241" y="-269"/>
      <point x="387" y="-269" type="curve" smooth="yes"/>
      <point x="503" y="-269"/>
      <point x="593" y="-219"/>
    </contour>
  </outline>
</glyph>
<glyph name="uni17AE" format="2">
  <advance width="688"/>
  <unicode hex="17AE"/>
  <note>
uni17AE
</note>
  <anchor x="302" y="760" name="abvm"/>
  <anchor x="335" y="0" name="blwm"/>
  <outline>
    <contour>
      <point x="103" y="305" type="line"/>
      <point x="195" y="305" type="line"/>
      <point x="195" y="499" type="line"/>
      <point x="166" y="526"/>
      <point x="149" y="547"/>
      <point x="149" y="558" type="curve" smooth="yes"/>
      <point x="149" y="563"/>
      <point x="153" y="570"/>
      <point x="161" y="577" type="curve" smooth="yes"/>
      <point x="168" y="583"/>
      <point x="176" y="588"/>
      <point x="184" y="588" type="curve" smooth="yes"/>
      <point x="213" y="588"/>
      <point x="249" y="518"/>
      <point x="297" y="518" type="curve" smooth="yes"/>
      <point x="346" y="518"/>
      <point x="380" y="591"/>
      <point x="417" y="591" type="curve" smooth="yes"/>
      <point x="442" y="591"/>
      <point x="475" y="557"/>
      <point x="475" y="521" type="curve" smooth="yes"/>
      <point x="475" y="0" type="line"/>
      <point x="567" y="0" type="line"/>
      <point x="567" y="521" type="line" smooth="yes"/>
      <point x="567" y="598"/>
      <point x="492" y="682"/>
      <point x="431" y="682" type="curve" smooth="yes"/>
      <point x="409" y="682"/>
      <point x="393" y="667"/>
      <point x="368" y="644" type="curve" smooth="yes"/>
      <point x="344" y="621"/>
      <point x="324" y="602"/>
      <point x="320" y="602" type="curve" smooth="yes"/>
      <point x="318" y="602"/>
      <point x="300" y="618"/>
      <point x="276" y="639" type="curve" smooth="yes"/>
      <point x="244" y="667"/>
      <point x="222" y="682"/>
      <point x="206" y="682" type="curve" smooth="yes"/>
      <point x="185" y="682"/>
      <point x="148" y="657"/>
      <point x="117" y="629" type="curve" smooth="yes"/>
      <point x="80" y="594"/>
      <point x="54" y="557"/>
      <point x="54" y="542" type="curve" smooth="yes"/>
      <point x="54" y="529"/>
      <point x="70" y="503"/>
      <point x="103" y="469" type="curve"/>
    </contour>
    <contour>
      <point x="103" y="316" type="line"/>
      <point x="103" y="0" type="line"/>
      <point x="195" y="0" type="line"/>
      <point x="293" y="59"/>
      <point x="306" y="115"/>
      <point x="306" y="151" type="curve" smooth="yes"/>
      <point x="306" y="211"/>
      <point x="270" y="250"/>
      <point x="195" y="246" type="curve"/>
      <point x="195" y="316" type="line"/>
    </contour>
    <contour>
      <point x="195" y="181" type="line"/>
      <point x="218" y="181"/>
      <point x="235" y="175"/>
      <point x="235" y="150" type="curve" smooth="yes"/>
      <point x="235" y="127"/>
      <point x="221" y="105"/>
      <point x="195" y="89" type="curve"/>
    </contour>
    <contour>
      <point x="486" y="-238" type="line"/>
      <point x="503" y="-258"/>
      <point x="529" y="-269"/>
      <point x="571" y="-269" type="curve" smooth="yes"/>
      <point x="624" y="-269"/>
      <point x="648" y="-252"/>
      <point x="648" y="-220" type="curve"/>
      <point x="595" y="-220"/>
      <point x="564" y="-208"/>
      <point x="558" y="-183" type="curve"/>
    </contour>
    <contour>
      <point x="574" y="-124" type="curve" smooth="yes"/>
      <point x="574" y="-74"/>
      <point x="546" y="-41"/>
      <point x="503" y="-41" type="curve" smooth="yes"/>
      <point x="465" y="-41"/>
      <point x="451" y="-67"/>
      <point x="451" y="-100" type="curve"/>
      <point x="481" y="-100"/>
      <point x="500" y="-116"/>
      <point x="500" y="-145" type="curve" smooth="yes"/>
      <point x="500" y="-200"/>
      <point x="435" y="-220"/>
      <point x="368" y="-220" type="curve" smooth="yes"/>
      <point x="257" y="-220"/>
      <point x="170" y="-158"/>
      <point x="134" y="-126" type="curve"/>
      <point x="103" y="-126" type="line"/>
      <point x="139" y="-175"/>
      <point x="222" y="-269"/>
      <point x="368" y="-269" type="curve" smooth="yes"/>
      <point x="484" y="-269"/>
      <point x="574" y="-219"/>
    </contour>
  </outline>
</glyph>
<glyph name="uni17AF" format="2">
  <advance width="708"/>
  <unicode hex="17AF"/>
  <note>
uni17AF
</note>
  <outline>
    <contour>
      <point x="214" y="252" type="line"/>
      <point x="122" y="252" type="line"/>
      <point x="122" y="0" type="line"/>
      <point x="214" y="0" type="line"/>
      <point x="354" y="115" type="line"/>
      <point x="494" y="0" type="line"/>
      <point x="586" y="0" type="line"/>
      <point x="586" y="514" type="line" smooth="yes"/>
      <point x="586" y="550"/>
      <point x="570" y="577"/>
      <point x="540" y="598" type="curve" smooth="yes"/>
      <point x="440" y="668" type="line" smooth="yes"/>
      <point x="400" y="696"/>
      <point x="373" y="702"/>
      <point x="350" y="702" type="curve" smooth="yes"/>
      <point x="304" y="702"/>
      <point x="275" y="678"/>
      <point x="214" y="613" type="curve"/>
      <point x="211" y="688"/>
      <point x="231" y="696"/>
      <point x="231" y="754" type="curve" smooth="yes"/>
      <point x="231" y="828"/>
      <point x="198" y="849"/>
      <point x="162" y="849" type="curve" smooth="yes"/>
      <point x="123" y="849"/>
      <point x="98" y="823"/>
      <point x="98" y="790" type="curve"/>
      <point x="130" y="782"/>
      <point x="146" y="770"/>
      <point x="146" y="736" type="curve" smooth="yes"/>
      <point x="146" y="693"/>
      <point x="122" y="680"/>
      <point x="122" y="628" type="curve" smooth="yes"/>
      <point x="122" y="568"/>
      <point x="154" y="527"/>
      <point x="194" y="527" type="curve" smooth="yes"/>
      <point x="252" y="527"/>
      <point x="280" y="616"/>
      <point x="336" y="616" type="curve" smooth="yes"/>
      <point x="358" y="616"/>
      <point x="383" y="602"/>
      <point x="494" y="519" type="curve"/>
      <point x="494" y="91" type="line"/>
      <point x="354" y="207" type="line"/>
      <point x="214" y="91" type="line"/>
    </contour>
    <contour>
      <point x="214" y="176" type="line"/>
      <point x="214" y="385" type="line" smooth="yes"/>
      <point x="214" y="418"/>
      <point x="194" y="438"/>
      <point x="147" y="438" type="curve" smooth="yes"/>
      <point x="75" y="438"/>
      <point x="12" y="391"/>
      <point x="12" y="319" type="curve" smooth="yes"/>
      <point x="12" y="256"/>
      <point x="64" y="218"/>
      <point x="122" y="218" type="curve"/>
      <point x="122" y="176" type="line"/>
    </contour>
    <contour>
      <point x="122" y="285" type="line"/>
      <point x="101" y="285"/>
      <point x="77" y="297"/>
      <point x="77" y="327" type="curve" smooth="yes"/>
      <point x="77" y="357"/>
      <point x="100" y="376"/>
      <point x="122" y="376" type="curve"/>
    </contour>
  </outline>
</glyph>
<glyph name="uni17B0" format="2">
  <advance width="657"/>
  <unicode hex="17B0"/>
  <note>
uni17B0
</note>
  <anchor x="302" y="760" name="abvm"/>
  <anchor x="395" y="-245" name="blwm"/>
  <outline>
    <contour>
      <point x="475" y="27" type="line"/>
      <point x="475" y="-32" type="line"/>
      <point x="567" y="-67" type="line"/>
      <point x="567" y="27" type="line"/>
    </contour>
    <contour>
      <point x="103" y="305" type="line"/>
      <point x="195" y="305" type="line"/>
      <point x="195" y="499" type="line"/>
      <point x="166" y="526"/>
      <point x="149" y="547"/>
      <point x="149" y="558" type="curve" smooth="yes"/>
      <point x="149" y="563"/>
      <point x="153" y="570"/>
      <point x="161" y="577" type="curve" smooth="yes"/>
      <point x="168" y="583"/>
      <point x="176" y="588"/>
      <point x="184" y="588" type="curve" smooth="yes"/>
      <point x="213" y="588"/>
      <point x="249" y="518"/>
      <point x="297" y="518" type="curve" smooth="yes"/>
      <point x="346" y="518"/>
      <point x="380" y="591"/>
      <point x="417" y="591" type="curve" smooth="yes"/>
      <point x="442" y="591"/>
      <point x="475" y="557"/>
      <point x="475" y="521" type="curve" smooth="yes"/>
      <point x="475" y="0" type="line"/>
      <point x="567" y="0" type="line"/>
      <point x="567" y="521" type="line" smooth="yes"/>
      <point x="567" y="598"/>
      <point x="492" y="682"/>
      <point x="431" y="682" type="curve" smooth="yes"/>
      <point x="409" y="682"/>
      <point x="393" y="667"/>
      <point x="368" y="644" type="curve" smooth="yes"/>
      <point x="344" y="621"/>
      <point x="324" y="602"/>
      <point x="320" y="602" type="curve" smooth="yes"/>
      <point x="318" y="602"/>
      <point x="300" y="618"/>
      <point x="276" y="639" type="curve" smooth="yes"/>
      <point x="244" y="667"/>
      <point x="222" y="682"/>
      <point x="206" y="682" type="curve" smooth="yes"/>
      <point x="185" y="682"/>
      <point x="148" y="657"/>
      <point x="117" y="629" type="curve" smooth="yes"/>
      <point x="80" y="594"/>
      <point x="54" y="557"/>
      <point x="54" y="542" type="curve" smooth="yes"/>
      <point x="54" y="529"/>
      <point x="70" y="503"/>
      <point x="103" y="469" type="curve"/>
    </contour>
    <contour>
      <point x="103" y="316" type="line"/>
      <point x="103" y="0" type="line"/>
      <point x="195" y="0" type="line"/>
      <point x="293" y="59"/>
      <point x="306" y="115"/>
      <point x="306" y="151" type="curve" smooth="yes"/>
      <point x="306" y="211"/>
      <point x="270" y="250"/>
      <point x="195" y="246" type="curve"/>
      <point x="195" y="316" type="line"/>
    </contour>
    <contour>
      <point x="195" y="181" type="line"/>
      <point x="218" y="181"/>
      <point x="235" y="175"/>
      <point x="235" y="150" type="curve" smooth="yes"/>
      <point x="235" y="127"/>
      <point x="221" y="105"/>
      <point x="195" y="89" type="curve"/>
    </contour>
    <contour>
      <point x="166" y="-174" type="curve" smooth="yes"/>
      <point x="166" y="-213"/>
      <point x="198" y="-263"/>
      <point x="270" y="-263" type="curve" smooth="yes"/>
      <point x="354" y="-263"/>
      <point x="395" y="-197"/>
      <point x="395" y="-99" type="curve"/>
      <point x="342" y="-135" type="line"/>
      <point x="342" y="-174"/>
      <point x="314" y="-206"/>
      <point x="279" y="-206" type="curve" smooth="yes"/>
      <point x="254" y="-206"/>
      <point x="240" y="-189"/>
      <point x="240" y="-173" type="curve"/>
      <point x="274" y="-164"/>
      <point x="317" y="-150"/>
      <point x="355" y="-132" type="curve" smooth="yes"/>
      <point x="411" y="-105"/>
      <point x="480" y="-57"/>
      <point x="480" y="-18" type="curve" smooth="yes"/>
      <point x="480" y="-1"/>
      <point x="467" y="12"/>
      <point x="444" y="12" type="curve" smooth="yes"/>
      <point x="424" y="12"/>
      <point x="412" y="2"/>
      <point x="406" y="-8" type="curve"/>
      <point x="412" y="-14"/>
      <point x="414" y="-19"/>
      <point x="414" y="-24" type="curve" smooth="yes"/>
      <point x="414" y="-63"/>
      <point x="290" y="-111"/>
      <point x="198" y="-126" type="curve" smooth="yes"/>
      <point x="174" y="-130"/>
      <point x="166" y="-154"/>
    </contour>
    <contour>
      <point x="341" y="-123" type="line"/>
      <point x="347" y="-136"/>
      <point x="373" y="-192"/>
      <point x="446" y="-192" type="curve" smooth="yes"/>
      <point x="517" y="-192"/>
      <point x="567" y="-139"/>
      <point x="567" y="-68" type="curve" smooth="yes"/>
      <point x="567" y="-40"/>
      <point x="559" y="-5"/>
      <point x="520" y="-5" type="curve" smooth="yes"/>
      <point x="499" y="-5"/>
      <point x="484" y="-15"/>
      <point x="472" y="-34" type="curve"/>
      <point x="485" y="-40"/>
      <point x="493" y="-54"/>
      <point x="493" y="-74" type="curve" smooth="yes"/>
      <point x="493" y="-101"/>
      <point x="478" y="-144"/>
      <point x="440" y="-144" type="curve" smooth="yes"/>
      <point x="413" y="-144"/>
      <point x="395" y="-122"/>
      <point x="393" y="-94" type="curve"/>
    </contour>
  </outline>
</glyph>
<glyph name="uni17B1" format="2">
  <advance width="668"/>
  <unicode hex="17B1"/>
  <note>
uni17B1
</note>
  <anchor x="320" y="1029" name="abvm"/>
  <anchor x="334" y="-49" name="blwm"/>
  <outline>
    <contour>
      <point x="108" y="513" type="line"/>
      <point x="200" y="513" type="line"/>
      <point x="200" y="536" type="line" smooth="yes"/>
      <point x="200" y="577"/>
      <point x="259" y="615"/>
      <point x="341" y="615" type="curve" smooth="yes"/>
      <point x="418" y="615"/>
      <point x="480" y="578"/>
      <point x="480" y="536" type="curve" smooth="yes"/>
      <point x="480" y="463" type="line" smooth="yes"/>
      <point x="480" y="428"/>
      <point x="434" y="386"/>
      <point x="340" y="338" type="curve" smooth="yes"/>
      <point x="108" y="219" type="line"/>
      <point x="108" y="122" type="line" smooth="yes"/>
      <point x="108" y="36"/>
      <point x="159" y="0"/>
      <point x="224" y="0" type="curve" smooth="yes"/>
      <point x="291" y="0"/>
      <point x="330" y="39"/>
      <point x="396" y="87" type="curve" smooth="yes"/>
      <point x="449" y="125"/>
      <point x="465" y="130"/>
      <point x="480" y="130" type="curve"/>
      <point x="480" y="49" type="line" smooth="yes"/>
      <point x="480" y="31"/>
      <point x="472" y="13"/>
      <point x="450" y="-4" type="curve"/>
      <point x="450" y="-27"/>
      <point x="472" y="-49"/>
      <point x="506" y="-49" type="curve" smooth="yes"/>
      <point x="543" y="-49"/>
      <point x="572" y="-24"/>
      <point x="572" y="24" type="curve" smooth="yes"/>
      <point x="572" y="279" type="line"/>
      <point x="480" y="235" type="line"/>
      <point x="480" y="200" type="line"/>
      <point x="419" y="195"/>
      <point x="370" y="152"/>
      <point x="297" y="91" type="curve" smooth="yes"/>
      <point x="280" y="77"/>
      <point x="263" y="70"/>
      <point x="245" y="70" type="curve" smooth="yes"/>
      <point x="217" y="70"/>
      <point x="200" y="87"/>
      <point x="200" y="122" type="curve" smooth="yes"/>
      <point x="200" y="187" type="line"/>
      <point x="386" y="282" type="line" smooth="yes"/>
      <point x="510" y="345"/>
      <point x="572" y="407"/>
      <point x="572" y="463" type="curve" smooth="yes"/>
      <point x="572" y="536" type="line" smooth="yes"/>
      <point x="572" y="612"/>
      <point x="470" y="682"/>
      <point x="340" y="682" type="curve" smooth="yes"/>
      <point x="212" y="682"/>
      <point x="108" y="614"/>
      <point x="108" y="536" type="curve" smooth="yes"/>
    </contour>
    <contour>
      <point x="200" y="526" type="line"/>
      <point x="108" y="526" type="line"/>
      <point x="108" y="407" type="line" smooth="yes"/>
      <point x="108" y="374"/>
      <point x="136" y="355"/>
      <point x="186" y="355" type="curve" smooth="yes"/>
      <point x="245" y="355"/>
      <point x="282" y="382"/>
      <point x="282" y="436" type="curve" smooth="yes"/>
      <point x="282" y="487"/>
      <point x="248" y="509"/>
      <point x="200" y="509" type="curve"/>
    </contour>
    <contour>
      <point x="200" y="470" type="line"/>
      <point x="220" y="470"/>
      <point x="233" y="459"/>
      <point x="233" y="435" type="curve" smooth="yes"/>
      <point x="233" y="411"/>
      <point x="220" y="396"/>
      <point x="200" y="396" type="curve"/>
    </contour>
    <contour>
      <point x="210" y="745" type="line"/>
      <point x="172" y="767"/>
      <point x="152" y="786"/>
      <point x="152" y="815" type="curve" smooth="yes"/>
      <point x="152" y="866"/>
      <point x="215" y="896"/>
      <point x="297" y="896" type="curve" smooth="yes"/>
      <point x="434" y="896"/>
      <point x="536" y="811"/>
      <point x="531" y="710" type="curve"/>
      <point x="572" y="723"/>
      <point x="592" y="759"/>
      <point x="592" y="795" type="curve" smooth="yes"/>
      <point x="592" y="889"/>
      <point x="454" y="961"/>
      <point x="313" y="961" type="curve" smooth="yes"/>
      <point x="187" y="961"/>
      <point x="73" y="904"/>
      <point x="73" y="808" type="curve" smooth="yes"/>
      <point x="73" y="763"/>
      <point x="98" y="728"/>
      <point x="147" y="701" type="curve"/>
    </contour>
  </outline>
</glyph>
<glyph name="uni17B2" format="2">
  <advance width="708"/>
  <unicode hex="17B2"/>
  <note>
uni17B2
</note>
  <outline>
    <contour>
      <point x="370" y="186" type="line"/>
      <point x="546" y="325"/>
      <point x="586" y="370"/>
      <point x="586" y="445" type="curve" smooth="yes"/>
      <point x="586" y="513"/>
      <point x="536" y="559"/>
      <point x="438" y="559" type="curve" smooth="yes"/>
      <point x="343" y="559"/>
      <point x="291" y="507"/>
      <point x="291" y="442" type="curve" smooth="yes"/>
      <point x="291" y="386"/>
      <point x="327" y="353"/>
      <point x="368" y="353" type="curve" smooth="yes"/>
      <point x="408" y="353"/>
      <point x="429" y="384"/>
      <point x="429" y="407" type="curve"/>
      <point x="389" y="407"/>
      <point x="366" y="425"/>
      <point x="366" y="448" type="curve" smooth="yes"/>
      <point x="366" y="477"/>
      <point x="401" y="493"/>
      <point x="436" y="493" type="curve" smooth="yes"/>
      <point x="467" y="493"/>
      <point x="505" y="480"/>
      <point x="505" y="435" type="curve" smooth="yes"/>
      <point x="505" y="387"/>
      <point x="462" y="335"/>
      <point x="323" y="234" type="curve"/>
    </contour>
    <contour>
      <point x="506" y="304" type="curve"/>
      <point x="457" y="262" type="line"/>
      <point x="484" y="257"/>
      <point x="494" y="239"/>
      <point x="494" y="190" type="curve" smooth="yes"/>
      <point x="494" y="146" type="line" smooth="yes"/>
      <point x="494" y="106"/>
      <point x="434" y="67"/>
      <point x="354" y="67" type="curve" smooth="yes"/>
      <point x="276" y="67"/>
      <point x="214" y="104"/>
      <point x="214" y="146" type="curve" smooth="yes"/>
      <point x="214" y="586" type="line" smooth="yes"/>
      <point x="214" y="626"/>
      <point x="267" y="662"/>
      <point x="357" y="662" type="curve" smooth="yes"/>
      <point x="437" y="662"/>
      <point x="484" y="633"/>
      <point x="494" y="614" type="curve"/>
      <point x="586" y="635" type="line"/>
      <point x="562" y="682"/>
      <point x="470" y="729"/>
      <point x="357" y="729" type="curve" smooth="yes"/>
      <point x="230" y="729"/>
      <point x="122" y="663"/>
      <point x="122" y="586" type="curve" smooth="yes"/>
      <point x="122" y="146" type="line" smooth="yes"/>
      <point x="122" y="70"/>
      <point x="224" y="0"/>
      <point x="354" y="0" type="curve" smooth="yes"/>
      <point x="481" y="0"/>
      <point x="586" y="68"/>
      <point x="586" y="146" type="curve" smooth="yes"/>
      <point x="586" y="190" type="line" smooth="yes"/>
      <point x="586" y="259"/>
      <point x="553" y="291"/>
    </contour>
  </outline>
</glyph>
<glyph name="uni17B3" format="2">
  <advance width="708"/>
  <unicode hex="17B3"/>
  <note>
uni17B3
</note>
  <anchor x="343" y="1069" name="abvm"/>
  <anchor x="348" y="-49" name="blwm"/>
  <outline>
    <contour>
      <point x="122" y="513" type="line"/>
      <point x="214" y="513" type="line"/>
      <point x="214" y="536" type="line" smooth="yes"/>
      <point x="214" y="577"/>
      <point x="273" y="615"/>
      <point x="355" y="615" type="curve" smooth="yes"/>
      <point x="432" y="615"/>
      <point x="494" y="578"/>
      <point x="494" y="536" type="curve" smooth="yes"/>
      <point x="494" y="463" type="line" smooth="yes"/>
      <point x="494" y="428"/>
      <point x="448" y="386"/>
      <point x="354" y="338" type="curve" smooth="yes"/>
      <point x="122" y="219" type="line"/>
      <point x="122" y="122" type="line" smooth="yes"/>
      <point x="122" y="36"/>
      <point x="173" y="0"/>
      <point x="238" y="0" type="curve" smooth="yes"/>
      <point x="305" y="0"/>
      <point x="344" y="39"/>
      <point x="410" y="87" type="curve" smooth="yes"/>
      <point x="463" y="125"/>
      <point x="479" y="130"/>
      <point x="494" y="130" type="curve"/>
      <point x="494" y="49" type="line" smooth="yes"/>
      <point x="494" y="31"/>
      <point x="486" y="13"/>
      <point x="464" y="-4" type="curve"/>
      <point x="464" y="-27"/>
      <point x="486" y="-49"/>
      <point x="520" y="-49" type="curve" smooth="yes"/>
      <point x="557" y="-49"/>
      <point x="586" y="-24"/>
      <point x="586" y="24" type="curve" smooth="yes"/>
      <point x="586" y="279" type="line"/>
      <point x="494" y="235" type="line"/>
      <point x="494" y="200" type="line"/>
      <point x="433" y="195"/>
      <point x="384" y="152"/>
      <point x="311" y="91" type="curve" smooth="yes"/>
      <point x="294" y="77"/>
      <point x="277" y="70"/>
      <point x="259" y="70" type="curve" smooth="yes"/>
      <point x="231" y="70"/>
      <point x="214" y="87"/>
      <point x="214" y="122" type="curve" smooth="yes"/>
      <point x="214" y="187" type="line"/>
      <point x="400" y="282" type="line" smooth="yes"/>
      <point x="524" y="345"/>
      <point x="586" y="407"/>
      <point x="586" y="463" type="curve" smooth="yes"/>
      <point x="586" y="536" type="line" smooth="yes"/>
      <point x="586" y="612"/>
      <point x="484" y="682"/>
      <point x="354" y="682" type="curve" smooth="yes"/>
      <point x="226" y="682"/>
      <point x="122" y="614"/>
      <point x="122" y="536" type="curve" smooth="yes"/>
    </contour>
    <contour>
      <point x="214" y="526" type="line"/>
      <point x="122" y="526" type="line"/>
      <point x="122" y="407" type="line" smooth="yes"/>
      <point x="122" y="374"/>
      <point x="150" y="355"/>
      <point x="200" y="355" type="curve" smooth="yes"/>
      <point x="259" y="355"/>
      <point x="296" y="382"/>
      <point x="296" y="436" type="curve" smooth="yes"/>
      <point x="296" y="487"/>
      <point x="262" y="509"/>
      <point x="214" y="509" type="curve"/>
    </contour>
    <contour>
      <point x="214" y="470" type="line"/>
      <point x="234" y="470"/>
      <point x="247" y="459"/>
      <point x="247" y="435" type="curve" smooth="yes"/>
      <point x="247" y="411"/>
      <point x="234" y="396"/>
      <point x="214" y="396" type="curve"/>
    </contour>
    <contour>
      <point x="612" y="857" type="curve" smooth="yes"/>
      <point x="612" y="986"/>
      <point x="559" y="1078"/>
      <point x="504" y="1078" type="curve" smooth="yes"/>
      <point x="468" y="1078"/>
      <point x="457" y="1036"/>
      <point x="457" y="1008" type="curve"/>
      <point x="506" y="1002"/>
      <point x="543" y="977"/>
      <point x="544" y="897" type="curve"/>
      <point x="491" y="936"/>
      <point x="409" y="961"/>
      <point x="327" y="961" type="curve" smooth="yes"/>
      <point x="201" y="961"/>
      <point x="87" y="904"/>
      <point x="87" y="808" type="curve" smooth="yes"/>
      <point x="87" y="763"/>
      <point x="112" y="728"/>
      <point x="161" y="701" type="curve"/>
      <point x="224" y="745" type="line"/>
      <point x="186" y="767"/>
      <point x="166" y="786"/>
      <point x="166" y="815" type="curve" smooth="yes"/>
      <point x="166" y="866"/>
      <point x="229" y="896"/>
      <point x="311" y="896" type="curve" smooth="yes"/>
      <point x="448" y="896"/>
      <point x="550" y="811"/>
      <point x="545" y="710" type="curve"/>
      <point x="597" y="727"/>
      <point x="612" y="786"/>
    </contour>
  </outline>
</glyph>
<glyph name="uni17B4" format="2">
  <advance width="371"/>
  <unicode hex="17B4"/>
  <anchor x="38" y="740" name="abvm_a"/>
  <anchor x="38" y="740" name="abvm_high"/>
  <anchor x="-6" y="0" name="blwm_a"/>
  <outline>
    <contour>
      <point x="-98" y="562" type="curve"/>
      <point x="-49" y="599"/>
      <point x="-33" y="607"/>
      <point x="-20" y="607" type="curve" smooth="yes"/>
      <point x="-8" y="607"/>
      <point x="6" y="600"/>
      <point x="23" y="586" type="curve" smooth="yes"/>
      <point x="122" y="507" type="line"/>
      <point x="122" y="0" type="line"/>
      <point x="214" y="0" type="line"/>
      <point x="214" y="501" type="line" smooth="yes"/>
      <point x="214" y="532"/>
      <point x="201" y="557"/>
      <point x="176" y="576" type="curve" smooth="yes"/>
      <point x="82" y="650" type="line" smooth="yes"/>
      <point x="54" y="672"/>
      <point x="25" y="682"/>
      <point x="-3" y="682" type="curve" smooth="yes"/>
      <point x="-33" y="682"/>
      <point x="-66" y="670"/>
      <point x="-94" y="651" type="curve" smooth="yes"/>
      <point x="-116" y="636"/>
      <point x="-125" y="623"/>
      <point x="-125" y="607" type="curve" smooth="yes"/>
      <point x="-125" y="592"/>
      <point x="-117" y="574"/>
    </contour>
    <contour>
      <point x="191" y="498" type="line"/>
      <point x="219" y="539"/>
      <point x="224" y="580"/>
      <point x="224" y="604" type="curve" smooth="yes"/>
      <point x="224" y="770" type="line" smooth="yes"/>
      <point x="224" y="835"/>
      <point x="213" y="878"/>
      <point x="159" y="878" type="curve" smooth="yes"/>
      <point x="119" y="878"/>
      <point x="93" y="852"/>
      <point x="93" y="819" type="curve"/>
      <point x="126" y="803"/>
      <point x="142" y="767"/>
      <point x="142" y="734" type="curve" smooth="yes"/>
      <point x="142" y="549" type="line"/>
    </contour>
  </outline>
</glyph>
<glyph name="uni17B6" format="2">
  <advance width="306"/>
  <unicode hex="17B6"/>
  <note>
uni17B6
</note>
  <anchor x="38" y="740" name="abvm_a"/>
  <anchor x="38" y="740" name="abvm_high"/>
  <anchor x="-6" y="0" name="blwm_a"/>
  <outline>
    <contour>
      <point x="-98" y="562" type="curve"/>
      <point x="-49" y="599"/>
      <point x="-33" y="607"/>
      <point x="-20" y="607" type="curve" smooth="yes"/>
      <point x="-8" y="607"/>
      <point x="6" y="600"/>
      <point x="23" y="586" type="curve" smooth="yes"/>
      <point x="122" y="507" type="line"/>
      <point x="122" y="0" type="line"/>
      <point x="214" y="0" type="line"/>
      <point x="214" y="501" type="line" smooth="yes"/>
      <point x="214" y="532"/>
      <point x="201" y="557"/>
      <point x="176" y="576" type="curve" smooth="yes"/>
      <point x="82" y="650" type="line" smooth="yes"/>
      <point x="54" y="672"/>
      <point x="25" y="682"/>
      <point x="-3" y="682" type="curve" smooth="yes"/>
      <point x="-33" y="682"/>
      <point x="-66" y="670"/>
      <point x="-94" y="651" type="curve" smooth="yes"/>
      <point x="-116" y="636"/>
      <point x="-125" y="623"/>
      <point x="-125" y="607" type="curve" smooth="yes"/>
      <point x="-125" y="592"/>
      <point x="-117" y="574"/>
    </contour>
  </outline>
</glyph>
<glyph name="uni17B8" format="2">
  <unicode hex="17B8"/>
  <note>
uni17B8
</note>
  <anchor x="-353" y="854" name="_abvm"/>
  <anchor x="-353" y="1150" name="abvm"/>
  <outline>
    <contour>
      <point x="-134" y="879" type="line"/>
      <point x="-134" y="1099" type="line"/>
      <point x="-201" y="1099" type="line"/>
      <point x="-201" y="879" type="line"/>
    </contour>
    <contour>
      <point x="-571" y="925" type="curve" smooth="yes"/>
      <point x="-571" y="876"/>
      <point x="-547" y="854"/>
      <point x="-500" y="854" type="curve" smooth="yes"/>
      <point x="-178" y="854" type="line" smooth="yes"/>
      <point x="-145" y="854"/>
      <point x="-134" y="864"/>
      <point x="-134" y="879" type="curve" smooth="yes"/>
      <point x="-134" y="896"/>
      <point x="-148" y="916"/>
      <point x="-182" y="946" type="curve" smooth="yes"/>
      <point x="-259" y="1014"/>
      <point x="-341" y="1050"/>
      <point x="-422" y="1050" type="curve" smooth="yes"/>
      <point x="-521" y="1050"/>
      <point x="-571" y="996"/>
    </contour>
    <contour>
      <point x="-500" y="917" type="line"/>
      <point x="-500" y="956"/>
      <point x="-481" y="986"/>
      <point x="-421" y="986" type="curve" smooth="yes"/>
      <point x="-373" y="986"/>
      <point x="-319" y="967"/>
      <point x="-256" y="917" type="curve"/>
    </contour>
  </outline>
</glyph>
<glyph name="uni17B9" format="2">
  <unicode hex="17B9"/>
  <note>
uni17B9
</note>
  <anchor x="-353" y="854" name="_abvm"/>
  <anchor x="-353" y="1134" name="abvm"/>
  <outline>
    <contour>
      <point x="-320" y="1013" type="curve"/>
      <point x="-153" y="912" type="line"/>
      <point x="-143" y="926"/>
      <point x="-124" y="956"/>
      <point x="-124" y="992" type="curve" smooth="yes"/>
      <point x="-124" y="1042"/>
      <point x="-163" y="1078"/>
      <point x="-216" y="1078" type="curve" smooth="yes"/>
      <point x="-263" y="1078"/>
      <point x="-302" y="1050"/>
    </contour>
    <contour>
      <point x="-264" y="996" type="line"/>
      <point x="-250" y="1012"/>
      <point x="-235" y="1021"/>
      <point x="-217" y="1021" type="curve" smooth="yes"/>
      <point x="-193" y="1021"/>
      <point x="-182" y="1006"/>
      <point x="-182" y="987" type="curve" smooth="yes"/>
      <point x="-182" y="974"/>
      <point x="-186" y="965"/>
      <point x="-193" y="954" type="curve"/>
    </contour>
    <contour>
      <point x="-571" y="925" type="curve" smooth="yes"/>
      <point x="-571" y="876"/>
      <point x="-547" y="854"/>
      <point x="-500" y="854" type="curve" smooth="yes"/>
      <point x="-178" y="854" type="line" smooth="yes"/>
      <point x="-145" y="854"/>
      <point x="-134" y="864"/>
      <point x="-134" y="879" type="curve" smooth="yes"/>
      <point x="-134" y="896"/>
      <point x="-148" y="916"/>
      <point x="-182" y="946" type="curve" smooth="yes"/>
      <point x="-259" y="1014"/>
      <point x="-341" y="1050"/>
      <point x="-422" y="1050" type="curve" smooth="yes"/>
      <point x="-521" y="1050"/>
      <point x="-571" y="996"/>
    </contour>
    <contour>
      <point x="-500" y="917" type="line"/>
      <point x="-500" y="956"/>
      <point x="-481" y="986"/>
      <point x="-421" y="986" type="curve" smooth="yes"/>
      <point x="-373" y="986"/>
      <point x="-319" y="967"/>
      <point x="-256" y="917" type="curve"/>
    </contour>
  </outline>
</glyph>
<glyph name="uni17BB" format="2">
  <unicode hex="17BB"/>
  <note>
uni17BB
</note>
  <anchor x="-197" y="16" name="_blwm"/>
  <outline>
    <contour>
      <point x="-192" y="-49" type="curve" smooth="yes"/>
      <point x="-225" y="-49"/>
      <point x="-243" y="-71"/>
      <point x="-243" y="-97" type="curve" smooth="yes"/>
      <point x="-243" y="-120"/>
      <point x="-230" y="-137"/>
      <point x="-212" y="-141" type="curve"/>
      <point x="-212" y="-267" type="line"/>
      <point x="-146" y="-267" type="line"/>
      <point x="-146" y="-98" type="line" smooth="yes"/>
      <point x="-146" y="-68"/>
      <point x="-162" y="-49"/>
    </contour>
  </outline>
</glyph>
<glyph name="uni17BC" format="2">
  <unicode hex="17BC"/>
  <note>
uni17BC
</note>
  <anchor x="-197" y="16" name="_blwm"/>
  <outline>
    <contour>
      <point x="-222" y="-273" type="curve" smooth="yes"/>
      <point x="-88" y="-273"/>
      <point x="-53" y="-125"/>
      <point x="-53" y="-85" type="curve" smooth="yes"/>
      <point x="-53" y="-58"/>
      <point x="-71" y="-49"/>
      <point x="-86" y="-49" type="curve" smooth="yes"/>
      <point x="-105" y="-49"/>
      <point x="-115" y="-63"/>
      <point x="-138" y="-117" type="curve" smooth="yes"/>
      <point x="-164" y="-179"/>
      <point x="-179" y="-209"/>
      <point x="-215" y="-209" type="curve" smooth="yes"/>
      <point x="-244" y="-209"/>
      <point x="-251" y="-189"/>
      <point x="-241" y="-160" type="curve" smooth="yes"/>
      <point x="-230" y="-128"/>
      <point x="-227" y="-114"/>
      <point x="-227" y="-100" type="curve" smooth="yes"/>
      <point x="-227" y="-66"/>
      <point x="-247" y="-49"/>
      <point x="-279" y="-49" type="curve" smooth="yes"/>
      <point x="-314" y="-49"/>
      <point x="-336" y="-70"/>
      <point x="-336" y="-96" type="curve" smooth="yes"/>
      <point x="-336" y="-117"/>
      <point x="-323" y="-130"/>
      <point x="-307" y="-130" type="curve"/>
      <point x="-310" y="-138" type="line" smooth="yes"/>
      <point x="-316" y="-155"/>
      <point x="-324" y="-183"/>
      <point x="-324" y="-203" type="curve" smooth="yes"/>
      <point x="-324" y="-248"/>
      <point x="-277" y="-273"/>
    </contour>
  </outline>
</glyph>
<glyph name="uni17BE" format="2">
  <unicode hex="17BE"/>
  <note>
uni17BE
</note>
  <anchor x="592" y="745" name="_abvm"/>
  <anchor x="629" y="645" name="abvm"/>
  <anchor x="629" y="45" name="blwm"/>
  <outline>
    <contour>
      <point x="811" y="770" type="line"/>
      <point x="811" y="990" type="line"/>
      <point x="744" y="990" type="line"/>
      <point x="744" y="770" type="line"/>
    </contour>
    <contour>
      <point x="374" y="816" type="curve" smooth="yes"/>
      <point x="374" y="767"/>
      <point x="398" y="745"/>
      <point x="445" y="745" type="curve" smooth="yes"/>
      <point x="767" y="745" type="line" smooth="yes"/>
      <point x="800" y="745"/>
      <point x="811" y="755"/>
      <point x="811" y="770" type="curve" smooth="yes"/>
      <point x="811" y="787"/>
      <point x="797" y="807"/>
      <point x="763" y="837" type="curve" smooth="yes"/>
      <point x="686" y="905"/>
      <point x="604" y="941"/>
      <point x="523" y="941" type="curve" smooth="yes"/>
      <point x="424" y="941"/>
      <point x="374" y="887"/>
    </contour>
    <contour>
      <point x="445" y="808" type="line"/>
      <point x="445" y="847"/>
      <point x="464" y="877"/>
      <point x="524" y="877" type="curve" smooth="yes"/>
      <point x="572" y="877"/>
      <point x="626" y="858"/>
      <point x="689" y="808" type="curve"/>
    </contour>
    <contour>
      <point x="105" y="284" type="line"/>
      <point x="197" y="284" type="line"/>
      <point x="197" y="409" type="line"/>
      <point x="105" y="409" type="line"/>
    </contour>
    <contour>
      <point x="197" y="350" type="line"/>
      <point x="197" y="447" type="line"/>
      <point x="92" y="532" type="line"/>
      <point x="135" y="590" type="line"/>
      <point x="170" y="565"/>
      <point x="192" y="557"/>
      <point x="209" y="557" type="curve" smooth="yes"/>
      <point x="248" y="557"/>
      <point x="273" y="596"/>
      <point x="273" y="629" type="curve"/>
      <point x="222" y="625"/>
      <point x="199" y="638"/>
      <point x="135" y="680" type="curve"/>
      <point x="42" y="552"/>
      <point x="20" y="534"/>
      <point x="20" y="514" type="curve" smooth="yes"/>
      <point x="20" y="499"/>
      <point x="32" y="484"/>
      <point x="105" y="424" type="curve"/>
      <point x="105" y="350" type="line"/>
    </contour>
    <contour>
      <point x="105" y="316" type="line"/>
      <point x="105" y="0" type="line"/>
      <point x="197" y="0" type="line"/>
      <point x="295" y="59"/>
      <point x="308" y="115"/>
      <point x="308" y="151" type="curve" smooth="yes"/>
      <point x="308" y="211"/>
      <point x="272" y="250"/>
      <point x="197" y="246" type="curve"/>
      <point x="197" y="316" type="line"/>
    </contour>
    <contour>
      <point x="197" y="181" type="line"/>
      <point x="220" y="181"/>
      <point x="237" y="175"/>
      <point x="237" y="150" type="curve" smooth="yes"/>
      <point x="237" y="127"/>
      <point x="223" y="105"/>
      <point x="197" y="89" type="curve"/>
    </contour>
    <contour>
      <point x="433" y="312" type="curve" smooth="yes"/>
      <point x="446" y="312"/>
      <point x="457" y="323"/>
      <point x="457" y="336" type="curve" smooth="yes"/>
      <point x="457" y="349"/>
      <point x="446" y="360"/>
      <point x="433" y="360" type="curve" smooth="yes"/>
      <point x="420" y="360"/>
      <point x="409" y="349"/>
      <point x="409" y="336" type="curve" smooth="yes"/>
      <point x="409" y="323"/>
      <point x="420" y="312"/>
    </contour>
    <contour>
      <point x="459" y="413" type="curve" smooth="yes"/>
      <point x="472" y="413"/>
      <point x="483" y="424"/>
      <point x="483" y="437" type="curve" smooth="yes"/>
      <point x="483" y="450"/>
      <point x="472" y="461"/>
      <point x="459" y="461" type="curve" smooth="yes"/>
      <point x="446" y="461"/>
      <point x="435" y="450"/>
      <point x="435" y="437" type="curve" smooth="yes"/>
      <point x="435" y="424"/>
      <point x="446" y="413"/>
    </contour>
    <contour>
      <point x="530" y="483" type="curve" smooth="yes"/>
      <point x="543" y="483"/>
      <point x="554" y="494"/>
      <point x="554" y="507" type="curve" smooth="yes"/>
      <point x="554" y="520"/>
      <point x="543" y="531"/>
      <point x="530" y="531" type="curve" smooth="yes"/>
      <point x="517" y="531"/>
      <point x="506" y="520"/>
      <point x="506" y="507" type="curve" smooth="yes"/>
      <point x="506" y="494"/>
      <point x="517" y="483"/>
    </contour>
    <contour>
      <point x="627" y="507" type="curve" smooth="yes"/>
      <point x="640" y="507"/>
      <point x="651" y="518"/>
      <point x="651" y="531" type="curve" smooth="yes"/>
      <point x="651" y="544"/>
      <point x="640" y="555"/>
      <point x="627" y="555" type="curve" smooth="yes"/>
      <point x="614" y="555"/>
      <point x="603" y="544"/>
      <point x="603" y="531" type="curve" smooth="yes"/>
      <point x="603" y="518"/>
      <point x="614" y="507"/>
    </contour>
    <contour>
      <point x="724" y="483" type="curve" smooth="yes"/>
      <point x="737" y="483"/>
      <point x="748" y="494"/>
      <point x="748" y="507" type="curve" smooth="yes"/>
      <point x="748" y="520"/>
      <point x="737" y="531"/>
      <point x="724" y="531" type="curve" smooth="yes"/>
      <point x="711" y="531"/>
      <point x="700" y="520"/>
      <point x="700" y="507" type="curve" smooth="yes"/>
      <point x="700" y="494"/>
      <point x="711" y="483"/>
    </contour>
    <contour>
      <point x="794" y="411" type="curve" smooth="yes"/>
      <point x="807" y="411"/>
      <point x="818" y="422"/>
      <point x="818" y="435" type="curve" smooth="yes"/>
      <point x="818" y="448"/>
      <point x="807" y="459"/>
      <point x="794" y="459" type="curve" smooth="yes"/>
      <point x="781" y="459"/>
      <point x="770" y="448"/>
      <point x="770" y="435" type="curve" smooth="yes"/>
      <point x="770" y="422"/>
      <point x="781" y="411"/>
    </contour>
    <contour>
      <point x="824" y="312" type="curve" smooth="yes"/>
      <point x="837" y="312"/>
      <point x="848" y="323"/>
      <point x="848" y="336" type="curve" smooth="yes"/>
      <point x="848" y="349"/>
      <point x="837" y="360"/>
      <point x="824" y="360" type="curve" smooth="yes"/>
      <point x="811" y="360"/>
      <point x="800" y="349"/>
      <point x="800" y="336" type="curve" smooth="yes"/>
      <point x="800" y="323"/>
      <point x="811" y="312"/>
    </contour>
    <contour>
      <point x="796" y="218" type="curve" smooth="yes"/>
      <point x="809" y="218"/>
      <point x="820" y="229"/>
      <point x="820" y="242" type="curve" smooth="yes"/>
      <point x="820" y="255"/>
      <point x="809" y="266"/>
      <point x="796" y="266" type="curve" smooth="yes"/>
      <point x="783" y="266"/>
      <point x="772" y="255"/>
      <point x="772" y="242" type="curve" smooth="yes"/>
      <point x="772" y="229"/>
      <point x="783" y="218"/>
    </contour>
    <contour>
      <point x="725" y="146" type="curve" smooth="yes"/>
      <point x="738" y="146"/>
      <point x="749" y="157"/>
      <point x="749" y="170" type="curve" smooth="yes"/>
      <point x="749" y="183"/>
      <point x="738" y="194"/>
      <point x="725" y="194" type="curve" smooth="yes"/>
      <point x="712" y="194"/>
      <point x="701" y="183"/>
      <point x="701" y="170" type="curve" smooth="yes"/>
      <point x="701" y="157"/>
      <point x="712" y="146"/>
    </contour>
    <contour>
      <point x="627" y="118" type="curve" smooth="yes"/>
      <point x="640" y="118"/>
      <point x="651" y="129"/>
      <point x="651" y="142" type="curve" smooth="yes"/>
      <point x="651" y="155"/>
      <point x="640" y="166"/>
      <point x="627" y="166" type="curve" smooth="yes"/>
      <point x="614" y="166"/>
      <point x="603" y="155"/>
      <point x="603" y="142" type="curve" smooth="yes"/>
      <point x="603" y="129"/>
      <point x="614" y="118"/>
    </contour>
    <contour>
      <point x="530" y="145" type="curve" smooth="yes"/>
      <point x="543" y="145"/>
      <point x="554" y="156"/>
      <point x="554" y="169" type="curve" smooth="yes"/>
      <point x="554" y="182"/>
      <point x="543" y="193"/>
      <point x="530" y="193" type="curve" smooth="yes"/>
      <point x="517" y="193"/>
      <point x="506" y="182"/>
      <point x="506" y="169" type="curve" smooth="yes"/>
      <point x="506" y="156"/>
      <point x="517" y="145"/>
    </contour>
    <contour>
      <point x="457" y="217" type="curve" smooth="yes"/>
      <point x="470" y="217"/>
      <point x="481" y="228"/>
      <point x="481" y="241" type="curve" smooth="yes"/>
      <point x="481" y="254"/>
      <point x="470" y="265"/>
      <point x="457" y="265" type="curve" smooth="yes"/>
      <point x="444" y="265"/>
      <point x="433" y="254"/>
      <point x="433" y="241" type="curve" smooth="yes"/>
      <point x="433" y="228"/>
      <point x="444" y="217"/>
    </contour>
  </outline>
</glyph>
<glyph name="uni17BF" format="2">
  <advance width="1298"/>
  <unicode hex="17BF"/>
  <note>
uni17BF
</note>
  <anchor x="971" y="1220" name="abvm"/>
  <anchor x="659" y="45" name="blwm"/>
  <outline>
    <contour>
      <point x="105" y="284" type="line"/>
      <point x="197" y="284" type="line"/>
      <point x="197" y="409" type="line"/>
      <point x="105" y="409" type="line"/>
    </contour>
    <contour>
      <point x="197" y="350" type="line"/>
      <point x="197" y="447" type="line"/>
      <point x="92" y="532" type="line"/>
      <point x="135" y="590" type="line"/>
      <point x="170" y="565"/>
      <point x="192" y="557"/>
      <point x="209" y="557" type="curve" smooth="yes"/>
      <point x="248" y="557"/>
      <point x="273" y="596"/>
      <point x="273" y="629" type="curve"/>
      <point x="222" y="625"/>
      <point x="199" y="638"/>
      <point x="135" y="680" type="curve"/>
      <point x="42" y="552"/>
      <point x="20" y="534"/>
      <point x="20" y="514" type="curve" smooth="yes"/>
      <point x="20" y="499"/>
      <point x="32" y="484"/>
      <point x="105" y="424" type="curve"/>
      <point x="105" y="350" type="line"/>
    </contour>
    <contour>
      <point x="105" y="316" type="line"/>
      <point x="105" y="0" type="line"/>
      <point x="197" y="0" type="line"/>
      <point x="295" y="59"/>
      <point x="308" y="115"/>
      <point x="308" y="151" type="curve" smooth="yes"/>
      <point x="308" y="211"/>
      <point x="272" y="250"/>
      <point x="197" y="246" type="curve"/>
      <point x="197" y="316" type="line"/>
    </contour>
    <contour>
      <point x="197" y="181" type="line"/>
      <point x="220" y="181"/>
      <point x="237" y="175"/>
      <point x="237" y="150" type="curve" smooth="yes"/>
      <point x="237" y="127"/>
      <point x="223" y="105"/>
      <point x="197" y="89" type="curve"/>
    </contour>
    <contour>
      <point x="463" y="312" type="curve" smooth="yes"/>
      <point x="476" y="312"/>
      <point x="487" y="323"/>
      <point x="487" y="336" type="curve" smooth="yes"/>
      <point x="487" y="349"/>
      <point x="476" y="360"/>
      <point x="463" y="360" type="curve" smooth="yes"/>
      <point x="450" y="360"/>
      <point x="439" y="349"/>
      <point x="439" y="336" type="curve" smooth="yes"/>
      <point x="439" y="323"/>
      <point x="450" y="312"/>
    </contour>
    <contour>
      <point x="489" y="413" type="curve" smooth="yes"/>
      <point x="502" y="413"/>
      <point x="513" y="424"/>
      <point x="513" y="437" type="curve" smooth="yes"/>
      <point x="513" y="450"/>
      <point x="502" y="461"/>
      <point x="489" y="461" type="curve" smooth="yes"/>
      <point x="476" y="461"/>
      <point x="465" y="450"/>
      <point x="465" y="437" type="curve" smooth="yes"/>
      <point x="465" y="424"/>
      <point x="476" y="413"/>
    </contour>
    <contour>
      <point x="560" y="483" type="curve" smooth="yes"/>
      <point x="573" y="483"/>
      <point x="584" y="494"/>
      <point x="584" y="507" type="curve" smooth="yes"/>
      <point x="584" y="520"/>
      <point x="573" y="531"/>
      <point x="560" y="531" type="curve" smooth="yes"/>
      <point x="547" y="531"/>
      <point x="536" y="520"/>
      <point x="536" y="507" type="curve" smooth="yes"/>
      <point x="536" y="494"/>
      <point x="547" y="483"/>
    </contour>
    <contour>
      <point x="657" y="507" type="curve" smooth="yes"/>
      <point x="670" y="507"/>
      <point x="681" y="518"/>
      <point x="681" y="531" type="curve" smooth="yes"/>
      <point x="681" y="544"/>
      <point x="670" y="555"/>
      <point x="657" y="555" type="curve" smooth="yes"/>
      <point x="644" y="555"/>
      <point x="633" y="544"/>
      <point x="633" y="531" type="curve" smooth="yes"/>
      <point x="633" y="518"/>
      <point x="644" y="507"/>
    </contour>
    <contour>
      <point x="754" y="483" type="curve" smooth="yes"/>
      <point x="767" y="483"/>
      <point x="778" y="494"/>
      <point x="778" y="507" type="curve" smooth="yes"/>
      <point x="778" y="520"/>
      <point x="767" y="531"/>
      <point x="754" y="531" type="curve" smooth="yes"/>
      <point x="741" y="531"/>
      <point x="730" y="520"/>
      <point x="730" y="507" type="curve" smooth="yes"/>
      <point x="730" y="494"/>
      <point x="741" y="483"/>
    </contour>
    <contour>
      <point x="824" y="411" type="curve" smooth="yes"/>
      <point x="837" y="411"/>
      <point x="848" y="422"/>
      <point x="848" y="435" type="curve" smooth="yes"/>
      <point x="848" y="448"/>
      <point x="837" y="459"/>
      <point x="824" y="459" type="curve" smooth="yes"/>
      <point x="811" y="459"/>
      <point x="800" y="448"/>
      <point x="800" y="435" type="curve" smooth="yes"/>
      <point x="800" y="422"/>
      <point x="811" y="411"/>
    </contour>
    <contour>
      <point x="854" y="312" type="curve" smooth="yes"/>
      <point x="867" y="312"/>
      <point x="878" y="323"/>
      <point x="878" y="336" type="curve" smooth="yes"/>
      <point x="878" y="349"/>
      <point x="867" y="360"/>
      <point x="854" y="360" type="curve" smooth="yes"/>
      <point x="841" y="360"/>
      <point x="830" y="349"/>
      <point x="830" y="336" type="curve" smooth="yes"/>
      <point x="830" y="323"/>
      <point x="841" y="312"/>
    </contour>
    <contour>
      <point x="826" y="218" type="curve" smooth="yes"/>
      <point x="839" y="218"/>
      <point x="850" y="229"/>
      <point x="850" y="242" type="curve" smooth="yes"/>
      <point x="850" y="255"/>
      <point x="839" y="266"/>
      <point x="826" y="266" type="curve" smooth="yes"/>
      <point x="813" y="266"/>
      <point x="802" y="255"/>
      <point x="802" y="242" type="curve" smooth="yes"/>
      <point x="802" y="229"/>
      <point x="813" y="218"/>
    </contour>
    <contour>
      <point x="755" y="146" type="curve" smooth="yes"/>
      <point x="768" y="146"/>
      <point x="779" y="157"/>
      <point x="779" y="170" type="curve" smooth="yes"/>
      <point x="779" y="183"/>
      <point x="768" y="194"/>
      <point x="755" y="194" type="curve" smooth="yes"/>
      <point x="742" y="194"/>
      <point x="731" y="183"/>
      <point x="731" y="170" type="curve" smooth="yes"/>
      <point x="731" y="157"/>
      <point x="742" y="146"/>
    </contour>
    <contour>
      <point x="657" y="118" type="curve" smooth="yes"/>
      <point x="670" y="118"/>
      <point x="681" y="129"/>
      <point x="681" y="142" type="curve" smooth="yes"/>
      <point x="681" y="155"/>
      <point x="670" y="166"/>
      <point x="657" y="166" type="curve" smooth="yes"/>
      <point x="644" y="166"/>
      <point x="633" y="155"/>
      <point x="633" y="142" type="curve" smooth="yes"/>
      <point x="633" y="129"/>
      <point x="644" y="118"/>
    </contour>
    <contour>
      <point x="560" y="145" type="curve" smooth="yes"/>
      <point x="573" y="145"/>
      <point x="584" y="156"/>
      <point x="584" y="169" type="curve" smooth="yes"/>
      <point x="584" y="182"/>
      <point x="573" y="193"/>
      <point x="560" y="193" type="curve" smooth="yes"/>
      <point x="547" y="193"/>
      <point x="536" y="182"/>
      <point x="536" y="169" type="curve" smooth="yes"/>
      <point x="536" y="156"/>
      <point x="547" y="145"/>
    </contour>
    <contour>
      <point x="487" y="217" type="curve" smooth="yes"/>
      <point x="500" y="217"/>
      <point x="511" y="228"/>
      <point x="511" y="241" type="curve" smooth="yes"/>
      <point x="511" y="254"/>
      <point x="500" y="265"/>
      <point x="487" y="265" type="curve" smooth="yes"/>
      <point x="474" y="265"/>
      <point x="463" y="254"/>
      <point x="463" y="241" type="curve" smooth="yes"/>
      <point x="463" y="228"/>
      <point x="474" y="217"/>
    </contour>
    <contour>
      <point x="1106" y="745" type="line"/>
      <point x="1198" y="745" type="line"/>
      <point x="1198" y="810" type="line" smooth="yes"/>
      <point x="1198" y="883"/>
      <point x="1164" y="954"/>
      <point x="1077" y="1012" type="curve" smooth="yes"/>
      <point x="976" y="1079"/>
      <point x="933" y="1098"/>
      <point x="881" y="1098" type="curve" smooth="yes"/>
      <point x="790" y="1098"/>
      <point x="754" y="1045"/>
      <point x="754" y="982" type="curve" smooth="yes"/>
      <point x="754" y="940"/>
      <point x="770" y="903"/>
      <point x="825" y="903" type="curve" smooth="yes"/>
      <point x="1008" y="903" type="line" smooth="yes"/>
      <point x="1073" y="903"/>
      <point x="1106" y="872"/>
      <point x="1106" y="810" type="curve" smooth="yes"/>
    </contour>
    <contour>
      <point x="827" y="966" type="line"/>
      <point x="827" y="1011"/>
      <point x="851" y="1034"/>
      <point x="885" y="1034" type="curve" smooth="yes"/>
      <point x="921" y="1034"/>
      <point x="968" y="1007"/>
      <point x="1016" y="966" type="curve"/>
    </contour>
    <contour>
      <point x="998" y="1043" type="line"/>
      <point x="998" y="1147" type="line"/>
      <point x="931" y="1147" type="line"/>
      <point x="931" y="1074" type="line"/>
    </contour>
    <contour>
      <point x="1106" y="982" type="line"/>
      <point x="1106" y="1122" type="line"/>
      <point x="1038" y="1122" type="line"/>
      <point x="1038" y="1019" type="line"/>
    </contour>
    <contour>
      <point x="1198" y="793" type="line"/>
      <point x="1106" y="793" type="line"/>
      <point x="1106" y="-185" type="line" smooth="yes"/>
      <point x="1106" y="-220"/>
      <point x="1064" y="-250"/>
      <point x="978" y="-250" type="curve" smooth="yes"/>
      <point x="893" y="-250"/>
      <point x="850" y="-220"/>
      <point x="850" y="-185" type="curve" smooth="yes"/>
      <point x="850" y="-49" type="line"/>
      <point x="758" y="-49" type="line"/>
      <point x="758" y="-195" type="line" smooth="yes"/>
      <point x="758" y="-277"/>
      <point x="832" y="-317"/>
      <point x="978" y="-317" type="curve" smooth="yes"/>
      <point x="1125" y="-317"/>
      <point x="1198" y="-277"/>
      <point x="1198" y="-195" type="curve" smooth="yes"/>
    </contour>
  </outline>
</glyph>
